<svg width="74" height="74" viewBox="0 0 74 74" fill="none" xmlns="http://www.w3.org/2000/svg">
<path d="M36.533 8.30869C27.9142 8.18215 15.9417 8.36715 13.4768 14.9887L7.42062 29.1996C7.15201 28.8924 6.79974 28.6699 6.40682 28.5595L3.96852 27.8736C3.70041 27.7975 3.41992 27.7752 3.14316 27.8079C2.86639 27.8405 2.5988 27.9275 2.35575 28.0639C2.1127 28.2002 1.89896 28.3832 1.72682 28.6024C1.55468 28.8215 1.42751 29.0725 1.35262 29.341L0.0805642 33.8579C0.00465195 34.126 -0.0175851 34.4064 0.0151287 34.6831C0.0478425 34.9598 0.134863 35.2273 0.271199 35.4702C0.407535 35.7132 0.590502 35.9269 0.809604 36.099C1.02871 36.2711 1.27963 36.3982 1.54798 36.4731L3.98702 37.1598C4.06842 37.182 4.14982 37.1894 4.23122 37.2027C3.76502 38.3645 3.47494 39.6418 3.47494 40.4018V56.9186C3.47494 57.7651 3.83014 58.1573 4.39402 58.3408V62.7409C4.39315 63.1315 4.46944 63.5184 4.61851 63.8795C4.76759 64.2405 4.98651 64.5686 5.26271 64.8448C5.53892 65.121 5.86696 65.3399 6.22801 65.489C6.58906 65.638 6.97599 65.7143 7.3666 65.7135H15.3416C15.7322 65.7143 16.1191 65.638 16.4802 65.489C16.8412 65.3399 17.1693 65.121 17.4455 64.8448C17.7217 64.5686 17.9406 64.2405 18.0897 63.8795C18.2388 63.5184 18.315 63.1315 18.3142 62.7409V58.5022H55.6864V62.7409C55.6857 63.1315 55.7622 63.5184 55.9113 63.8794C56.0605 64.2404 56.2795 64.5684 56.5558 64.8446C56.832 65.1208 57.1601 65.3397 57.5211 65.4888C57.8822 65.6379 58.2691 65.7142 58.6597 65.7135H66.6332C67.0239 65.7143 67.4109 65.6381 67.772 65.489C68.1332 65.3399 68.4613 65.121 68.7376 64.8449C69.0139 64.5687 69.233 64.2406 69.3822 63.8796C69.5315 63.5185 69.608 63.1316 69.6073 62.7409V58.3416C70.1719 58.1581 70.5249 57.7659 70.5249 56.9193V40.4025C70.5249 39.6425 70.234 38.3653 69.7686 37.2035C69.85 37.1909 69.9314 37.1835 70.0128 37.1606L72.4526 36.4738C72.7209 36.3989 72.9717 36.2717 73.1907 36.0995C73.4097 35.9274 73.5926 35.7137 73.7289 35.4708C73.8652 35.2278 73.9521 34.9603 73.9848 34.6837C74.0174 34.4071 73.9952 34.1267 73.9192 33.8587L72.6487 29.3417C72.5737 29.0733 72.4465 28.8222 72.2742 28.6031C72.102 28.3839 71.8882 28.2009 71.6451 28.0646C71.402 27.9282 71.1344 27.8412 70.8575 27.8086C70.5807 27.7759 70.3002 27.7983 70.032 27.8743L67.5937 28.5603C67.2008 28.6711 66.8484 28.8935 66.5792 29.2004L60.523 14.9894C57.8812 8.26725 45.151 8.43597 36.5322 8.30943L36.533 8.30869ZM61.2171 30.0973C61.3607 30.5235 60.9315 30.8077 60.4823 30.8336C60.4823 30.8336 59.0142 30.9579 56.9895 31.1214C55.4488 27.5221 51.8687 24.9853 47.721 24.9853C43.1693 24.9853 39.305 28.0415 38.0655 32.2033C37.7221 32.2077 37.3233 32.2225 37.0043 32.2225C29.1626 32.2225 13.5175 30.8336 13.5175 30.8336C13.069 30.8069 12.6391 30.5228 12.7827 30.0973C18.8077 11.7297 18.9876 13.1106 36.6669 13.3037C54.3455 13.4961 54.4484 12.1841 61.2171 30.0973ZM47.721 28.4567C48.8125 28.4529 49.8878 28.7209 50.8499 29.2365C51.8119 29.7521 52.6305 30.499 53.2318 31.41C49.6909 31.6727 45.6157 31.9413 41.818 32.0975C42.3645 31.0005 43.2069 30.0782 44.25 29.4348C45.2932 28.7914 46.4954 28.4526 47.721 28.4567ZM6.96108 34.4174C7.01436 34.4966 7.06616 34.5757 7.12536 34.652H6.89596L6.96108 34.4174ZM10.8786 39.0305C12.4297 39.0054 20.7562 41.8078 20.7562 41.8078C21.7959 42.1008 22.7112 44.0662 22.7061 45.1466C22.6905 48.7852 13.3014 47.522 9.48966 47.5368C9.23353 47.5373 8.97981 47.4872 8.74306 47.3895C8.50632 47.2917 8.2912 47.1482 8.11005 46.9671C7.9289 46.786 7.78527 46.5709 7.68741 46.3342C7.58955 46.0975 7.53937 45.8438 7.53976 45.5877V40.9812C7.53976 39.9008 9.3276 39.0572 10.8786 39.0305ZM63.1212 39.0305C64.6722 39.0564 66.46 39.9008 66.46 40.9812V45.5877C66.4605 45.8439 66.4104 46.0977 66.3126 46.3344C66.2148 46.5712 66.0712 46.7864 65.89 46.9675C65.7089 47.1487 65.4937 47.2923 65.2569 47.3901C65.0201 47.488 64.7664 47.5381 64.5101 47.5376C60.6991 47.5228 51.3093 48.7852 51.2937 45.1466C51.2886 44.0662 52.2039 42.1008 53.2436 41.8078C53.2436 41.8078 61.5701 39.0054 63.1212 39.0305Z" fill="white"/>
</svg>
