<svg width="236" height="47" viewBox="0 0 236 47" fill="none" xmlns="http://www.w3.org/2000/svg">
<path d="M1.68164 11.2207C6.20247 10.7741 9.62044 10.5508 11.9355 10.5508C14.2507 10.5508 16.0827 10.7194 17.4316 11.0566C18.7897 11.3939 19.9062 11.918 20.7812 12.6289C22.4766 14.0143 23.3242 16.2884 23.3242 19.4512C23.3242 20.873 23.0553 22.1764 22.5176 23.3613C21.9798 24.5462 21.2461 25.5625 20.3164 26.4102C19.3867 27.2578 18.2975 27.9186 17.0488 28.3926C15.8001 28.8665 14.4648 29.1035 13.043 29.1035L10.6094 29.0488V33H1.68164V11.2207ZM14 16.2246C13.2161 16.2246 12.0677 16.7669 10.5547 17.8516V23.0059L12.1543 22.2266C13.2116 21.707 13.9499 21.2103 14.3691 20.7363C15.153 19.8522 15.5449 18.9727 15.5449 18.0977C15.5449 17.2227 15.2487 16.6439 14.6562 16.3613C14.4648 16.2702 14.2461 16.2246 14 16.2246ZM27.4941 31.4961C26.765 30.8125 26.1816 29.9557 25.7441 28.9258C25.3158 27.8867 25.1016 26.7702 25.1016 25.5762C25.1016 24.3822 25.2201 23.3477 25.457 22.4727C25.931 20.7318 26.7604 19.2689 27.9453 18.084C28.5104 17.5007 29.1393 17.0085 29.832 16.6074C31.2539 15.778 32.7533 15.3633 34.3301 15.3633C35.916 15.3633 37.306 15.8874 38.5 16.9355C38.8828 17.2728 39.2155 17.6602 39.498 18.0977L41.4531 16.0059H45.9375V33H41.4531L39.498 30.1699C38.0033 32.3757 35.7383 33.4831 32.7031 33.4922C31.8646 33.5013 30.9668 33.3372 30.0098 33C29.0618 32.6719 28.2233 32.1706 27.4941 31.4961ZM38.5684 21.1602C38.2402 20.9688 37.8483 20.873 37.3926 20.873C36.9368 20.873 36.4538 21.0371 35.9434 21.3652C35.4421 21.6842 34.9909 22.0898 34.5898 22.582C33.6966 23.6849 33.25 24.806 33.25 25.9453C33.25 26.7474 33.4961 27.3125 33.9883 27.6406C34.444 27.9414 35.1367 27.9004 36.0664 27.5176C37.0052 27.1257 37.8392 26.6198 38.5684 26V21.1602ZM61.3594 22.418C60.5208 22.418 59.6595 22.7233 58.7754 23.334C57.8913 23.9447 57.4447 24.5234 57.4355 25.0703V33H49.2051V16.0059H57.4355V17.8242C57.9004 17.1224 58.4746 16.5618 59.1582 16.1426C59.8509 15.7233 60.5846 15.4727 61.3594 15.3906V22.418ZM65.666 31.4961C64.9368 30.8125 64.3535 29.9557 63.916 28.9258C63.4876 27.8867 63.2734 26.7702 63.2734 25.5762C63.2734 24.3822 63.3919 23.3477 63.6289 22.4727C64.1029 20.7318 64.9323 19.2689 66.1172 18.084C66.6823 17.5007 67.3112 17.0085 68.0039 16.6074C69.4258 15.778 70.9251 15.3633 72.502 15.3633C74.0879 15.3633 75.4779 15.8874 76.6719 16.9355C77.0547 17.2728 77.3874 17.6602 77.6699 18.0977L79.625 16.0059H84.1094V33H79.625L77.6699 30.1699C76.1751 32.3757 73.9102 33.4831 70.875 33.4922C70.0365 33.5013 69.1387 33.3372 68.1816 33C67.2337 32.6719 66.3952 32.1706 65.666 31.4961ZM76.7402 21.1602C76.4121 20.9688 76.0202 20.873 75.5645 20.873C75.1087 20.873 74.6257 21.0371 74.1152 21.3652C73.6139 21.6842 73.1628 22.0898 72.7617 22.582C71.8685 23.6849 71.4219 24.806 71.4219 25.9453C71.4219 26.7474 71.668 27.3125 72.1602 27.6406C72.6159 27.9414 73.3086 27.9004 74.2383 27.5176C75.1771 27.1257 76.0111 26.6198 76.7402 26V21.1602ZM97.1797 15.3906C98.2643 15.3906 99.3809 15.5684 100.529 15.9238V9.99023H108.486V33H103.414L101.459 30.1699C99.791 32.3757 97.599 33.4785 94.8828 33.4785C92.7044 33.4785 90.7995 32.7402 89.168 31.2637C87.5456 29.778 86.7344 27.8776 86.7344 25.5625C86.7344 23.2474 87.2083 21.3424 88.1562 19.8477C90.0339 16.8763 93.0417 15.3906 97.1797 15.3906ZM100.529 21.1602C100.219 20.9688 99.8822 20.873 99.5176 20.873C99.153 20.873 98.8021 20.946 98.4648 21.0918C97.7721 21.3926 97.1523 21.8802 96.6055 22.5547C96.3138 22.8828 96.0677 23.2337 95.8672 23.6074C95.4297 24.4095 95.2109 25.207 95.2109 26C95.2109 26.7839 95.4525 27.3307 95.9355 27.6406C96.1087 27.75 96.3184 27.8092 96.5645 27.8184C97.7493 27.8184 99.071 27.2214 100.529 26.0273V21.1602ZM113.682 31.4961C112.952 30.8125 112.369 29.9557 111.932 28.9258C111.503 27.8867 111.289 26.7702 111.289 25.5762C111.289 24.3822 111.408 23.3477 111.645 22.4727C112.118 20.7318 112.948 19.2689 114.133 18.084C114.698 17.5007 115.327 17.0085 116.02 16.6074C117.441 15.778 118.941 15.3633 120.518 15.3633C122.104 15.3633 123.493 15.8874 124.688 16.9355C125.07 17.2728 125.403 17.6602 125.686 18.0977L127.641 16.0059H132.125V33H127.641L125.686 30.1699C124.191 32.3757 121.926 33.4831 118.891 33.4922C118.052 33.5013 117.154 33.3372 116.197 33C115.249 32.6719 114.411 32.1706 113.682 31.4961ZM124.756 21.1602C124.428 20.9688 124.036 20.873 123.58 20.873C123.124 20.873 122.641 21.0371 122.131 21.3652C121.63 21.6842 121.178 22.0898 120.777 22.582C119.884 23.6849 119.438 24.806 119.438 25.9453C119.438 26.7474 119.684 27.3125 120.176 27.6406C120.632 27.9414 121.324 27.9004 122.254 27.5176C123.193 27.1257 124.027 26.6198 124.756 26V21.1602ZM159.633 18.2754C159.04 18.0475 158.407 17.9336 157.732 17.9336C156.347 17.9336 155.139 18.4395 154.109 19.4512C153.089 20.4538 152.578 21.6569 152.578 23.0605C152.578 23.9993 152.76 24.7331 153.125 25.2617C153.49 25.7904 153.986 26.0547 154.615 26.0547C155.244 26.0547 155.937 25.8952 156.693 25.5762C157.459 25.248 158.58 24.5417 160.057 23.457V32.3574C158.115 33.1413 156.051 33.5332 153.863 33.5332C151.685 33.5332 149.675 33.1139 147.834 32.2754C144.908 30.9355 142.98 28.8392 142.051 25.9863C141.741 25.0111 141.581 23.9355 141.572 22.7598C141.572 21.584 141.718 20.4583 142.01 19.3828C142.301 18.3073 142.725 17.3138 143.281 16.4023C144.393 14.5703 145.952 13.1348 147.957 12.0957C149.971 11.0566 152.277 10.5417 154.875 10.5508C156.853 10.5508 158.439 10.7741 159.633 11.2207V18.2754ZM174.371 20.873C174.371 20.071 173.997 19.6699 173.25 19.6699C172.393 19.752 171.837 20.194 171.582 20.9961C171.454 21.3789 171.363 21.8255 171.309 22.3359C171.263 22.8372 171.19 23.375 171.09 23.9492L174.084 23.2793L174.344 21.1875L174.371 20.873ZM172.525 27.0938C172.525 27.0938 172.275 27.0938 171.773 27.0938C171.536 27.0938 171.309 27.0846 171.09 27.0664C171.09 28.151 171.669 28.7435 172.826 28.8438C173.145 28.8711 173.455 28.8848 173.756 28.8848C174.531 28.8848 175.501 28.707 176.668 28.3516C177.844 27.9961 178.896 27.4173 179.826 26.6152L180.674 30.8672C178.641 32.6263 175.57 33.5059 171.459 33.5059C169.098 33.5059 167.07 32.8177 165.375 31.4414C163.534 29.9375 162.613 27.8548 162.613 25.1934C162.613 23.1882 163.133 21.388 164.172 19.793C165.138 18.3346 166.446 17.2272 168.096 16.4707C169.745 15.7142 171.527 15.3359 173.441 15.3359C175.921 15.3359 177.794 15.8783 179.061 16.9629C180.337 18.0475 180.97 19.3874 180.961 20.9824C180.961 22.5775 180.2 23.9948 178.678 25.2344C177.156 26.474 175.105 27.0938 172.525 27.0938ZM196 22.418C195.161 22.418 194.3 22.7233 193.416 23.334C192.532 23.9447 192.085 24.5234 192.076 25.0703V33H183.846V16.0059H192.076V17.8242C192.541 17.1224 193.115 16.5618 193.799 16.1426C194.492 15.7233 195.225 15.4727 196 15.3906V22.418ZM211.271 31.7695C209.54 32.9453 207.703 33.5332 205.762 33.5332C203.829 33.5332 202.257 32.9863 201.045 31.8926C199.833 30.7897 199.227 29.3086 199.227 27.4492V20.3398H197.668V16.0059H199.227V11.4121L207.402 10.5781V16.0059H211.271V20.3398H207.402V24.6328C207.402 25.918 207.689 26.8522 208.264 27.4355C208.847 28.0098 209.85 28.2969 211.271 28.2969V31.7695ZM215.674 31.4961C214.945 30.8125 214.361 29.9557 213.924 28.9258C213.495 27.8867 213.281 26.7702 213.281 25.5762C213.281 24.3822 213.4 23.3477 213.637 22.4727C214.111 20.7318 214.94 19.2689 216.125 18.084C216.69 17.5007 217.319 17.0085 218.012 16.6074C219.434 15.778 220.933 15.3633 222.51 15.3633C224.096 15.3633 225.486 15.8874 226.68 16.9355C227.062 17.2728 227.395 17.6602 227.678 18.0977L229.633 16.0059H234.117V33H229.633L227.678 30.1699C226.183 32.3757 223.918 33.4831 220.883 33.4922C220.044 33.5013 219.146 33.3372 218.189 33C217.242 32.6719 216.403 32.1706 215.674 31.4961ZM226.748 21.1602C226.42 20.9688 226.028 20.873 225.572 20.873C225.117 20.873 224.633 21.0371 224.123 21.3652C223.622 21.6842 223.171 22.0898 222.77 22.582C221.876 23.6849 221.43 24.806 221.43 25.9453C221.43 26.7474 221.676 27.3125 222.168 27.6406C222.624 27.9414 223.316 27.9004 224.246 27.5176C225.185 27.1257 226.019 26.6198 226.748 26V21.1602Z" fill="#4CF412"/>
<path d="M1.68164 11.2207L1.58333 10.2255L0.681641 10.3146V11.2207H1.68164ZM17.4316 11.0566L17.1891 12.0268L17.1906 12.0272L17.4316 11.0566ZM20.7812 12.6289L21.414 11.8546L21.4118 11.8528L20.7812 12.6289ZM13.043 29.1035L13.0205 30.1033L13.0317 30.1035H13.043V29.1035ZM10.6094 29.0488L10.6318 28.0491L9.60938 28.0261V29.0488H10.6094ZM10.6094 33V34H11.6094V33H10.6094ZM1.68164 33H0.681641V34H1.68164V33ZM10.5547 17.8516L9.97206 17.0388L9.55469 17.338V17.8516H10.5547ZM10.5547 23.0059H9.55469V24.6054L10.9927 23.9049L10.5547 23.0059ZM12.1543 22.2266L12.5923 23.1256L12.5953 23.1241L12.1543 22.2266ZM14.3691 20.7363L13.6209 20.0729L13.6201 20.0738L14.3691 20.7363ZM14.6562 16.3613L15.0867 15.4587L15.0862 15.4585L14.6562 16.3613ZM1.77995 12.2159C6.29283 11.77 9.67117 11.5508 11.9355 11.5508V9.55078C9.56972 9.55078 6.11212 9.77815 1.58333 10.2255L1.77995 12.2159ZM11.9355 11.5508C14.2153 11.5508 15.9545 11.7181 17.1891 12.0268L17.6742 10.0865C16.2109 9.72067 14.286 9.55078 11.9355 9.55078V11.5508ZM17.1906 12.0272C18.4397 12.3373 19.4137 12.8063 20.1507 13.405L21.4118 11.8528C20.3988 11.0297 19.1398 10.4504 17.6726 10.0861L17.1906 12.0272ZM20.1485 13.4032C21.5221 14.5258 22.3242 16.4502 22.3242 19.4512H24.3242C24.3242 16.1266 23.431 13.5029 21.414 11.8546L20.1485 13.4032ZM22.3242 19.4512C22.3242 20.7439 22.0805 21.9046 21.607 22.9481L23.4282 23.7746C24.0301 22.4483 24.3242 21.0022 24.3242 19.4512H22.3242ZM21.607 22.9481C21.1233 24.0138 20.4687 24.9181 19.6427 25.6712L20.9902 27.1491C22.0235 26.2069 22.8363 25.0787 23.4282 23.7746L21.607 22.9481ZM19.6427 25.6712C18.8116 26.4289 17.8323 27.0256 16.694 27.4577L17.4037 29.3275C18.7627 28.8117 19.9618 28.0867 20.9902 27.1491L19.6427 25.6712ZM16.694 27.4577C15.5658 27.8859 14.3515 28.1035 13.043 28.1035V30.1035C14.5782 30.1035 16.0345 29.8472 17.4037 29.3275L16.694 27.4577ZM13.0654 28.1038L10.6318 28.0491L10.5869 30.0486L13.0205 30.1033L13.0654 28.1038ZM9.60938 29.0488V33H11.6094V29.0488H9.60938ZM10.6094 32H1.68164V34H10.6094V32ZM2.68164 33V11.2207H0.681641V33H2.68164ZM14 15.2246C13.3966 15.2246 12.7583 15.4275 12.1238 15.7271C11.4763 16.0329 10.7572 16.476 9.97206 17.0388L11.1373 18.6643C11.8652 18.1425 12.4769 17.7721 12.9778 17.5356C13.4917 17.2929 13.8196 17.2246 14 17.2246V15.2246ZM9.55469 17.8516V23.0059H11.5547V17.8516H9.55469ZM10.9927 23.9049L12.5923 23.1256L11.7163 21.3276L10.1167 22.1069L10.9927 23.9049ZM12.5953 23.1241C13.6863 22.588 14.5671 22.0218 15.1181 21.3989L13.6201 20.0738C13.3326 20.3988 12.7368 20.8261 11.7133 21.3291L12.5953 23.1241ZM15.1174 21.3997C16.006 20.3974 16.5449 19.2917 16.5449 18.0977H14.5449C14.5449 18.6536 14.3 19.307 13.6209 20.0729L15.1174 21.3997ZM16.5449 18.0977C16.5449 16.9887 16.1457 15.9638 15.0867 15.4587L14.2258 17.2639C14.3517 17.324 14.5449 17.4566 14.5449 18.0977H16.5449ZM15.0862 15.4585C14.7405 15.2939 14.371 15.2246 14 15.2246V17.2246C14.1212 17.2246 14.1892 17.2465 14.2263 17.2642L15.0862 15.4585ZM27.4941 31.4961L26.8102 32.2256L26.8151 32.2302L27.4941 31.4961ZM25.7441 28.9258L24.8196 29.307L24.8237 29.3167L25.7441 28.9258ZM25.457 22.4727L24.4921 22.21L24.4918 22.2112L25.457 22.4727ZM27.9453 18.084L28.6524 18.7911L28.658 18.7855L28.6636 18.7798L27.9453 18.084ZM29.832 16.6074L30.3331 17.4729L30.3359 17.4712L29.832 16.6074ZM38.5 16.9355L39.161 16.1852L39.1597 16.184L38.5 16.9355ZM39.498 18.0977L38.658 18.6402L39.3534 19.7169L40.2286 18.7805L39.498 18.0977ZM41.4531 16.0059V15.0059H41.019L40.7225 15.323L41.4531 16.0059ZM45.9375 16.0059H46.9375V15.0059H45.9375V16.0059ZM45.9375 33V34H46.9375V33H45.9375ZM41.4531 33L40.6304 33.5684L40.9285 34H41.4531V33ZM39.498 30.1699L40.3208 29.6015L39.4901 28.3991L38.6702 29.6089L39.498 30.1699ZM32.7031 33.4922L32.7001 32.4922L32.6923 32.4922L32.7031 33.4922ZM30.0098 33L30.3421 32.0568L30.3369 32.055L30.0098 33ZM38.5684 21.1602H39.5684V20.5858L39.0722 20.2964L38.5684 21.1602ZM35.9434 21.3652L36.4802 22.2089L36.4841 22.2064L35.9434 21.3652ZM34.5898 22.582L33.8146 21.9504L33.8127 21.9526L34.5898 22.582ZM33.9883 27.6406L33.4336 28.4727L33.4374 28.4752L33.9883 27.6406ZM36.0664 27.5176L36.4472 28.4423L36.4517 28.4404L36.0664 27.5176ZM38.5684 26L39.216 26.7619L39.5684 26.4624V26H38.5684ZM28.1781 30.7666C27.5619 30.1889 27.0542 29.452 26.6645 28.5348L24.8237 29.3167C25.3091 30.4594 25.968 31.4361 26.8102 32.2256L28.1781 30.7666ZM26.6687 28.5446C26.2932 27.6339 26.1016 26.6477 26.1016 25.5762H24.1016C24.1016 26.8927 24.3383 28.1396 24.8196 29.3069L26.6687 28.5446ZM26.1016 25.5762C26.1016 24.4443 26.2143 23.5018 26.4223 22.7341L24.4918 22.2112C24.2258 23.1935 24.1016 24.32 24.1016 25.5762H26.1016ZM26.4219 22.7353C26.8537 21.1492 27.6001 19.8434 28.6524 18.7911L27.2382 17.3769C25.9207 18.6943 25.0082 20.3143 24.4922 22.21L26.4219 22.7353ZM28.6636 18.7798C29.1654 18.2618 29.7214 17.827 30.3331 17.4728L29.331 15.742C28.5572 16.19 27.8554 16.7395 27.2271 17.3882L28.6636 18.7798ZM30.3359 17.4712C31.6118 16.7269 32.9383 16.3633 34.3301 16.3633V14.3633C32.5683 14.3633 30.896 14.8291 29.3282 15.7436L30.3359 17.4712ZM34.3301 16.3633C35.6727 16.3633 36.8284 16.7987 37.8403 17.6871L39.1597 16.184C37.7836 14.976 36.1593 14.3633 34.3301 14.3633V16.3633ZM37.839 17.6859C38.1514 17.9612 38.4242 18.2782 38.658 18.6402L40.3381 17.5551C40.0067 17.0421 39.6142 16.5844 39.161 16.1852L37.839 17.6859ZM40.2286 18.7805L42.1837 16.6887L40.7225 15.323L38.7675 17.4148L40.2286 18.7805ZM41.4531 17.0059H45.9375V15.0059H41.4531V17.0059ZM44.9375 16.0059V33H46.9375V16.0059H44.9375ZM45.9375 32H41.4531V34H45.9375V32ZM42.2759 32.4316L40.3208 29.6015L38.6753 30.7383L40.6304 33.5684L42.2759 32.4316ZM38.6702 29.6089C37.389 31.4995 35.4581 32.4839 32.7001 32.4922L32.7061 34.4922C36.0184 34.4822 38.6175 33.2518 40.3259 30.7309L38.6702 29.6089ZM32.6923 32.4922C31.9922 32.4999 31.2114 32.3632 30.3421 32.0568L29.6774 33.9432C30.7222 34.3113 31.737 34.5027 32.714 34.4921L32.6923 32.4922ZM30.3369 32.055C29.5183 31.7716 28.7998 31.3417 28.1732 30.762L26.8151 32.2302C27.6468 32.9995 28.6054 33.5721 29.6827 33.945L30.3369 32.055ZM39.0722 20.2964C38.5632 19.9995 37.9899 19.873 37.3926 19.873V21.873C37.7067 21.873 37.9172 21.938 38.0645 22.0239L39.0722 20.2964ZM37.3926 19.873C36.6912 19.873 36.0221 20.1258 35.4026 20.5241L36.4841 22.2064C36.8855 21.9484 37.1825 21.873 37.3926 21.873V19.873ZM35.4065 20.5216C34.8089 20.9019 34.2786 21.3809 33.8146 21.9504L35.3651 23.2137C35.7032 22.7988 36.0752 22.4666 36.4802 22.2089L35.4065 20.5216ZM33.8127 21.9526C32.8117 23.1887 32.25 24.5251 32.25 25.9453H34.25C34.25 25.0869 34.5816 24.1811 35.3669 23.2114L33.8127 21.9526ZM32.25 25.9453C32.25 26.9507 32.5694 27.8966 33.4336 28.4727L34.543 26.8086C34.4228 26.7284 34.25 26.5441 34.25 25.9453H32.25ZM33.4374 28.4752C34.336 29.0683 35.4591 28.8491 36.4472 28.4423L35.6857 26.5929C34.8144 26.9517 34.5521 26.8146 34.5391 26.806L33.4374 28.4752ZM36.4517 28.4404C37.4797 28.0112 38.4034 27.4527 39.216 26.7619L37.9207 25.2381C37.275 25.7869 36.5307 26.2401 35.6812 26.5948L36.4517 28.4404ZM39.5684 26V21.1602H37.5684V26H39.5684ZM61.3594 22.418V23.418H62.3594V22.418H61.3594ZM57.4355 25.0703L56.4357 25.0536L56.4355 25.062V25.0703H57.4355ZM57.4355 33V34H58.4355V33H57.4355ZM49.2051 33H48.2051V34H49.2051V33ZM49.2051 16.0059V15.0059H48.2051V16.0059H49.2051ZM57.4355 16.0059H58.4355V15.0059H57.4355V16.0059ZM57.4355 17.8242H56.4355V21.145L58.2693 18.3764L57.4355 17.8242ZM59.1582 16.1426L58.6404 15.2871L58.6354 15.2901L59.1582 16.1426ZM61.3594 15.3906H62.3594V14.2792L61.2541 14.3962L61.3594 15.3906ZM61.3594 21.418C60.2674 21.418 59.2114 21.8175 58.2071 22.5112L59.3437 24.1568C60.1077 23.6291 60.7742 23.418 61.3594 23.418V21.418ZM58.2071 22.5112C57.2938 23.142 56.4536 23.9769 56.4357 25.0536L58.4354 25.087C58.4357 25.07 58.4887 24.7474 59.3437 24.1568L58.2071 22.5112ZM56.4355 25.0703V33H58.4355V25.0703H56.4355ZM57.4355 32H49.2051V34H57.4355V32ZM50.2051 33V16.0059H48.2051V33H50.2051ZM49.2051 17.0059H57.4355V15.0059H49.2051V17.0059ZM56.4355 16.0059V17.8242H58.4355V16.0059H56.4355ZM58.2693 18.3764C58.6577 17.79 59.1279 17.3343 59.681 16.995L58.6354 15.2901C57.8213 15.7894 57.1431 16.4548 56.6018 17.272L58.2693 18.3764ZM59.676 16.9981C60.2482 16.6518 60.8418 16.451 61.4647 16.3851L61.2541 14.3962C60.3275 14.4943 59.4537 14.7948 58.6404 15.2871L59.676 16.9981ZM60.3594 15.3906V22.418H62.3594V15.3906H60.3594ZM65.666 31.4961L64.9821 32.2256L64.987 32.2302L65.666 31.4961ZM63.916 28.9258L62.9915 29.307L62.9956 29.3167L63.916 28.9258ZM63.6289 22.4727L62.664 22.21L62.6637 22.2112L63.6289 22.4727ZM66.1172 18.084L66.8243 18.7911L66.8299 18.7855L66.8354 18.7798L66.1172 18.084ZM68.0039 16.6074L68.5049 17.4729L68.5078 17.4712L68.0039 16.6074ZM76.6719 16.9355L77.3329 16.1852L77.3316 16.184L76.6719 16.9355ZM77.6699 18.0977L76.8299 18.6402L77.5253 19.7169L78.4005 18.7805L77.6699 18.0977ZM79.625 16.0059V15.0059H79.1909L78.8944 15.323L79.625 16.0059ZM84.1094 16.0059H85.1094V15.0059H84.1094V16.0059ZM84.1094 33V34H85.1094V33H84.1094ZM79.625 33L78.8022 33.5684L79.1004 34H79.625V33ZM77.6699 30.1699L78.4927 29.6015L77.662 28.3991L76.8421 29.6089L77.6699 30.1699ZM70.875 33.4922L70.872 32.4922L70.8641 32.4922L70.875 33.4922ZM68.1816 33L68.514 32.0568L68.5088 32.055L68.1816 33ZM76.7402 21.1602H77.7402V20.5858L77.2441 20.2964L76.7402 21.1602ZM74.1152 21.3652L74.6521 22.2089L74.656 22.2064L74.1152 21.3652ZM72.7617 22.582L71.9865 21.9504L71.9846 21.9526L72.7617 22.582ZM72.1602 27.6406L71.6055 28.4727L71.6093 28.4752L72.1602 27.6406ZM74.2383 27.5176L74.619 28.4423L74.6235 28.4404L74.2383 27.5176ZM76.7402 26L77.3879 26.7619L77.7402 26.4624V26H76.7402ZM66.35 30.7666C65.7338 30.1889 65.226 29.452 64.8364 28.5348L62.9956 29.3167C63.481 30.4594 64.1399 31.4361 64.9821 32.2256L66.35 30.7666ZM64.8405 28.5446C64.465 27.6339 64.2734 26.6477 64.2734 25.5762H62.2734C62.2734 26.8927 62.5102 28.1396 62.9915 29.3069L64.8405 28.5446ZM64.2734 25.5762C64.2734 24.4443 64.3862 23.5018 64.5941 22.7341L62.6637 22.2112C62.3977 23.1935 62.2734 24.32 62.2734 25.5762H64.2734ZM64.5938 22.7353C65.0256 21.1492 65.772 19.8434 66.8243 18.7911L65.4101 17.3769C64.0926 18.6943 63.1801 20.3143 62.664 22.21L64.5938 22.7353ZM66.8354 18.7798C67.3373 18.2618 67.8933 17.827 68.5049 17.4728L67.5029 15.742C66.7291 16.19 66.0273 16.7395 65.3989 17.3882L66.8354 18.7798ZM68.5078 17.4712C69.7837 16.7269 71.1101 16.3633 72.502 16.3633V14.3633C70.7401 14.3633 69.0678 14.8291 67.5 15.7436L68.5078 17.4712ZM72.502 16.3633C73.8446 16.3633 75.0002 16.7987 76.0122 17.6871L77.3316 16.184C75.9555 14.976 74.3312 14.3633 72.502 14.3633V16.3633ZM76.0108 17.6859C76.3233 17.9612 76.5961 18.2782 76.8299 18.6402L78.51 17.5551C78.1786 17.0421 77.7861 16.5844 77.3329 16.1852L76.0108 17.6859ZM78.4005 18.7805L80.3556 16.6887L78.8944 15.323L76.9393 17.4148L78.4005 18.7805ZM79.625 17.0059H84.1094V15.0059H79.625V17.0059ZM83.1094 16.0059V33H85.1094V16.0059H83.1094ZM84.1094 32H79.625V34H84.1094V32ZM80.4478 32.4316L78.4927 29.6015L76.8472 30.7383L78.8022 33.5684L80.4478 32.4316ZM76.8421 29.6089C75.5609 31.4995 73.63 32.4839 70.872 32.4922L70.878 34.4922C74.1903 34.4822 76.7894 33.2518 78.4977 30.7309L76.8421 29.6089ZM70.8641 32.4922C70.1641 32.4999 69.3833 32.3632 68.514 32.0568L67.8493 33.9432C68.8941 34.3113 69.9088 34.5027 70.8859 34.4921L70.8641 32.4922ZM68.5088 32.055C67.6901 31.7716 66.9717 31.3417 66.3451 30.762L64.987 32.2302C65.8186 32.9995 66.7773 33.5721 67.8545 33.945L68.5088 32.055ZM77.2441 20.2964C76.7351 19.9995 76.1618 19.873 75.5645 19.873V21.873C75.8786 21.873 76.0891 21.938 76.2364 22.0239L77.2441 20.2964ZM75.5645 19.873C74.8631 19.873 74.194 20.1258 73.5745 20.5241L74.656 22.2064C75.0573 21.9484 75.3543 21.873 75.5645 21.873V19.873ZM73.5784 20.5216C72.9808 20.9019 72.4505 21.3809 71.9865 21.9504L73.537 23.2137C73.875 22.7988 74.2471 22.4666 74.6521 22.2089L73.5784 20.5216ZM71.9846 21.9526C70.9835 23.1887 70.4219 24.5251 70.4219 25.9453H72.4219C72.4219 25.0869 72.7534 24.1811 73.5388 23.2114L71.9846 21.9526ZM70.4219 25.9453C70.4219 26.9507 70.7413 27.8966 71.6055 28.4727L72.7149 26.8086C72.5946 26.7284 72.4219 26.5441 72.4219 25.9453H70.4219ZM71.6093 28.4752C72.5078 29.0683 73.631 28.8491 74.619 28.4423L73.8575 26.5929C72.9862 26.9517 72.7239 26.8146 72.711 26.806L71.6093 28.4752ZM74.6235 28.4404C75.6516 28.0112 76.5753 27.4527 77.3879 26.7619L76.0926 25.2381C75.4469 25.7869 74.7026 26.2401 73.853 26.5948L74.6235 28.4404ZM77.7402 26V21.1602H75.7402V26H77.7402ZM100.529 15.9238L100.234 16.8791L101.529 17.2802V15.9238H100.529ZM100.529 9.99023V8.99023H99.5293V9.99023H100.529ZM108.486 9.99023H109.486V8.99023H108.486V9.99023ZM108.486 33V34H109.486V33H108.486ZM103.414 33L102.591 33.5684L102.889 34H103.414V33ZM101.459 30.1699L102.282 29.6015L101.496 28.4636L100.661 29.5668L101.459 30.1699ZM89.168 31.2637L88.4926 32.0012L88.4969 32.0051L89.168 31.2637ZM88.1562 19.8477L89.0008 20.3832L89.0016 20.3818L88.1562 19.8477ZM100.529 21.1602H101.529V20.6024L101.055 20.3094L100.529 21.1602ZM98.4648 21.0918L98.0679 20.1739L98.0666 20.1745L98.4648 21.0918ZM96.6055 22.5547L97.3529 23.2191L97.3679 23.2021L97.3822 23.1845L96.6055 22.5547ZM95.8672 23.6074L96.7451 24.0863L96.7483 24.0802L95.8672 23.6074ZM95.9355 27.6406L95.3956 28.4823L95.4016 28.4861L95.9355 27.6406ZM96.5645 27.8184L96.5274 28.8177L96.5459 28.8184H96.5645V27.8184ZM100.529 26.0273L101.163 26.8011L101.529 26.501V26.0273H100.529ZM97.1797 16.3906C98.1539 16.3906 99.1707 16.5501 100.234 16.8791L100.825 14.9685C99.591 14.5866 98.3748 14.3906 97.1797 14.3906V16.3906ZM101.529 15.9238V9.99023H99.5293V15.9238H101.529ZM100.529 10.9902H108.486V8.99023H100.529V10.9902ZM107.486 9.99023V33H109.486V9.99023H107.486ZM108.486 32H103.414V34H108.486V32ZM104.237 32.4316L102.282 29.6015L100.636 30.7383L102.591 33.5684L104.237 32.4316ZM100.661 29.5668C99.1784 31.5279 97.279 32.4785 94.8828 32.4785V34.4785C97.919 34.4785 100.404 33.2234 102.257 30.7731L100.661 29.5668ZM94.8828 32.4785C92.9552 32.4785 91.2887 31.8343 89.839 30.5222L88.4969 32.0051C90.3103 33.6462 92.4537 34.4785 94.8828 34.4785V32.4785ZM89.8433 30.5262C88.4397 29.2408 87.7344 27.6137 87.7344 25.5625H85.7344C85.7344 28.1415 86.6515 30.3152 88.4926 32.0012L89.8433 30.5262ZM87.7344 25.5625C87.7344 23.3797 88.1813 21.6755 89.0008 20.3832L87.3117 19.3121C86.2354 21.0094 85.7344 23.1151 85.7344 25.5625H87.7344ZM89.0016 20.3818C90.661 17.7558 93.3137 16.3906 97.1797 16.3906V14.3906C92.7696 14.3906 89.4067 15.9968 87.3109 19.3135L89.0016 20.3818ZM101.055 20.3094C100.587 20.0203 100.068 19.873 99.5176 19.873V21.873C99.6967 21.873 99.852 21.9172 100.004 22.011L101.055 20.3094ZM99.5176 19.873C99.0154 19.873 98.5295 19.9744 98.0679 20.1739L98.8618 22.0097C99.0747 21.9176 99.2906 21.873 99.5176 21.873V19.873ZM98.0666 20.1745C97.2057 20.5483 96.4616 21.1444 95.8287 21.9249L97.3822 23.1845C97.8431 22.616 98.3386 22.2368 98.8631 22.0091L98.0666 20.1745ZM95.8581 21.8903C95.5163 22.2748 95.2248 22.6897 94.986 23.1346L96.7483 24.0802C96.9106 23.7778 97.1113 23.4908 97.3529 23.2191L95.8581 21.8903ZM94.9893 23.1286C94.484 24.055 94.2109 25.0158 94.2109 26H96.2109C96.2109 25.3983 96.3754 24.764 96.7451 24.0863L94.9893 23.1286ZM94.2109 26C94.2109 26.9866 94.5265 27.9248 95.3956 28.4823L96.4755 26.7989C96.3785 26.7367 96.2109 26.5811 96.2109 26H94.2109ZM95.4016 28.4861C95.7515 28.7071 96.1407 28.8034 96.5274 28.8177L96.6015 26.819C96.5478 26.8171 96.5137 26.8102 96.4946 26.8048C96.4764 26.7996 96.4698 26.7953 96.4695 26.7951L95.4016 28.4861ZM96.5645 28.8184C98.0821 28.8184 99.6248 28.0603 101.163 26.8011L99.8958 25.2536C98.5171 26.3824 97.4166 26.8184 96.5645 26.8184V28.8184ZM101.529 26.0273V21.1602H99.5293V26.0273H101.529ZM113.682 31.4961L112.998 32.2256L113.003 32.2302L113.682 31.4961ZM111.932 28.9258L111.007 29.307L111.011 29.3167L111.932 28.9258ZM111.645 22.4727L110.68 22.21L110.679 22.2112L111.645 22.4727ZM114.133 18.084L114.84 18.7911L114.846 18.7855L114.851 18.7798L114.133 18.084ZM116.02 16.6074L116.521 17.4729L116.523 17.4712L116.02 16.6074ZM124.688 16.9355L125.349 16.1852L125.347 16.184L124.688 16.9355ZM125.686 18.0977L124.846 18.6402L125.541 19.7169L126.416 18.7805L125.686 18.0977ZM127.641 16.0059V15.0059H127.206L126.91 15.323L127.641 16.0059ZM132.125 16.0059H133.125V15.0059H132.125V16.0059ZM132.125 33V34H133.125V33H132.125ZM127.641 33L126.818 33.5684L127.116 34H127.641V33ZM125.686 30.1699L126.508 29.6015L125.678 28.3991L124.858 29.6089L125.686 30.1699ZM118.891 33.4922L118.888 32.4922L118.88 32.4922L118.891 33.4922ZM116.197 33L116.53 32.0568L116.524 32.055L116.197 33ZM124.756 21.1602H125.756V20.5858L125.26 20.2964L124.756 21.1602ZM122.131 21.3652L122.668 22.2089L122.672 22.2064L122.131 21.3652ZM120.777 22.582L120.002 21.9504L120 21.9526L120.777 22.582ZM120.176 27.6406L119.621 28.4727L119.625 28.4752L120.176 27.6406ZM122.254 27.5176L122.635 28.4423L122.639 28.4404L122.254 27.5176ZM124.756 26L125.404 26.7619L125.756 26.4624V26H124.756ZM114.366 30.7666C113.749 30.1889 113.242 29.452 112.852 28.5348L111.011 29.3167C111.497 30.4594 112.156 31.4361 112.998 32.2256L114.366 30.7666ZM112.856 28.5446C112.481 27.6339 112.289 26.6477 112.289 25.5762H110.289C110.289 26.8927 110.526 28.1396 111.007 29.3069L112.856 28.5446ZM112.289 25.5762C112.289 24.4443 112.402 23.5018 112.61 22.7341L110.679 22.2112C110.413 23.1935 110.289 24.32 110.289 25.5762H112.289ZM112.609 22.7353C113.041 21.1492 113.788 19.8434 114.84 18.7911L113.426 17.3769C112.108 18.6943 111.196 20.3143 110.68 22.21L112.609 22.7353ZM114.851 18.7798C115.353 18.2618 115.909 17.827 116.521 17.4728L115.518 15.742C114.745 16.19 114.043 16.7395 113.415 17.3882L114.851 18.7798ZM116.523 17.4712C117.799 16.7269 119.126 16.3633 120.518 16.3633V14.3633C118.756 14.3633 117.083 14.8291 115.516 15.7436L116.523 17.4712ZM120.518 16.3633C121.86 16.3633 123.016 16.7987 124.028 17.6871L125.347 16.184C123.971 14.976 122.347 14.3633 120.518 14.3633V16.3633ZM124.026 17.6859C124.339 17.9612 124.612 18.2782 124.846 18.6402L126.526 17.5551C126.194 17.0421 125.802 16.5844 125.349 16.1852L124.026 17.6859ZM126.416 18.7805L128.371 16.6887L126.91 15.323L124.955 17.4148L126.416 18.7805ZM127.641 17.0059H132.125V15.0059H127.641V17.0059ZM131.125 16.0059V33H133.125V16.0059H131.125ZM132.125 32H127.641V34H132.125V32ZM128.463 32.4316L126.508 29.6015L124.863 30.7383L126.818 33.5684L128.463 32.4316ZM124.858 29.6089C123.577 31.4995 121.646 32.4839 118.888 32.4922L118.894 34.4922C122.206 34.4822 124.805 33.2518 126.513 30.7309L124.858 29.6089ZM118.88 32.4922C118.18 32.4999 117.399 32.3632 116.53 32.0568L115.865 33.9432C116.91 34.3113 117.924 34.5027 118.901 34.4921L118.88 32.4922ZM116.524 32.055C115.706 31.7716 114.987 31.3417 114.361 30.762L113.003 32.2302C113.834 32.9995 114.793 33.5721 115.87 33.945L116.524 32.055ZM125.26 20.2964C124.751 19.9995 124.177 19.873 123.58 19.873V21.873C123.894 21.873 124.105 21.938 124.252 22.0239L125.26 20.2964ZM123.58 19.873C122.879 19.873 122.21 20.1258 121.59 20.5241L122.672 22.2064C123.073 21.9484 123.37 21.873 123.58 21.873V19.873ZM121.594 20.5216C120.996 20.9019 120.466 21.3809 120.002 21.9504L121.553 23.2137C121.891 22.7988 122.263 22.4666 122.668 22.2089L121.594 20.5216ZM120 21.9526C118.999 23.1887 118.438 24.5251 118.438 25.9453H120.438C120.438 25.0869 120.769 24.1811 121.554 23.2114L120 21.9526ZM118.438 25.9453C118.438 26.9507 118.757 27.8966 119.621 28.4727L120.73 26.8086C120.61 26.7284 120.438 26.5441 120.438 25.9453H118.438ZM119.625 28.4752C120.523 29.0683 121.647 28.8491 122.635 28.4423L121.873 26.5929C121.002 26.9517 120.74 26.8146 120.727 26.806L119.625 28.4752ZM122.639 28.4404C123.667 28.0112 124.591 27.4527 125.404 26.7619L124.108 25.2381C123.463 25.7869 122.718 26.2401 121.869 26.5948L122.639 28.4404ZM125.756 26V21.1602H123.756V26H125.756ZM159.633 18.2754L159.274 19.2087L160.633 19.7314V18.2754H159.633ZM154.109 19.4512L154.81 20.1646L154.81 20.1646L154.109 19.4512ZM153.125 25.2617L153.948 24.694L153.125 25.2617ZM156.693 25.5762L157.082 26.4976L157.087 26.4953L156.693 25.5762ZM160.057 23.457H161.057V21.4817L159.465 22.6511L160.057 23.457ZM160.057 32.3574L160.431 33.2847L161.057 33.0321V32.3574H160.057ZM147.834 32.2754L147.418 33.1846L147.42 33.1854L147.834 32.2754ZM142.051 25.9863L141.098 26.2892L141.1 26.2962L142.051 25.9863ZM141.572 22.7598H140.572L140.572 22.7675L141.572 22.7598ZM143.281 16.4023L144.135 16.9231L144.136 16.9212L143.281 16.4023ZM147.957 12.0957L147.499 11.207L147.497 11.2078L147.957 12.0957ZM154.875 10.5508L154.871 11.5508H154.875V10.5508ZM159.633 11.2207H160.633V10.5271L159.983 10.2841L159.633 11.2207ZM159.992 17.342C159.278 17.0674 158.522 16.9336 157.732 16.9336V18.9336C158.292 18.9336 158.803 19.0276 159.274 19.2087L159.992 17.342ZM157.732 16.9336C156.073 16.9336 154.617 17.551 153.409 18.7378L154.81 20.1646C155.662 19.3279 156.621 18.9336 157.732 18.9336V16.9336ZM153.409 18.7377C152.201 19.9243 151.578 21.3828 151.578 23.0605H153.578C153.578 21.931 153.977 20.9833 154.81 20.1646L153.409 18.7377ZM151.578 23.0605C151.578 24.1131 151.78 25.0731 152.302 25.8295L153.948 24.694C153.741 24.393 153.578 23.8856 153.578 23.0605H151.578ZM152.302 25.8295C152.848 26.6219 153.649 27.0547 154.615 27.0547V25.0547C154.323 25.0547 154.131 24.9588 153.948 24.694L152.302 25.8295ZM154.615 27.0547C155.412 27.0547 156.238 26.8534 157.082 26.4976L156.305 24.6547C155.635 24.937 155.077 25.0547 154.615 25.0547V27.0547ZM157.087 26.4953C157.966 26.1187 159.166 25.3522 160.649 24.263L159.465 22.6511C157.994 23.7311 156.952 24.3774 156.299 24.657L157.087 26.4953ZM159.057 23.457V32.3574H161.057V23.457H159.057ZM159.682 31.4302C157.865 32.1638 155.928 32.5332 153.863 32.5332V34.5332C156.173 34.5332 158.365 34.1187 160.431 33.2847L159.682 31.4302ZM153.863 32.5332C151.817 32.5332 149.95 32.1402 148.248 31.3653L147.42 33.1854C149.401 34.0877 151.553 34.5332 153.863 34.5332V32.5332ZM148.25 31.3662C145.558 30.1332 143.838 28.2428 143.002 25.6765L141.1 26.2962C142.123 29.4356 144.258 31.7379 147.418 33.1846L148.25 31.3662ZM143.004 25.6835C142.728 24.8167 142.581 23.8423 142.572 22.752L140.572 22.7675C140.582 24.0288 140.753 25.2055 141.098 26.2892L143.004 25.6835ZM142.572 22.7598C142.572 21.6675 142.708 20.6302 142.975 19.6445L141.045 19.1211C140.729 20.2865 140.572 21.5005 140.572 22.7598H142.572ZM142.975 19.6445C143.243 18.6562 143.63 17.7504 144.135 16.9231L142.428 15.8816C141.82 16.8772 141.36 17.9584 141.045 19.1211L142.975 19.6445ZM144.136 16.9212C145.148 15.2547 146.566 13.9429 148.417 12.9836L147.497 11.2078C145.338 12.3266 143.639 13.886 142.426 15.8835L144.136 16.9212ZM148.415 12.9844C150.267 12.0292 152.411 11.5421 154.871 11.5508L154.879 9.55079C152.144 9.54119 149.675 10.0841 147.499 11.207L148.415 12.9844ZM154.875 11.5508C156.792 11.5508 158.245 11.7692 159.282 12.1573L159.983 10.2841C158.633 9.77901 156.914 9.55078 154.875 9.55078V11.5508ZM158.633 11.2207V18.2754H160.633V11.2207H158.633ZM174.371 20.873L175.367 20.9597L175.371 20.9164V20.873H174.371ZM173.25 19.6699V18.6699H173.202L173.155 18.6745L173.25 19.6699ZM171.582 20.9961L172.531 21.3124L172.535 21.2993L171.582 20.9961ZM171.309 22.3359L170.314 22.2294L170.313 22.2374L170.313 22.2454L171.309 22.3359ZM171.09 23.9492L170.105 23.7772L169.847 25.252L171.308 24.9251L171.09 23.9492ZM174.084 23.2793L174.302 24.2552L174.99 24.1014L175.076 23.4025L174.084 23.2793ZM174.344 21.1875L175.336 21.3107L175.338 21.2925L175.34 21.2741L174.344 21.1875ZM171.09 27.0664L171.173 26.0699L170.09 25.9796V27.0664H171.09ZM172.826 28.8438L172.74 29.84L172.741 29.8401L172.826 28.8438ZM176.668 28.3516L176.379 27.3943L176.377 27.395L176.668 28.3516ZM179.826 26.6152L180.807 26.4197L180.472 24.7377L179.173 25.8581L179.826 26.6152ZM180.674 30.8672L181.328 31.6233L181.768 31.2425L181.655 30.6717L180.674 30.8672ZM165.375 31.4414L164.742 32.2159L164.745 32.2178L165.375 31.4414ZM164.172 19.793L163.338 19.2407L163.334 19.2471L164.172 19.793ZM168.096 16.4707L167.679 15.5617L168.096 16.4707ZM179.061 16.9629L178.41 17.7225L178.413 17.7248L179.061 16.9629ZM180.961 20.9824L179.961 20.9767V20.9824H180.961ZM178.678 25.2344L178.046 24.459L178.678 25.2344ZM175.371 20.873C175.371 20.3347 175.247 19.7447 174.822 19.289C174.385 18.8199 173.797 18.6699 173.25 18.6699V20.6699C173.35 20.6699 173.395 20.6837 173.404 20.6867C173.407 20.6877 173.384 20.6789 173.359 20.6524C173.336 20.6274 173.337 20.615 173.346 20.6433C173.356 20.6756 173.371 20.747 173.371 20.873H175.371ZM173.155 18.6745C172.575 18.73 172.027 18.9155 171.568 19.2802C171.108 19.6462 170.806 20.1384 170.629 20.6929L172.535 21.2993C172.614 21.0517 172.717 20.9219 172.813 20.8457C172.91 20.7685 173.068 20.6919 173.345 20.6654L173.155 18.6745ZM170.633 20.6799C170.478 21.1462 170.375 21.6659 170.314 22.2294L172.303 22.4425C172.352 21.9851 172.431 21.6116 172.531 21.3123L170.633 20.6799ZM170.313 22.2454C170.27 22.7156 170.201 23.2259 170.105 23.7772L172.075 24.1212C172.179 23.5241 172.256 22.9589 172.304 22.4265L170.313 22.2454ZM171.308 24.9251L174.302 24.2552L173.866 22.3034L170.871 22.9733L171.308 24.9251ZM175.076 23.4025L175.336 21.3107L173.351 21.0643L173.092 23.1561L175.076 23.4025ZM175.34 21.2741L175.367 20.9597L173.375 20.7864L173.348 21.1009L175.34 21.2741ZM172.525 27.0938C172.525 26.0938 172.525 26.0938 172.525 26.0938H172.525C172.525 26.0938 172.525 26.0938 172.525 26.0938H172.525C172.525 26.0938 172.525 26.0938 172.525 26.0938C172.525 26.0938 172.525 26.0938 172.525 26.0938C172.525 26.0938 172.525 26.0938 172.525 26.0938C172.525 26.0938 172.525 26.0938 172.525 26.0938C172.525 26.0938 172.525 26.0938 172.525 26.0938C172.525 26.0938 172.525 26.0938 172.525 26.0938C172.525 26.0938 172.525 26.0938 172.525 26.0938C172.525 26.0938 172.525 26.0938 172.525 26.0938C172.525 26.0938 172.525 26.0938 172.525 26.0938C172.525 26.0938 172.525 26.0938 172.525 26.0938C172.525 26.0938 172.525 26.0938 172.525 26.0938C172.525 26.0938 172.525 26.0938 172.525 26.0938C172.525 26.0938 172.525 26.0938 172.525 26.0938C172.525 26.0938 172.524 26.0938 172.524 26.0938C172.524 26.0938 172.524 26.0938 172.524 26.0938C172.524 26.0938 172.524 26.0938 172.524 26.0938C172.524 26.0938 172.524 26.0938 172.524 26.0938C172.524 26.0938 172.524 26.0938 172.524 26.0938C172.524 26.0938 172.524 26.0938 172.524 26.0938C172.524 26.0938 172.524 26.0938 172.524 26.0938C172.524 26.0938 172.524 26.0938 172.524 26.0938C172.524 26.0938 172.523 26.0938 172.523 26.0938C172.523 26.0938 172.523 26.0938 172.523 26.0938C172.523 26.0938 172.523 26.0938 172.523 26.0938C172.523 26.0938 172.523 26.0938 172.523 26.0938C172.523 26.0938 172.523 26.0938 172.523 26.0938C172.523 26.0938 172.523 26.0938 172.523 26.0938C172.523 26.0938 172.523 26.0938 172.522 26.0938C172.522 26.0938 172.522 26.0938 172.522 26.0938C172.522 26.0938 172.522 26.0938 172.522 26.0938C172.522 26.0938 172.522 26.0938 172.522 26.0938C172.522 26.0938 172.522 26.0938 172.522 26.0938C172.522 26.0938 172.522 26.0938 172.521 26.0938C172.521 26.0938 172.521 26.0938 172.521 26.0938C172.521 26.0938 172.521 26.0938 172.521 26.0938C172.521 26.0938 172.521 26.0938 172.521 26.0938C172.521 26.0938 172.521 26.0938 172.521 26.0938C172.52 26.0938 172.52 26.0938 172.52 26.0938C172.52 26.0938 172.52 26.0938 172.52 26.0938C172.52 26.0938 172.52 26.0938 172.52 26.0938C172.52 26.0938 172.52 26.0938 172.52 26.0938C172.52 26.0938 172.519 26.0938 172.519 26.0938C172.519 26.0938 172.519 26.0938 172.519 26.0938C172.519 26.0938 172.519 26.0938 172.519 26.0938C172.519 26.0938 172.519 26.0938 172.519 26.0938C172.518 26.0938 172.518 26.0938 172.518 26.0938C172.518 26.0938 172.518 26.0938 172.518 26.0938C172.518 26.0938 172.518 26.0938 172.518 26.0938C172.518 26.0938 172.517 26.0938 172.517 26.0938C172.517 26.0938 172.517 26.0938 172.517 26.0938C172.517 26.0938 172.517 26.0938 172.517 26.0938C172.517 26.0938 172.516 26.0938 172.516 26.0938C172.516 26.0938 172.516 26.0938 172.516 26.0938C172.516 26.0938 172.516 26.0938 172.516 26.0938C172.516 26.0938 172.516 26.0938 172.515 26.0938C172.515 26.0938 172.515 26.0938 172.515 26.0938C172.515 26.0938 172.515 26.0938 172.515 26.0938C172.515 26.0938 172.514 26.0938 172.514 26.0938C172.514 26.0938 172.514 26.0938 172.514 26.0938C172.514 26.0938 172.514 26.0938 172.514 26.0938C172.514 26.0938 172.513 26.0938 172.513 26.0938C172.513 26.0938 172.513 26.0938 172.513 26.0938C172.513 26.0938 172.513 26.0938 172.513 26.0938C172.512 26.0938 172.512 26.0938 172.512 26.0938C172.512 26.0938 172.512 26.0938 172.512 26.0938C172.512 26.0938 172.511 26.0938 172.511 26.0938C172.511 26.0938 172.511 26.0938 172.511 26.0938C172.511 26.0938 172.511 26.0938 172.511 26.0938C172.51 26.0938 172.51 26.0938 172.51 26.0938C172.51 26.0938 172.51 26.0938 172.51 26.0938C172.51 26.0938 172.509 26.0938 172.509 26.0938C172.509 26.0938 172.509 26.0938 172.509 26.0938C172.509 26.0938 172.509 26.0938 172.508 26.0938C172.508 26.0938 172.508 26.0938 172.508 26.0938C172.508 26.0938 172.508 26.0938 172.507 26.0938C172.507 26.0938 172.507 26.0938 172.507 26.0938C172.507 26.0938 172.507 26.0938 172.507 26.0938C172.506 26.0938 172.506 26.0938 172.506 26.0938C172.506 26.0938 172.506 26.0938 172.506 26.0938C172.505 26.0938 172.505 26.0938 172.505 26.0938C172.505 26.0938 172.505 26.0938 172.505 26.0938C172.505 26.0938 172.504 26.0938 172.504 26.0938C172.504 26.0938 172.504 26.0938 172.504 26.0938C172.504 26.0938 172.503 26.0938 172.503 26.0938C172.503 26.0938 172.503 26.0938 172.503 26.0938C172.503 26.0938 172.502 26.0938 172.502 26.0938C172.502 26.0938 172.502 26.0938 172.502 26.0938C172.501 26.0938 172.501 26.0938 172.501 26.0938C172.501 26.0938 172.501 26.0938 172.501 26.0938C172.5 26.0938 172.5 26.0938 172.5 26.0938C172.5 26.0938 172.5 26.0938 172.499 26.0938C172.499 26.0938 172.499 26.0938 172.499 26.0938C172.499 26.0938 172.499 26.0938 172.498 26.0938C172.498 26.0938 172.498 26.0938 172.498 26.0938C172.498 26.0938 172.497 26.0938 172.497 26.0938C172.497 26.0938 172.497 26.0938 172.497 26.0938C172.497 26.0938 172.496 26.0938 172.496 26.0938C172.496 26.0938 172.496 26.0938 172.496 26.0938C172.495 26.0938 172.495 26.0938 172.495 26.0938C172.495 26.0938 172.495 26.0938 172.494 26.0938C172.494 26.0938 172.494 26.0938 172.494 26.0938C172.494 26.0938 172.493 26.0938 172.493 26.0938C172.493 26.0938 172.493 26.0938 172.493 26.0938C172.492 26.0938 172.492 26.0938 172.492 26.0938C172.492 26.0938 172.492 26.0938 172.491 26.0938C172.491 26.0938 172.491 26.0938 172.491 26.0938C172.49 26.0938 172.49 26.0938 172.49 26.0938C172.49 26.0938 172.49 26.0938 172.489 26.0938C172.489 26.0938 172.489 26.0938 172.489 26.0938C172.489 26.0938 172.488 26.0938 172.488 26.0938C172.488 26.0938 172.488 26.0938 172.487 26.0938C172.487 26.0938 172.487 26.0938 172.487 26.0938C172.487 26.0938 172.486 26.0938 172.486 26.0938C172.486 26.0938 172.486 26.0938 172.485 26.0938C172.485 26.0938 172.485 26.0938 172.485 26.0938C172.485 26.0938 172.484 26.0938 172.484 26.0938C172.484 26.0938 172.484 26.0938 172.483 26.0938C172.483 26.0938 172.483 26.0938 172.483 26.0938C172.482 26.0938 172.482 26.0938 172.482 26.0938C172.482 26.0938 172.482 26.0938 172.481 26.0938C172.481 26.0938 172.481 26.0938 172.481 26.0938C172.48 26.0938 172.48 26.0938 172.48 26.0938C172.48 26.0938 172.479 26.0938 172.479 26.0938C172.479 26.0938 172.479 26.0938 172.478 26.0938C172.478 26.0938 172.478 26.0938 172.478 26.0938C172.477 26.0938 172.477 26.0938 172.477 26.0938C172.477 26.0938 172.476 26.0938 172.476 26.0938C172.476 26.0938 172.476 26.0938 172.475 26.0938C172.475 26.0938 172.475 26.0938 172.475 26.0938C172.474 26.0938 172.474 26.0938 172.474 26.0938C172.474 26.0938 172.473 26.0938 172.473 26.0938C172.473 26.0938 172.473 26.0938 172.472 26.0938C172.472 26.0938 172.472 26.0938 172.472 26.0938C172.471 26.0938 172.471 26.0938 172.471 26.0938C172.471 26.0938 172.47 26.0938 172.47 26.0938C172.47 26.0938 172.469 26.0938 172.469 26.0938C172.469 26.0938 172.469 26.0938 172.468 26.0938C172.468 26.0938 172.468 26.0938 172.468 26.0938C172.467 26.0938 172.467 26.0938 172.467 26.0938C172.466 26.0938 172.466 26.0938 172.466 26.0938C172.466 26.0938 172.465 26.0938 172.465 26.0938C172.465 26.0938 172.465 26.0938 172.464 26.0938C172.464 26.0938 172.464 26.0938 172.463 26.0938C172.463 26.0938 172.463 26.0938 172.463 26.0938C172.462 26.0938 172.462 26.0938 172.462 26.0938C172.461 26.0938 172.461 26.0938 172.461 26.0938C172.461 26.0938 172.46 26.0938 172.46 26.0938C172.46 26.0938 172.459 26.0938 172.459 26.0938C172.459 26.0938 172.459 26.0938 172.458 26.0938C172.458 26.0938 172.458 26.0938 172.457 26.0938C172.457 26.0938 172.457 26.0938 172.456 26.0938C172.456 26.0938 172.456 26.0938 172.456 26.0938C172.455 26.0938 172.455 26.0938 172.455 26.0938C172.454 26.0938 172.454 26.0938 172.454 26.0938C172.453 26.0938 172.453 26.0938 172.453 26.0938C172.453 26.0938 172.452 26.0938 172.452 26.0938C172.452 26.0938 172.451 26.0938 172.451 26.0938C172.451 26.0938 172.45 26.0938 172.45 26.0938C172.45 26.0938 172.449 26.0938 172.449 26.0938C172.449 26.0938 172.449 26.0938 172.448 26.0938C172.448 26.0938 172.448 26.0938 172.447 26.0938C172.447 26.0938 172.447 26.0938 172.446 26.0938C172.446 26.0938 172.446 26.0938 172.445 26.0938C172.445 26.0938 172.445 26.0938 172.444 26.0938C172.444 26.0938 172.444 26.0938 172.443 26.0938C172.443 26.0938 172.443 26.0938 172.442 26.0938C172.442 26.0938 172.442 26.0938 172.442 26.0938C172.441 26.0938 172.441 26.0938 172.441 26.0938C172.44 26.0938 172.44 26.0938 172.44 26.0938C172.439 26.0938 172.439 26.0938 172.439 26.0938C172.438 26.0938 172.438 26.0938 172.438 26.0938C172.437 26.0938 172.437 26.0938 172.437 26.0938C172.436 26.0938 172.436 26.0938 172.436 26.0938C172.435 26.0938 172.435 26.0938 172.435 26.0938C172.434 26.0938 172.434 26.0938 172.433 26.0938C172.433 26.0938 172.433 26.0938 172.432 26.0938C172.432 26.0938 172.432 26.0938 172.431 26.0938C172.431 26.0938 172.431 26.0938 172.43 26.0938C172.43 26.0938 172.43 26.0938 172.429 26.0938C172.429 26.0938 172.429 26.0938 172.428 26.0938C172.428 26.0938 172.428 26.0938 172.427 26.0938C172.427 26.0938 172.427 26.0938 172.426 26.0938C172.426 26.0938 172.425 26.0938 172.425 26.0938C172.425 26.0938 172.424 26.0938 172.424 26.0938C172.424 26.0938 172.423 26.0938 172.423 26.0938C172.423 26.0938 172.422 26.0938 172.422 26.0938C172.421 26.0938 172.421 26.0938 172.421 26.0938C172.42 26.0938 172.42 26.0938 172.42 26.0938C172.419 26.0938 172.419 26.0938 172.419 26.0938C172.418 26.0938 172.418 26.0938 172.417 26.0938C172.417 26.0938 172.417 26.0938 172.416 26.0938C172.416 26.0938 172.416 26.0938 172.415 26.0938C172.415 26.0938 172.414 26.0938 172.414 26.0938C172.414 26.0938 172.413 26.0938 172.413 26.0938C172.413 26.0938 172.412 26.0938 172.412 26.0938C172.411 26.0938 172.411 26.0938 172.411 26.0938C172.41 26.0938 172.41 26.0938 172.41 26.0938C172.409 26.0938 172.409 26.0938 172.408 26.0938C172.408 26.0938 172.408 26.0938 172.407 26.0938C172.407 26.0938 172.406 26.0938 172.406 26.0938C172.406 26.0938 172.405 26.0938 172.405 26.0938C172.404 26.0938 172.404 26.0938 172.404 26.0938C172.403 26.0938 172.403 26.0938 172.402 26.0938C172.402 26.0938 172.402 26.0938 172.401 26.0938C172.401 26.0938 172.4 26.0938 172.4 26.0938C172.4 26.0938 172.399 26.0938 172.399 26.0938C172.398 26.0938 172.398 26.0938 172.398 26.0938C172.397 26.0938 172.397 26.0938 172.396 26.0938C172.396 26.0938 172.396 26.0938 172.395 26.0938C172.395 26.0938 172.394 26.0938 172.394 26.0938C172.394 26.0938 172.393 26.0938 172.393 26.0938C172.392 26.0938 172.392 26.0938 172.392 26.0938C172.391 26.0938 172.391 26.0938 172.39 26.0938C172.39 26.0938 172.389 26.0938 172.389 26.0938C172.389 26.0938 172.388 26.0938 172.388 26.0938C172.387 26.0938 172.387 26.0938 172.387 26.0938C172.386 26.0938 172.386 26.0938 172.385 26.0938C172.385 26.0938 172.384 26.0938 172.384 26.0938C172.384 26.0938 172.383 26.0938 172.383 26.0938C172.382 26.0938 172.382 26.0938 172.381 26.0938C172.381 26.0938 172.381 26.0938 172.38 26.0938C172.38 26.0938 172.379 26.0938 172.379 26.0938C172.378 26.0938 172.378 26.0938 172.378 26.0938C172.377 26.0938 172.377 26.0938 172.376 26.0938C172.376 26.0938 172.375 26.0938 172.375 26.0938C172.375 26.0938 172.374 26.0938 172.374 26.0938C172.373 26.0938 172.373 26.0938 172.372 26.0938C172.372 26.0938 172.371 26.0938 172.371 26.0938C172.371 26.0938 172.37 26.0938 172.37 26.0938C172.369 26.0938 172.369 26.0938 172.368 26.0938C172.368 26.0938 172.367 26.0938 172.367 26.0938C172.367 26.0938 172.366 26.0938 172.366 26.0938C172.365 26.0938 172.365 26.0938 172.364 26.0938C172.364 26.0938 172.363 26.0938 172.363 26.0938C172.362 26.0938 172.362 26.0938 172.362 26.0938C172.361 26.0938 172.361 26.0938 172.36 26.0938C172.36 26.0938 172.359 26.0938 172.359 26.0938C172.358 26.0938 172.358 26.0938 172.357 26.0938C172.357 26.0938 172.356 26.0938 172.356 26.0938C172.356 26.0938 172.355 26.0938 172.355 26.0938C172.354 26.0938 172.354 26.0938 172.353 26.0938C172.353 26.0938 172.352 26.0938 172.352 26.0938C172.351 26.0938 172.351 26.0938 172.35 26.0938C172.35 26.0938 172.349 26.0938 172.349 26.0938C172.348 26.0938 172.348 26.0938 172.348 26.0938C172.347 26.0938 172.347 26.0938 172.346 26.0938C172.346 26.0938 172.345 26.0938 172.345 26.0938C172.344 26.0938 172.344 26.0938 172.343 26.0938C172.343 26.0938 172.342 26.0938 172.342 26.0938C172.341 26.0938 172.341 26.0938 172.34 26.0938C172.34 26.0938 172.339 26.0938 172.339 26.0938C172.338 26.0938 172.338 26.0938 172.337 26.0938C172.337 26.0938 172.336 26.0938 172.336 26.0938C172.335 26.0938 172.335 26.0938 172.334 26.0938C172.334 26.0938 172.333 26.0938 172.333 26.0938C172.332 26.0938 172.332 26.0938 172.331 26.0938C172.331 26.0938 172.33 26.0938 172.33 26.0938C172.329 26.0938 172.329 26.0938 172.328 26.0938C172.328 26.0938 172.327 26.0938 172.327 26.0938C172.326 26.0938 172.326 26.0938 172.325 26.0938C172.325 26.0938 172.324 26.0938 172.324 26.0938C172.323 26.0938 172.323 26.0938 172.322 26.0938C172.322 26.0938 172.321 26.0938 172.321 26.0938C172.32 26.0938 172.32 26.0938 172.319 26.0938C172.319 26.0938 172.318 26.0938 172.318 26.0938C172.317 26.0938 172.317 26.0938 172.316 26.0938C172.316 26.0938 172.315 26.0938 172.315 26.0938C172.314 26.0938 172.314 26.0938 172.313 26.0938C172.313 26.0938 172.312 26.0938 172.312 26.0938C172.311 26.0938 172.311 26.0938 172.31 26.0938C172.31 26.0938 172.309 26.0938 172.308 26.0938C172.308 26.0938 172.307 26.0938 172.307 26.0938C172.306 26.0938 172.306 26.0938 172.305 26.0938C172.305 26.0938 172.304 26.0938 172.304 26.0938C172.303 26.0938 172.303 26.0938 172.302 26.0938C172.302 26.0938 172.301 26.0938 172.301 26.0938C172.3 26.0938 172.299 26.0938 172.299 26.0938C172.298 26.0938 172.298 26.0938 172.297 26.0938C172.297 26.0938 172.296 26.0938 172.296 26.0938C172.295 26.0938 172.295 26.0938 172.294 26.0938C172.293 26.0938 172.293 26.0938 172.292 26.0938C172.292 26.0938 172.291 26.0938 172.291 26.0938C172.29 26.0938 172.29 26.0938 172.289 26.0938C172.289 26.0938 172.288 26.0938 172.287 26.0938C172.287 26.0938 172.286 26.0938 172.286 26.0938C172.285 26.0938 172.285 26.0938 172.284 26.0938C172.284 26.0938 172.283 26.0938 172.282 26.0938C172.282 26.0938 172.281 26.0938 172.281 26.0938C172.28 26.0938 172.28 26.0938 172.279 26.0938C172.279 26.0938 172.278 26.0938 172.277 26.0938C172.277 26.0938 172.276 26.0938 172.276 26.0938C172.275 26.0938 172.275 26.0938 172.274 26.0938C172.273 26.0938 172.273 26.0938 172.272 26.0938C172.272 26.0938 172.271 26.0938 172.271 26.0938C172.27 26.0938 172.27 26.0938 172.269 26.0938C172.268 26.0938 172.268 26.0938 172.267 26.0938C172.267 26.0938 172.266 26.0938 172.266 26.0938C172.265 26.0938 172.264 26.0938 172.264 26.0938C172.263 26.0938 172.263 26.0938 172.262 26.0938C172.261 26.0938 172.261 26.0938 172.26 26.0938C172.26 26.0938 172.259 26.0938 172.259 26.0938C172.258 26.0938 172.257 26.0938 172.257 26.0938C172.256 26.0938 172.256 26.0938 172.255 26.0938C172.254 26.0938 172.254 26.0938 172.253 26.0938C172.253 26.0938 172.252 26.0938 172.252 26.0938C172.251 26.0938 172.25 26.0938 172.25 26.0938C172.249 26.0938 172.249 26.0938 172.248 26.0938C172.247 26.0938 172.247 26.0938 172.246 26.0938C172.246 26.0938 172.245 26.0938 172.244 26.0938C172.244 26.0938 172.243 26.0938 172.243 26.0938C172.242 26.0938 172.241 26.0938 172.241 26.0938C172.24 26.0938 172.24 26.0938 172.239 26.0938C172.238 26.0938 172.238 26.0938 172.237 26.0938C172.237 26.0938 172.236 26.0938 172.235 26.0938C172.235 26.0938 172.234 26.0938 172.233 26.0938C172.233 26.0938 172.232 26.0938 172.232 26.0938C172.231 26.0938 172.23 26.0938 172.23 26.0938C172.229 26.0938 172.229 26.0938 172.228 26.0938C172.227 26.0938 172.227 26.0938 172.226 26.0938C172.226 26.0938 172.225 26.0938 172.224 26.0938C172.224 26.0938 172.223 26.0938 172.222 26.0938C172.222 26.0938 172.221 26.0938 172.221 26.0938C172.22 26.0938 172.219 26.0938 172.219 26.0938C172.218 26.0938 172.217 26.0938 172.217 26.0938C172.216 26.0938 172.216 26.0938 172.215 26.0938C172.214 26.0938 172.214 26.0938 172.213 26.0938C172.212 26.0938 172.212 26.0938 172.211 26.0938C172.21 26.0938 172.21 26.0938 172.209 26.0938C172.209 26.0938 172.208 26.0938 172.207 26.0938C172.207 26.0938 172.206 26.0938 172.205 26.0938C172.205 26.0938 172.204 26.0938 172.203 26.0938C172.203 26.0938 172.202 26.0938 172.202 26.0938C172.201 26.0938 172.2 26.0938 172.2 26.0938C172.199 26.0938 172.198 26.0938 172.198 26.0938C172.197 26.0938 172.196 26.0938 172.196 26.0938C172.195 26.0938 172.194 26.0938 172.194 26.0938C172.193 26.0938 172.192 26.0938 172.192 26.0938C172.191 26.0938 172.191 26.0938 172.19 26.0938C172.189 26.0938 172.189 26.0938 172.188 26.0938C172.187 26.0938 172.187 26.0938 172.186 26.0938C172.185 26.0938 172.185 26.0938 172.184 26.0938C172.183 26.0938 172.183 26.0938 172.182 26.0938C172.181 26.0938 172.181 26.0938 172.18 26.0938C172.179 26.0938 172.179 26.0938 172.178 26.0938C172.177 26.0938 172.177 26.0938 172.176 26.0938C172.175 26.0938 172.175 26.0938 172.174 26.0938C172.173 26.0938 172.173 26.0938 172.172 26.0938C172.171 26.0938 172.171 26.0938 172.17 26.0938C172.169 26.0938 172.169 26.0938 172.168 26.0938C172.167 26.0938 172.167 26.0938 172.166 26.0938C172.165 26.0938 172.165 26.0938 172.164 26.0938C172.163 26.0938 172.163 26.0938 172.162 26.0938C172.161 26.0938 172.16 26.0938 172.16 26.0938C172.159 26.0938 172.158 26.0938 172.158 26.0938C172.157 26.0938 172.156 26.0938 172.156 26.0938C172.155 26.0938 172.154 26.0938 172.154 26.0938C172.153 26.0938 172.152 26.0938 172.152 26.0938C172.151 26.0938 172.15 26.0938 172.149 26.0938C172.149 26.0938 172.148 26.0938 172.147 26.0938C172.147 26.0938 172.146 26.0938 172.145 26.0938C172.145 26.0938 172.144 26.0938 172.143 26.0938C172.143 26.0938 172.142 26.0938 172.141 26.0938C172.14 26.0938 172.14 26.0938 172.139 26.0938C172.138 26.0938 172.138 26.0938 172.137 26.0938C172.136 26.0938 172.136 26.0938 172.135 26.0938C172.134 26.0938 172.133 26.0938 172.133 26.0938C172.132 26.0938 172.131 26.0938 172.131 26.0938C172.13 26.0938 172.129 26.0938 172.128 26.0938C172.128 26.0938 172.127 26.0938 172.126 26.0938C172.126 26.0938 172.125 26.0938 172.124 26.0938C172.123 26.0938 172.123 26.0938 172.122 26.0938C172.121 26.0938 172.121 26.0938 172.12 26.0938C172.119 26.0938 172.118 26.0938 172.118 26.0938C172.117 26.0938 172.116 26.0938 172.116 26.0938C172.115 26.0938 172.114 26.0938 172.113 26.0938C172.113 26.0938 172.112 26.0938 172.111 26.0938C172.11 26.0938 172.11 26.0938 172.109 26.0938C172.108 26.0938 172.108 26.0938 172.107 26.0938C172.106 26.0938 172.105 26.0938 172.105 26.0938C172.104 26.0938 172.103 26.0938 172.102 26.0938C172.102 26.0938 172.101 26.0938 172.1 26.0938C172.099 26.0938 172.099 26.0938 172.098 26.0938C172.097 26.0938 172.097 26.0938 172.096 26.0938C172.095 26.0938 172.094 26.0938 172.094 26.0938C172.093 26.0938 172.092 26.0938 172.091 26.0938C172.091 26.0938 172.09 26.0938 172.089 26.0938C172.088 26.0938 172.088 26.0938 172.087 26.0938C172.086 26.0938 172.085 26.0938 172.085 26.0938C172.084 26.0938 172.083 26.0938 172.082 26.0938C172.082 26.0938 172.081 26.0938 172.08 26.0938C172.079 26.0938 172.079 26.0938 172.078 26.0938C172.077 26.0938 172.076 26.0938 172.076 26.0938C172.075 26.0938 172.074 26.0938 172.073 26.0938C172.073 26.0938 172.072 26.0938 172.071 26.0938C172.07 26.0938 172.069 26.0938 172.069 26.0938C172.068 26.0938 172.067 26.0938 172.066 26.0938C172.066 26.0938 172.065 26.0938 172.064 26.0938C172.063 26.0938 172.063 26.0938 172.062 26.0938C172.061 26.0938 172.06 26.0938 172.06 26.0938C172.059 26.0938 172.058 26.0938 172.057 26.0938C172.056 26.0938 172.056 26.0938 172.055 26.0938C172.054 26.0938 172.053 26.0938 172.053 26.0938C172.052 26.0938 172.051 26.0938 172.05 26.0938C172.049 26.0938 172.049 26.0938 172.048 26.0938C172.047 26.0938 172.046 26.0938 172.046 26.0938C172.045 26.0938 172.044 26.0938 172.043 26.0938C172.042 26.0938 172.042 26.0938 172.041 26.0938C172.04 26.0938 172.039 26.0938 172.038 26.0938C172.038 26.0938 172.037 26.0938 172.036 26.0938C172.035 26.0938 172.035 26.0938 172.034 26.0938C172.033 26.0938 172.032 26.0938 172.031 26.0938C172.031 26.0938 172.03 26.0938 172.029 26.0938C172.028 26.0938 172.027 26.0938 172.027 26.0938C172.026 26.0938 172.025 26.0938 172.024 26.0938C172.023 26.0938 172.023 26.0938 172.022 26.0938C172.021 26.0938 172.02 26.0938 172.019 26.0938C172.019 26.0938 172.018 26.0938 172.017 26.0938C172.016 26.0938 172.015 26.0938 172.015 26.0938C172.014 26.0938 172.013 26.0938 172.012 26.0938C172.011 26.0938 172.011 26.0938 172.01 26.0938C172.009 26.0938 172.008 26.0938 172.007 26.0938C172.006 26.0938 172.006 26.0938 172.005 26.0938C172.004 26.0938 172.003 26.0938 172.002 26.0938C172.002 26.0938 172.001 26.0938 172 26.0938C171.999 26.0938 171.998 26.0938 171.997 26.0938C171.997 26.0938 171.996 26.0938 171.995 26.0938C171.994 26.0938 171.993 26.0938 171.993 26.0938C171.992 26.0938 171.991 26.0938 171.99 26.0938C171.989 26.0938 171.988 26.0938 171.988 26.0938C171.987 26.0938 171.986 26.0938 171.985 26.0938C171.984 26.0938 171.983 26.0938 171.983 26.0938C171.982 26.0938 171.981 26.0938 171.98 26.0938C171.979 26.0938 171.978 26.0938 171.978 26.0938C171.977 26.0938 171.976 26.0938 171.975 26.0938C171.974 26.0938 171.973 26.0938 171.973 26.0938C171.972 26.0938 171.971 26.0938 171.97 26.0938C171.969 26.0938 171.968 26.0938 171.968 26.0938C171.967 26.0938 171.966 26.0938 171.965 26.0938C171.964 26.0938 171.963 26.0938 171.962 26.0938C171.962 26.0938 171.961 26.0938 171.96 26.0938C171.959 26.0938 171.958 26.0938 171.957 26.0938C171.957 26.0938 171.956 26.0938 171.955 26.0938C171.954 26.0938 171.953 26.0938 171.952 26.0938C171.951 26.0938 171.951 26.0938 171.95 26.0938C171.949 26.0938 171.948 26.0938 171.947 26.0938C171.946 26.0938 171.945 26.0938 171.945 26.0938C171.944 26.0938 171.943 26.0938 171.942 26.0938C171.941 26.0938 171.94 26.0938 171.939 26.0938C171.938 26.0938 171.938 26.0938 171.937 26.0938C171.936 26.0938 171.935 26.0938 171.934 26.0938C171.933 26.0938 171.932 26.0938 171.932 26.0938C171.931 26.0938 171.93 26.0938 171.929 26.0938C171.928 26.0938 171.927 26.0938 171.926 26.0938C171.925 26.0938 171.925 26.0938 171.924 26.0938C171.923 26.0938 171.922 26.0938 171.921 26.0938C171.92 26.0938 171.919 26.0938 171.918 26.0938C171.918 26.0938 171.917 26.0938 171.916 26.0938C171.915 26.0938 171.914 26.0938 171.913 26.0938C171.912 26.0938 171.911 26.0938 171.91 26.0938C171.91 26.0938 171.909 26.0938 171.908 26.0938C171.907 26.0938 171.906 26.0938 171.905 26.0938C171.904 26.0938 171.903 26.0938 171.902 26.0938C171.902 26.0938 171.901 26.0938 171.9 26.0938C171.899 26.0938 171.898 26.0938 171.897 26.0938C171.896 26.0938 171.895 26.0938 171.894 26.0938C171.894 26.0938 171.893 26.0938 171.892 26.0938C171.891 26.0938 171.89 26.0938 171.889 26.0938C171.888 26.0938 171.887 26.0938 171.886 26.0938C171.885 26.0938 171.885 26.0938 171.884 26.0938C171.883 26.0938 171.882 26.0938 171.881 26.0938C171.88 26.0938 171.879 26.0938 171.878 26.0938C171.877 26.0938 171.876 26.0938 171.875 26.0938C171.875 26.0938 171.874 26.0938 171.873 26.0938C171.872 26.0938 171.871 26.0938 171.87 26.0938C171.869 26.0938 171.868 26.0938 171.867 26.0938C171.866 26.0938 171.865 26.0938 171.865 26.0938C171.864 26.0938 171.863 26.0938 171.862 26.0938C171.861 26.0938 171.86 26.0938 171.859 26.0938C171.858 26.0938 171.857 26.0938 171.856 26.0938C171.855 26.0938 171.854 26.0938 171.853 26.0938C171.853 26.0938 171.852 26.0938 171.851 26.0938C171.85 26.0938 171.849 26.0938 171.848 26.0938C171.847 26.0938 171.846 26.0938 171.845 26.0938C171.844 26.0938 171.843 26.0938 171.842 26.0938C171.841 26.0938 171.84 26.0938 171.839 26.0938C171.839 26.0938 171.838 26.0938 171.837 26.0938C171.836 26.0938 171.835 26.0938 171.834 26.0938C171.833 26.0938 171.832 26.0938 171.831 26.0938C171.83 26.0938 171.829 26.0938 171.828 26.0938C171.827 26.0938 171.826 26.0938 171.825 26.0938C171.824 26.0938 171.823 26.0938 171.823 26.0938C171.822 26.0938 171.821 26.0938 171.82 26.0938C171.819 26.0938 171.818 26.0938 171.817 26.0938C171.816 26.0938 171.815 26.0938 171.814 26.0938C171.813 26.0938 171.812 26.0938 171.811 26.0938C171.81 26.0938 171.809 26.0938 171.808 26.0938C171.807 26.0938 171.806 26.0938 171.805 26.0938C171.804 26.0938 171.803 26.0938 171.803 26.0938C171.802 26.0938 171.801 26.0938 171.8 26.0938C171.799 26.0938 171.798 26.0938 171.797 26.0938C171.796 26.0938 171.795 26.0938 171.794 26.0938C171.793 26.0938 171.792 26.0938 171.791 26.0938C171.79 26.0938 171.789 26.0938 171.788 26.0938C171.787 26.0938 171.786 26.0938 171.785 26.0938C171.784 26.0938 171.783 26.0938 171.782 26.0938C171.781 26.0938 171.78 26.0938 171.779 26.0938C171.778 26.0938 171.777 26.0938 171.776 26.0938C171.775 26.0938 171.774 26.0938 171.773 26.0938V28.0938C171.774 28.0938 171.775 28.0938 171.776 28.0938C171.777 28.0938 171.778 28.0938 171.779 28.0938C171.78 28.0938 171.781 28.0938 171.782 28.0938C171.783 28.0938 171.784 28.0938 171.785 28.0938C171.786 28.0938 171.787 28.0938 171.788 28.0938C171.789 28.0938 171.79 28.0938 171.791 28.0938C171.792 28.0938 171.793 28.0938 171.794 28.0938C171.795 28.0938 171.796 28.0938 171.797 28.0938C171.798 28.0938 171.799 28.0938 171.8 28.0938C171.801 28.0938 171.802 28.0938 171.803 28.0938C171.803 28.0938 171.804 28.0938 171.805 28.0938C171.806 28.0938 171.807 28.0938 171.808 28.0938C171.809 28.0938 171.81 28.0938 171.811 28.0938C171.812 28.0938 171.813 28.0938 171.814 28.0938C171.815 28.0938 171.816 28.0938 171.817 28.0938C171.818 28.0938 171.819 28.0938 171.82 28.0938C171.821 28.0938 171.822 28.0938 171.823 28.0938C171.823 28.0938 171.824 28.0938 171.825 28.0938C171.826 28.0938 171.827 28.0938 171.828 28.0938C171.829 28.0938 171.83 28.0938 171.831 28.0938C171.832 28.0938 171.833 28.0938 171.834 28.0938C171.835 28.0938 171.836 28.0938 171.837 28.0938C171.838 28.0938 171.839 28.0938 171.839 28.0938C171.84 28.0938 171.841 28.0938 171.842 28.0938C171.843 28.0938 171.844 28.0938 171.845 28.0938C171.846 28.0938 171.847 28.0938 171.848 28.0938C171.849 28.0938 171.85 28.0938 171.851 28.0938C171.852 28.0938 171.853 28.0938 171.853 28.0938C171.854 28.0938 171.855 28.0938 171.856 28.0938C171.857 28.0938 171.858 28.0938 171.859 28.0938C171.86 28.0938 171.861 28.0938 171.862 28.0938C171.863 28.0938 171.864 28.0938 171.865 28.0938C171.865 28.0938 171.866 28.0938 171.867 28.0938C171.868 28.0938 171.869 28.0938 171.87 28.0938C171.871 28.0938 171.872 28.0938 171.873 28.0938C171.874 28.0938 171.875 28.0938 171.875 28.0938C171.876 28.0938 171.877 28.0938 171.878 28.0938C171.879 28.0938 171.88 28.0938 171.881 28.0938C171.882 28.0938 171.883 28.0938 171.884 28.0938C171.885 28.0938 171.885 28.0938 171.886 28.0938C171.887 28.0938 171.888 28.0938 171.889 28.0938C171.89 28.0938 171.891 28.0938 171.892 28.0938C171.893 28.0938 171.894 28.0938 171.894 28.0938C171.895 28.0938 171.896 28.0938 171.897 28.0938C171.898 28.0938 171.899 28.0938 171.9 28.0938C171.901 28.0938 171.902 28.0938 171.902 28.0938C171.903 28.0938 171.904 28.0938 171.905 28.0938C171.906 28.0938 171.907 28.0938 171.908 28.0938C171.909 28.0938 171.91 28.0938 171.91 28.0938C171.911 28.0938 171.912 28.0938 171.913 28.0938C171.914 28.0938 171.915 28.0938 171.916 28.0938C171.917 28.0938 171.918 28.0938 171.918 28.0938C171.919 28.0938 171.92 28.0938 171.921 28.0938C171.922 28.0938 171.923 28.0938 171.924 28.0938C171.925 28.0938 171.925 28.0938 171.926 28.0938C171.927 28.0938 171.928 28.0938 171.929 28.0938C171.93 28.0938 171.931 28.0938 171.932 28.0938C171.932 28.0938 171.933 28.0938 171.934 28.0938C171.935 28.0938 171.936 28.0938 171.937 28.0938C171.938 28.0938 171.938 28.0938 171.939 28.0938C171.94 28.0938 171.941 28.0938 171.942 28.0938C171.943 28.0938 171.944 28.0938 171.945 28.0938C171.945 28.0938 171.946 28.0938 171.947 28.0938C171.948 28.0938 171.949 28.0938 171.95 28.0938C171.951 28.0938 171.951 28.0938 171.952 28.0938C171.953 28.0938 171.954 28.0938 171.955 28.0938C171.956 28.0938 171.957 28.0938 171.957 28.0938C171.958 28.0938 171.959 28.0938 171.96 28.0938C171.961 28.0938 171.962 28.0938 171.962 28.0938C171.963 28.0938 171.964 28.0938 171.965 28.0938C171.966 28.0938 171.967 28.0938 171.968 28.0938C171.968 28.0938 171.969 28.0938 171.97 28.0938C171.971 28.0938 171.972 28.0938 171.973 28.0938C171.973 28.0938 171.974 28.0938 171.975 28.0938C171.976 28.0938 171.977 28.0938 171.978 28.0938C171.978 28.0938 171.979 28.0938 171.98 28.0938C171.981 28.0938 171.982 28.0938 171.983 28.0938C171.983 28.0938 171.984 28.0938 171.985 28.0938C171.986 28.0938 171.987 28.0938 171.988 28.0938C171.988 28.0938 171.989 28.0938 171.99 28.0938C171.991 28.0938 171.992 28.0938 171.993 28.0938C171.993 28.0938 171.994 28.0938 171.995 28.0938C171.996 28.0938 171.997 28.0938 171.997 28.0938C171.998 28.0938 171.999 28.0938 172 28.0938C172.001 28.0938 172.002 28.0938 172.002 28.0938C172.003 28.0938 172.004 28.0938 172.005 28.0938C172.006 28.0938 172.006 28.0938 172.007 28.0938C172.008 28.0938 172.009 28.0938 172.01 28.0938C172.011 28.0938 172.011 28.0938 172.012 28.0938C172.013 28.0938 172.014 28.0938 172.015 28.0938C172.015 28.0938 172.016 28.0938 172.017 28.0938C172.018 28.0938 172.019 28.0938 172.019 28.0938C172.02 28.0938 172.021 28.0938 172.022 28.0938C172.023 28.0938 172.023 28.0938 172.024 28.0938C172.025 28.0938 172.026 28.0938 172.027 28.0938C172.027 28.0938 172.028 28.0938 172.029 28.0938C172.03 28.0938 172.031 28.0938 172.031 28.0938C172.032 28.0938 172.033 28.0938 172.034 28.0938C172.035 28.0938 172.035 28.0938 172.036 28.0938C172.037 28.0938 172.038 28.0938 172.038 28.0938C172.039 28.0938 172.04 28.0938 172.041 28.0938C172.042 28.0938 172.042 28.0938 172.043 28.0938C172.044 28.0938 172.045 28.0938 172.046 28.0938C172.046 28.0938 172.047 28.0938 172.048 28.0938C172.049 28.0938 172.049 28.0938 172.05 28.0938C172.051 28.0938 172.052 28.0938 172.053 28.0938C172.053 28.0938 172.054 28.0938 172.055 28.0938C172.056 28.0938 172.056 28.0938 172.057 28.0938C172.058 28.0938 172.059 28.0938 172.06 28.0938C172.06 28.0938 172.061 28.0938 172.062 28.0938C172.063 28.0938 172.063 28.0938 172.064 28.0938C172.065 28.0938 172.066 28.0938 172.066 28.0938C172.067 28.0938 172.068 28.0938 172.069 28.0938C172.069 28.0938 172.07 28.0938 172.071 28.0938C172.072 28.0938 172.073 28.0938 172.073 28.0938C172.074 28.0938 172.075 28.0938 172.076 28.0938C172.076 28.0938 172.077 28.0938 172.078 28.0938C172.079 28.0938 172.079 28.0938 172.08 28.0938C172.081 28.0938 172.082 28.0938 172.082 28.0938C172.083 28.0938 172.084 28.0938 172.085 28.0938C172.085 28.0938 172.086 28.0938 172.087 28.0938C172.088 28.0938 172.088 28.0938 172.089 28.0938C172.09 28.0938 172.091 28.0938 172.091 28.0938C172.092 28.0938 172.093 28.0938 172.094 28.0938C172.094 28.0938 172.095 28.0938 172.096 28.0938C172.097 28.0938 172.097 28.0938 172.098 28.0938C172.099 28.0938 172.099 28.0938 172.1 28.0938C172.101 28.0938 172.102 28.0938 172.102 28.0938C172.103 28.0938 172.104 28.0938 172.105 28.0938C172.105 28.0938 172.106 28.0938 172.107 28.0938C172.108 28.0938 172.108 28.0938 172.109 28.0938C172.11 28.0938 172.11 28.0938 172.111 28.0938C172.112 28.0938 172.113 28.0938 172.113 28.0938C172.114 28.0938 172.115 28.0938 172.116 28.0938C172.116 28.0938 172.117 28.0938 172.118 28.0938C172.118 28.0938 172.119 28.0938 172.12 28.0938C172.121 28.0938 172.121 28.0938 172.122 28.0938C172.123 28.0938 172.123 28.0938 172.124 28.0938C172.125 28.0938 172.126 28.0938 172.126 28.0938C172.127 28.0938 172.128 28.0938 172.128 28.0938C172.129 28.0938 172.13 28.0938 172.131 28.0938C172.131 28.0938 172.132 28.0938 172.133 28.0938C172.133 28.0938 172.134 28.0938 172.135 28.0938C172.136 28.0938 172.136 28.0938 172.137 28.0938C172.138 28.0938 172.138 28.0938 172.139 28.0938C172.14 28.0938 172.14 28.0938 172.141 28.0938C172.142 28.0938 172.143 28.0938 172.143 28.0938C172.144 28.0938 172.145 28.0938 172.145 28.0938C172.146 28.0938 172.147 28.0938 172.147 28.0938C172.148 28.0938 172.149 28.0938 172.149 28.0938C172.15 28.0938 172.151 28.0938 172.152 28.0938C172.152 28.0938 172.153 28.0938 172.154 28.0938C172.154 28.0938 172.155 28.0938 172.156 28.0938C172.156 28.0938 172.157 28.0938 172.158 28.0938C172.158 28.0938 172.159 28.0938 172.16 28.0938C172.16 28.0938 172.161 28.0938 172.162 28.0938C172.163 28.0938 172.163 28.0938 172.164 28.0938C172.165 28.0938 172.165 28.0938 172.166 28.0938C172.167 28.0938 172.167 28.0938 172.168 28.0938C172.169 28.0938 172.169 28.0938 172.17 28.0938C172.171 28.0938 172.171 28.0938 172.172 28.0938C172.173 28.0938 172.173 28.0938 172.174 28.0938C172.175 28.0938 172.175 28.0938 172.176 28.0938C172.177 28.0938 172.177 28.0938 172.178 28.0938C172.179 28.0938 172.179 28.0938 172.18 28.0938C172.181 28.0938 172.181 28.0938 172.182 28.0938C172.183 28.0938 172.183 28.0938 172.184 28.0938C172.185 28.0938 172.185 28.0938 172.186 28.0938C172.187 28.0938 172.187 28.0938 172.188 28.0938C172.189 28.0938 172.189 28.0938 172.19 28.0938C172.191 28.0938 172.191 28.0938 172.192 28.0938C172.192 28.0938 172.193 28.0938 172.194 28.0938C172.194 28.0938 172.195 28.0938 172.196 28.0938C172.196 28.0938 172.197 28.0938 172.198 28.0938C172.198 28.0938 172.199 28.0938 172.2 28.0938C172.2 28.0938 172.201 28.0938 172.202 28.0938C172.202 28.0938 172.203 28.0938 172.203 28.0938C172.204 28.0938 172.205 28.0938 172.205 28.0938C172.206 28.0938 172.207 28.0938 172.207 28.0938C172.208 28.0938 172.209 28.0938 172.209 28.0938C172.21 28.0938 172.21 28.0938 172.211 28.0938C172.212 28.0938 172.212 28.0938 172.213 28.0938C172.214 28.0938 172.214 28.0938 172.215 28.0938C172.216 28.0938 172.216 28.0938 172.217 28.0938C172.217 28.0938 172.218 28.0938 172.219 28.0938C172.219 28.0938 172.22 28.0938 172.221 28.0938C172.221 28.0938 172.222 28.0938 172.222 28.0938C172.223 28.0938 172.224 28.0938 172.224 28.0938C172.225 28.0938 172.226 28.0938 172.226 28.0938C172.227 28.0938 172.227 28.0938 172.228 28.0938C172.229 28.0938 172.229 28.0938 172.23 28.0938C172.23 28.0938 172.231 28.0938 172.232 28.0938C172.232 28.0938 172.233 28.0938 172.233 28.0938C172.234 28.0938 172.235 28.0938 172.235 28.0938C172.236 28.0938 172.237 28.0938 172.237 28.0938C172.238 28.0938 172.238 28.0938 172.239 28.0938C172.24 28.0938 172.24 28.0938 172.241 28.0938C172.241 28.0938 172.242 28.0938 172.243 28.0938C172.243 28.0938 172.244 28.0938 172.244 28.0938C172.245 28.0938 172.246 28.0938 172.246 28.0938C172.247 28.0938 172.247 28.0938 172.248 28.0938C172.249 28.0938 172.249 28.0938 172.25 28.0938C172.25 28.0938 172.251 28.0938 172.252 28.0938C172.252 28.0938 172.253 28.0938 172.253 28.0938C172.254 28.0938 172.254 28.0938 172.255 28.0938C172.256 28.0938 172.256 28.0938 172.257 28.0938C172.257 28.0938 172.258 28.0938 172.259 28.0938C172.259 28.0938 172.26 28.0938 172.26 28.0938C172.261 28.0938 172.261 28.0938 172.262 28.0938C172.263 28.0938 172.263 28.0938 172.264 28.0938C172.264 28.0938 172.265 28.0938 172.266 28.0938C172.266 28.0938 172.267 28.0938 172.267 28.0938C172.268 28.0938 172.268 28.0938 172.269 28.0938C172.27 28.0938 172.27 28.0938 172.271 28.0938C172.271 28.0938 172.272 28.0938 172.272 28.0938C172.273 28.0938 172.273 28.0938 172.274 28.0938C172.275 28.0938 172.275 28.0938 172.276 28.0938C172.276 28.0938 172.277 28.0938 172.277 28.0938C172.278 28.0938 172.279 28.0938 172.279 28.0938C172.28 28.0938 172.28 28.0938 172.281 28.0938C172.281 28.0938 172.282 28.0938 172.282 28.0938C172.283 28.0938 172.284 28.0938 172.284 28.0938C172.285 28.0938 172.285 28.0938 172.286 28.0938C172.286 28.0938 172.287 28.0938 172.287 28.0938C172.288 28.0938 172.289 28.0938 172.289 28.0938C172.29 28.0938 172.29 28.0938 172.291 28.0938C172.291 28.0938 172.292 28.0938 172.292 28.0938C172.293 28.0938 172.293 28.0938 172.294 28.0938C172.295 28.0938 172.295 28.0938 172.296 28.0938C172.296 28.0938 172.297 28.0938 172.297 28.0938C172.298 28.0938 172.298 28.0938 172.299 28.0938C172.299 28.0938 172.3 28.0938 172.301 28.0938C172.301 28.0938 172.302 28.0938 172.302 28.0938C172.303 28.0938 172.303 28.0938 172.304 28.0938C172.304 28.0938 172.305 28.0938 172.305 28.0938C172.306 28.0938 172.306 28.0938 172.307 28.0938C172.307 28.0938 172.308 28.0938 172.308 28.0938C172.309 28.0938 172.31 28.0938 172.31 28.0938C172.311 28.0938 172.311 28.0938 172.312 28.0938C172.312 28.0938 172.313 28.0938 172.313 28.0938C172.314 28.0938 172.314 28.0938 172.315 28.0938C172.315 28.0938 172.316 28.0938 172.316 28.0938C172.317 28.0938 172.317 28.0938 172.318 28.0938C172.318 28.0938 172.319 28.0938 172.319 28.0938C172.32 28.0938 172.32 28.0938 172.321 28.0938C172.321 28.0938 172.322 28.0938 172.322 28.0938C172.323 28.0938 172.323 28.0938 172.324 28.0938C172.324 28.0938 172.325 28.0938 172.325 28.0938C172.326 28.0938 172.326 28.0938 172.327 28.0938C172.327 28.0938 172.328 28.0938 172.328 28.0938C172.329 28.0938 172.329 28.0938 172.33 28.0938C172.33 28.0938 172.331 28.0938 172.331 28.0938C172.332 28.0938 172.332 28.0938 172.333 28.0938C172.333 28.0938 172.334 28.0938 172.334 28.0938C172.335 28.0938 172.335 28.0938 172.336 28.0938C172.336 28.0938 172.337 28.0938 172.337 28.0938C172.338 28.0938 172.338 28.0938 172.339 28.0938C172.339 28.0938 172.34 28.0938 172.34 28.0938C172.341 28.0938 172.341 28.0938 172.342 28.0938C172.342 28.0938 172.343 28.0938 172.343 28.0938C172.344 28.0938 172.344 28.0938 172.345 28.0938C172.345 28.0938 172.346 28.0938 172.346 28.0938C172.347 28.0938 172.347 28.0938 172.348 28.0938C172.348 28.0938 172.348 28.0938 172.349 28.0938C172.349 28.0938 172.35 28.0938 172.35 28.0938C172.351 28.0938 172.351 28.0938 172.352 28.0938C172.352 28.0938 172.353 28.0938 172.353 28.0938C172.354 28.0938 172.354 28.0938 172.355 28.0938C172.355 28.0938 172.356 28.0938 172.356 28.0938C172.356 28.0938 172.357 28.0938 172.357 28.0938C172.358 28.0938 172.358 28.0938 172.359 28.0938C172.359 28.0938 172.36 28.0938 172.36 28.0938C172.361 28.0938 172.361 28.0938 172.362 28.0938C172.362 28.0938 172.362 28.0938 172.363 28.0938C172.363 28.0938 172.364 28.0938 172.364 28.0938C172.365 28.0938 172.365 28.0938 172.366 28.0938C172.366 28.0938 172.367 28.0938 172.367 28.0938C172.367 28.0938 172.368 28.0938 172.368 28.0938C172.369 28.0938 172.369 28.0938 172.37 28.0938C172.37 28.0938 172.371 28.0938 172.371 28.0938C172.371 28.0938 172.372 28.0938 172.372 28.0938C172.373 28.0938 172.373 28.0938 172.374 28.0938C172.374 28.0938 172.375 28.0938 172.375 28.0938C172.375 28.0938 172.376 28.0938 172.376 28.0938C172.377 28.0938 172.377 28.0938 172.378 28.0938C172.378 28.0938 172.378 28.0938 172.379 28.0938C172.379 28.0938 172.38 28.0938 172.38 28.0938C172.381 28.0938 172.381 28.0938 172.381 28.0938C172.382 28.0938 172.382 28.0938 172.383 28.0938C172.383 28.0938 172.384 28.0938 172.384 28.0938C172.384 28.0938 172.385 28.0938 172.385 28.0938C172.386 28.0938 172.386 28.0938 172.387 28.0938C172.387 28.0938 172.387 28.0938 172.388 28.0938C172.388 28.0938 172.389 28.0938 172.389 28.0938C172.389 28.0938 172.39 28.0938 172.39 28.0938C172.391 28.0938 172.391 28.0938 172.392 28.0938C172.392 28.0938 172.392 28.0938 172.393 28.0938C172.393 28.0938 172.394 28.0938 172.394 28.0938C172.394 28.0938 172.395 28.0938 172.395 28.0938C172.396 28.0938 172.396 28.0938 172.396 28.0938C172.397 28.0938 172.397 28.0938 172.398 28.0938C172.398 28.0938 172.398 28.0938 172.399 28.0938C172.399 28.0938 172.4 28.0938 172.4 28.0938C172.4 28.0938 172.401 28.0938 172.401 28.0938C172.402 28.0938 172.402 28.0938 172.402 28.0938C172.403 28.0938 172.403 28.0938 172.404 28.0938C172.404 28.0938 172.404 28.0938 172.405 28.0938C172.405 28.0938 172.406 28.0938 172.406 28.0938C172.406 28.0938 172.407 28.0938 172.407 28.0938C172.408 28.0938 172.408 28.0938 172.408 28.0938C172.409 28.0938 172.409 28.0938 172.41 28.0938C172.41 28.0938 172.41 28.0938 172.411 28.0938C172.411 28.0938 172.411 28.0938 172.412 28.0938C172.412 28.0938 172.413 28.0938 172.413 28.0938C172.413 28.0938 172.414 28.0938 172.414 28.0938C172.414 28.0938 172.415 28.0938 172.415 28.0938C172.416 28.0938 172.416 28.0938 172.416 28.0938C172.417 28.0938 172.417 28.0938 172.417 28.0938C172.418 28.0938 172.418 28.0938 172.419 28.0938C172.419 28.0938 172.419 28.0938 172.42 28.0938C172.42 28.0938 172.42 28.0938 172.421 28.0938C172.421 28.0938 172.421 28.0938 172.422 28.0938C172.422 28.0938 172.423 28.0938 172.423 28.0938C172.423 28.0938 172.424 28.0938 172.424 28.0938C172.424 28.0938 172.425 28.0938 172.425 28.0938C172.425 28.0938 172.426 28.0938 172.426 28.0938C172.427 28.0938 172.427 28.0938 172.427 28.0938C172.428 28.0938 172.428 28.0938 172.428 28.0938C172.429 28.0938 172.429 28.0938 172.429 28.0938C172.43 28.0938 172.43 28.0938 172.43 28.0938C172.431 28.0938 172.431 28.0938 172.431 28.0938C172.432 28.0938 172.432 28.0938 172.432 28.0938C172.433 28.0938 172.433 28.0938 172.433 28.0938C172.434 28.0938 172.434 28.0938 172.435 28.0938C172.435 28.0938 172.435 28.0938 172.436 28.0938C172.436 28.0938 172.436 28.0938 172.437 28.0938C172.437 28.0938 172.437 28.0938 172.438 28.0938C172.438 28.0938 172.438 28.0938 172.439 28.0938C172.439 28.0938 172.439 28.0938 172.44 28.0938C172.44 28.0938 172.44 28.0938 172.441 28.0938C172.441 28.0938 172.441 28.0938 172.442 28.0938C172.442 28.0938 172.442 28.0938 172.442 28.0938C172.443 28.0938 172.443 28.0938 172.443 28.0938C172.444 28.0938 172.444 28.0938 172.444 28.0938C172.445 28.0938 172.445 28.0938 172.445 28.0938C172.446 28.0938 172.446 28.0938 172.446 28.0938C172.447 28.0938 172.447 28.0938 172.447 28.0938C172.448 28.0938 172.448 28.0938 172.448 28.0938C172.449 28.0938 172.449 28.0938 172.449 28.0938C172.449 28.0938 172.45 28.0938 172.45 28.0938C172.45 28.0938 172.451 28.0938 172.451 28.0938C172.451 28.0938 172.452 28.0938 172.452 28.0938C172.452 28.0938 172.453 28.0938 172.453 28.0938C172.453 28.0938 172.453 28.0938 172.454 28.0938C172.454 28.0938 172.454 28.0938 172.455 28.0938C172.455 28.0938 172.455 28.0938 172.456 28.0938C172.456 28.0938 172.456 28.0938 172.456 28.0938C172.457 28.0938 172.457 28.0938 172.457 28.0938C172.458 28.0938 172.458 28.0938 172.458 28.0938C172.459 28.0938 172.459 28.0938 172.459 28.0938C172.459 28.0938 172.46 28.0938 172.46 28.0938C172.46 28.0938 172.461 28.0938 172.461 28.0938C172.461 28.0938 172.461 28.0938 172.462 28.0938C172.462 28.0938 172.462 28.0938 172.463 28.0938C172.463 28.0938 172.463 28.0938 172.463 28.0938C172.464 28.0938 172.464 28.0938 172.464 28.0938C172.465 28.0938 172.465 28.0938 172.465 28.0938C172.465 28.0938 172.466 28.0938 172.466 28.0938C172.466 28.0938 172.466 28.0938 172.467 28.0938C172.467 28.0938 172.467 28.0938 172.468 28.0938C172.468 28.0938 172.468 28.0938 172.468 28.0938C172.469 28.0938 172.469 28.0938 172.469 28.0938C172.469 28.0938 172.47 28.0938 172.47 28.0938C172.47 28.0938 172.471 28.0938 172.471 28.0938C172.471 28.0938 172.471 28.0938 172.472 28.0938C172.472 28.0938 172.472 28.0938 172.472 28.0938C172.473 28.0938 172.473 28.0938 172.473 28.0938C172.473 28.0938 172.474 28.0938 172.474 28.0938C172.474 28.0938 172.474 28.0938 172.475 28.0938C172.475 28.0938 172.475 28.0938 172.475 28.0938C172.476 28.0938 172.476 28.0938 172.476 28.0938C172.476 28.0938 172.477 28.0938 172.477 28.0938C172.477 28.0938 172.477 28.0938 172.478 28.0938C172.478 28.0938 172.478 28.0938 172.478 28.0938C172.479 28.0938 172.479 28.0938 172.479 28.0938C172.479 28.0938 172.48 28.0938 172.48 28.0938C172.48 28.0938 172.48 28.0938 172.481 28.0938C172.481 28.0938 172.481 28.0938 172.481 28.0938C172.482 28.0938 172.482 28.0938 172.482 28.0938C172.482 28.0938 172.482 28.0938 172.483 28.0938C172.483 28.0938 172.483 28.0938 172.483 28.0938C172.484 28.0938 172.484 28.0938 172.484 28.0938C172.484 28.0938 172.485 28.0938 172.485 28.0938C172.485 28.0938 172.485 28.0938 172.485 28.0938C172.486 28.0938 172.486 28.0938 172.486 28.0938C172.486 28.0938 172.487 28.0938 172.487 28.0938C172.487 28.0938 172.487 28.0938 172.487 28.0938C172.488 28.0938 172.488 28.0938 172.488 28.0938C172.488 28.0938 172.489 28.0938 172.489 28.0938C172.489 28.0938 172.489 28.0938 172.489 28.0938C172.49 28.0938 172.49 28.0938 172.49 28.0938C172.49 28.0938 172.49 28.0938 172.491 28.0938C172.491 28.0938 172.491 28.0938 172.491 28.0938C172.492 28.0938 172.492 28.0938 172.492 28.0938C172.492 28.0938 172.492 28.0938 172.493 28.0938C172.493 28.0938 172.493 28.0938 172.493 28.0938C172.493 28.0938 172.494 28.0938 172.494 28.0938C172.494 28.0938 172.494 28.0938 172.494 28.0938C172.495 28.0938 172.495 28.0938 172.495 28.0938C172.495 28.0938 172.495 28.0938 172.496 28.0938C172.496 28.0938 172.496 28.0938 172.496 28.0938C172.496 28.0938 172.497 28.0938 172.497 28.0938C172.497 28.0938 172.497 28.0938 172.497 28.0938C172.497 28.0938 172.498 28.0938 172.498 28.0938C172.498 28.0938 172.498 28.0938 172.498 28.0938C172.499 28.0938 172.499 28.0938 172.499 28.0938C172.499 28.0938 172.499 28.0938 172.499 28.0938C172.5 28.0938 172.5 28.0938 172.5 28.0938C172.5 28.0938 172.5 28.0938 172.501 28.0938C172.501 28.0938 172.501 28.0938 172.501 28.0938C172.501 28.0938 172.501 28.0938 172.502 28.0938C172.502 28.0938 172.502 28.0938 172.502 28.0938C172.502 28.0938 172.503 28.0938 172.503 28.0938C172.503 28.0938 172.503 28.0938 172.503 28.0938C172.503 28.0938 172.504 28.0938 172.504 28.0938C172.504 28.0938 172.504 28.0938 172.504 28.0938C172.504 28.0938 172.505 28.0938 172.505 28.0938C172.505 28.0938 172.505 28.0938 172.505 28.0938C172.505 28.0938 172.505 28.0938 172.506 28.0938C172.506 28.0938 172.506 28.0938 172.506 28.0938C172.506 28.0938 172.506 28.0938 172.507 28.0938C172.507 28.0938 172.507 28.0938 172.507 28.0938C172.507 28.0938 172.507 28.0938 172.507 28.0938C172.508 28.0938 172.508 28.0938 172.508 28.0938C172.508 28.0938 172.508 28.0938 172.508 28.0938C172.509 28.0938 172.509 28.0938 172.509 28.0938C172.509 28.0938 172.509 28.0938 172.509 28.0938C172.509 28.0938 172.51 28.0938 172.51 28.0938C172.51 28.0938 172.51 28.0938 172.51 28.0938C172.51 28.0938 172.51 28.0938 172.511 28.0938C172.511 28.0938 172.511 28.0938 172.511 28.0938C172.511 28.0938 172.511 28.0938 172.511 28.0938C172.511 28.0938 172.512 28.0938 172.512 28.0938C172.512 28.0938 172.512 28.0938 172.512 28.0938C172.512 28.0938 172.512 28.0938 172.513 28.0938C172.513 28.0938 172.513 28.0938 172.513 28.0938C172.513 28.0938 172.513 28.0938 172.513 28.0938C172.513 28.0938 172.514 28.0938 172.514 28.0938C172.514 28.0938 172.514 28.0938 172.514 28.0938C172.514 28.0938 172.514 28.0938 172.514 28.0938C172.514 28.0938 172.515 28.0938 172.515 28.0938C172.515 28.0938 172.515 28.0938 172.515 28.0938C172.515 28.0938 172.515 28.0938 172.515 28.0938C172.516 28.0938 172.516 28.0938 172.516 28.0938C172.516 28.0938 172.516 28.0938 172.516 28.0938C172.516 28.0938 172.516 28.0938 172.516 28.0938C172.516 28.0938 172.517 28.0938 172.517 28.0938C172.517 28.0938 172.517 28.0938 172.517 28.0938C172.517 28.0938 172.517 28.0938 172.517 28.0938C172.517 28.0938 172.518 28.0938 172.518 28.0938C172.518 28.0938 172.518 28.0938 172.518 28.0938C172.518 28.0938 172.518 28.0938 172.518 28.0938C172.518 28.0938 172.518 28.0938 172.519 28.0938C172.519 28.0938 172.519 28.0938 172.519 28.0938C172.519 28.0938 172.519 28.0938 172.519 28.0938C172.519 28.0938 172.519 28.0938 172.519 28.0938C172.519 28.0938 172.52 28.0938 172.52 28.0938C172.52 28.0938 172.52 28.0938 172.52 28.0938C172.52 28.0938 172.52 28.0938 172.52 28.0938C172.52 28.0938 172.52 28.0938 172.52 28.0938C172.52 28.0938 172.52 28.0938 172.521 28.0938C172.521 28.0938 172.521 28.0938 172.521 28.0938C172.521 28.0938 172.521 28.0938 172.521 28.0938C172.521 28.0938 172.521 28.0938 172.521 28.0938C172.521 28.0938 172.521 28.0938 172.521 28.0938C172.522 28.0938 172.522 28.0938 172.522 28.0938C172.522 28.0938 172.522 28.0938 172.522 28.0938C172.522 28.0938 172.522 28.0938 172.522 28.0938C172.522 28.0938 172.522 28.0938 172.522 28.0938C172.522 28.0938 172.522 28.0938 172.522 28.0938C172.523 28.0938 172.523 28.0938 172.523 28.0938C172.523 28.0938 172.523 28.0938 172.523 28.0938C172.523 28.0938 172.523 28.0938 172.523 28.0938C172.523 28.0938 172.523 28.0938 172.523 28.0938C172.523 28.0938 172.523 28.0938 172.523 28.0938C172.523 28.0938 172.523 28.0938 172.523 28.0938C172.523 28.0938 172.524 28.0938 172.524 28.0938C172.524 28.0938 172.524 28.0938 172.524 28.0938C172.524 28.0938 172.524 28.0938 172.524 28.0938C172.524 28.0938 172.524 28.0938 172.524 28.0938C172.524 28.0938 172.524 28.0938 172.524 28.0938C172.524 28.0938 172.524 28.0938 172.524 28.0938C172.524 28.0938 172.524 28.0938 172.524 28.0938C172.524 28.0938 172.524 28.0938 172.524 28.0938C172.524 28.0938 172.525 28.0938 172.525 28.0938C172.525 28.0938 172.525 28.0938 172.525 28.0938C172.525 28.0938 172.525 28.0938 172.525 28.0938C172.525 28.0938 172.525 28.0938 172.525 28.0938C172.525 28.0938 172.525 28.0938 172.525 28.0938C172.525 28.0938 172.525 28.0938 172.525 28.0938C172.525 28.0938 172.525 28.0938 172.525 28.0938C172.525 28.0938 172.525 28.0938 172.525 28.0938C172.525 28.0938 172.525 28.0938 172.525 28.0938C172.525 28.0938 172.525 28.0938 172.525 28.0938C172.525 28.0938 172.525 28.0938 172.525 28.0938C172.525 28.0938 172.525 28.0938 172.525 28.0938C172.525 28.0938 172.525 28.0938 172.525 28.0938C172.525 28.0938 172.525 28.0938 172.525 28.0938H172.525C172.525 28.0938 172.525 28.0938 172.525 28.0938H172.525C172.525 28.0938 172.525 28.0938 172.525 27.0938ZM171.773 26.0938C171.562 26.0938 171.362 26.0856 171.173 26.0699L171.007 28.063C171.255 28.0837 171.511 28.0938 171.773 28.0938V26.0938ZM170.09 27.0664C170.09 27.7861 170.286 28.4876 170.809 29.023C171.322 29.5484 172.018 29.7775 172.74 29.84L172.912 27.8475C172.477 27.8098 172.305 27.6925 172.239 27.6254C172.184 27.5684 172.09 27.4313 172.09 27.0664H170.09ZM172.741 29.8401C173.086 29.8697 173.425 29.8848 173.756 29.8848V27.8848C173.485 27.8848 173.204 27.8725 172.912 27.8474L172.741 29.8401ZM173.756 29.8848C174.669 29.8848 175.746 29.6779 176.959 29.3081L176.377 27.395C175.257 27.7362 174.392 27.8848 173.756 27.8848V29.8848ZM176.957 29.3088C178.267 28.9128 179.444 28.2659 180.479 27.3724L179.173 25.8581C178.349 26.5687 177.42 27.0794 176.379 27.3944L176.957 29.3088ZM178.845 26.8107L179.693 31.0627L181.655 30.6717L180.807 26.4197L178.845 26.8107ZM180.019 30.1111C178.243 31.648 175.451 32.5059 171.459 32.5059V34.5059C175.688 34.5059 179.039 33.6046 181.328 31.6233L180.019 30.1111ZM171.459 32.5059C169.308 32.5059 167.508 31.8846 166.005 30.665L164.745 32.2178C166.633 33.7508 168.889 34.5059 171.459 34.5059V32.5059ZM166.008 30.6669C164.429 29.3772 163.613 27.5952 163.613 25.1934H161.613C161.613 28.1145 162.639 30.4978 164.742 32.2159L166.008 30.6669ZM163.613 25.1934C163.613 23.3711 164.082 21.7626 165.01 20.3388L163.334 19.2471C162.183 21.0135 161.613 23.0052 161.613 25.1934H163.613ZM165.006 20.3453C165.865 19.0484 167.026 18.0615 168.513 17.3797L167.679 15.5617C165.866 16.3929 164.411 17.6209 163.338 19.2407L165.006 20.3453ZM168.513 17.3797C170.024 16.6864 171.663 16.3359 173.441 16.3359V14.3359C171.391 14.3359 169.466 14.742 167.679 15.5617L168.513 17.3797ZM173.441 16.3359C175.795 16.3359 177.395 16.8532 178.41 17.7225L179.711 16.2032C178.193 14.9033 176.047 14.3359 173.441 14.3359V16.3359ZM178.413 17.7248C179.477 18.6291 179.968 19.6935 179.961 20.9767L181.961 20.9881C181.972 19.0812 181.196 17.4659 179.708 16.201L178.413 17.7248ZM179.961 20.9824C179.961 22.208 179.394 23.3612 178.046 24.459L179.309 26.0098C181.005 24.6284 181.961 22.9469 181.961 20.9824H179.961ZM178.046 24.459C176.752 25.5131 174.948 26.0938 172.525 26.0938V28.0938C175.262 28.0938 177.559 27.4348 179.309 26.0098L178.046 24.459ZM196 22.418V23.418H197V22.418H196ZM192.076 25.0703L191.076 25.0536L191.076 25.062V25.0703H192.076ZM192.076 33V34H193.076V33H192.076ZM183.846 33H182.846V34H183.846V33ZM183.846 16.0059V15.0059H182.846V16.0059H183.846ZM192.076 16.0059H193.076V15.0059H192.076V16.0059ZM192.076 17.8242H191.076V21.145L192.91 18.3764L192.076 17.8242ZM193.799 16.1426L193.281 15.2871L193.276 15.2901L193.799 16.1426ZM196 15.3906H197V14.2792L195.895 14.3962L196 15.3906ZM196 21.418C194.908 21.418 193.852 21.8175 192.848 22.5112L193.984 24.1568C194.748 23.6291 195.415 23.418 196 23.418V21.418ZM192.848 22.5112C191.934 23.142 191.094 23.9769 191.076 25.0536L193.076 25.087C193.076 25.07 193.129 24.7474 193.984 24.1568L192.848 22.5112ZM191.076 25.0703V33H193.076V25.0703H191.076ZM192.076 32H183.846V34H192.076V32ZM184.846 33V16.0059H182.846V33H184.846ZM183.846 17.0059H192.076V15.0059H183.846V17.0059ZM191.076 16.0059V17.8242H193.076V16.0059H191.076ZM192.91 18.3764C193.298 17.79 193.769 17.3343 194.322 16.995L193.276 15.2901C192.462 15.7894 191.784 16.4548 191.242 17.272L192.91 18.3764ZM194.317 16.9981C194.889 16.6518 195.482 16.451 196.105 16.3851L195.895 14.3962C194.968 14.4943 194.094 14.7948 193.281 15.2871L194.317 16.9981ZM195 15.3906V22.418H197V15.3906H195ZM211.271 31.7695L211.833 32.5969L212.271 32.2993V31.7695H211.271ZM201.045 31.8926L200.372 32.6323L200.375 32.635L201.045 31.8926ZM199.227 20.3398H200.227V19.3398H199.227V20.3398ZM197.668 20.3398H196.668V21.3398H197.668V20.3398ZM197.668 16.0059V15.0059H196.668V16.0059H197.668ZM199.227 16.0059V17.0059H200.227V16.0059H199.227ZM199.227 11.4121L199.125 10.4173L198.227 10.5089V11.4121H199.227ZM207.402 10.5781H208.402V9.47093L207.301 9.58329L207.402 10.5781ZM207.402 16.0059H206.402V17.0059H207.402V16.0059ZM211.271 16.0059H212.271V15.0059H211.271V16.0059ZM211.271 20.3398V21.3398H212.271V20.3398H211.271ZM207.402 20.3398V19.3398H206.402V20.3398H207.402ZM208.264 27.4355L207.551 28.1371L207.557 28.1427L207.562 28.1482L208.264 27.4355ZM211.271 28.2969H212.271V27.2969H211.271V28.2969ZM210.71 30.9422C209.13 32.0147 207.487 32.5332 205.762 32.5332V34.5332C207.919 34.5332 209.949 33.8759 211.833 32.5969L210.71 30.9422ZM205.762 32.5332C204.029 32.5332 202.711 32.0485 201.715 31.1501L200.375 32.635C201.804 33.9242 203.63 34.5332 205.762 34.5332V32.5332ZM201.718 31.1529C200.743 30.266 200.227 29.0689 200.227 27.4492H198.227C198.227 29.5483 198.922 31.3134 200.372 32.6323L201.718 31.1529ZM200.227 27.4492V20.3398H198.227V27.4492H200.227ZM199.227 19.3398H197.668V21.3398H199.227V19.3398ZM198.668 20.3398V16.0059H196.668V20.3398H198.668ZM197.668 17.0059H199.227V15.0059H197.668V17.0059ZM200.227 16.0059V11.4121H198.227V16.0059H200.227ZM199.328 12.4069L207.504 11.573L207.301 9.58329L199.125 10.4173L199.328 12.4069ZM206.402 10.5781V16.0059H208.402V10.5781H206.402ZM207.402 17.0059H211.271V15.0059H207.402V17.0059ZM210.271 16.0059V20.3398H212.271V16.0059H210.271ZM211.271 19.3398H207.402V21.3398H211.271V19.3398ZM206.402 20.3398V24.6328H208.402V20.3398H206.402ZM206.402 24.6328C206.402 26.0357 206.711 27.284 207.551 28.1371L208.976 26.734C208.668 26.4204 208.402 25.8003 208.402 24.6328H206.402ZM207.562 28.1482C208.43 29.0025 209.766 29.2969 211.271 29.2969V27.2969C209.933 27.2969 209.264 27.017 208.965 26.7229L207.562 28.1482ZM210.271 28.2969V31.7695H212.271V28.2969H210.271ZM215.674 31.4961L214.99 32.2256L214.995 32.2302L215.674 31.4961ZM213.924 28.9258L212.999 29.307L213.003 29.3167L213.924 28.9258ZM213.637 22.4727L212.672 22.21L212.671 22.2112L213.637 22.4727ZM216.125 18.084L216.832 18.7911L216.838 18.7855L216.843 18.7798L216.125 18.084ZM218.012 16.6074L218.513 17.4729L218.516 17.4712L218.012 16.6074ZM226.68 16.9355L227.341 16.1852L227.339 16.184L226.68 16.9355ZM227.678 18.0977L226.838 18.6402L227.533 19.7169L228.408 18.7805L227.678 18.0977ZM229.633 16.0059V15.0059H229.199L228.902 15.323L229.633 16.0059ZM234.117 16.0059H235.117V15.0059H234.117V16.0059ZM234.117 33V34H235.117V33H234.117ZM229.633 33L228.81 33.5684L229.108 34H229.633V33ZM227.678 30.1699L228.501 29.6015L227.67 28.3991L226.85 29.6089L227.678 30.1699ZM220.883 33.4922L220.88 32.4922L220.872 32.4922L220.883 33.4922ZM218.189 33L218.522 32.0568L218.517 32.055L218.189 33ZM226.748 21.1602H227.748V20.5858L227.252 20.2964L226.748 21.1602ZM224.123 21.3652L224.66 22.2089L224.664 22.2064L224.123 21.3652ZM222.77 22.582L221.994 21.9504L221.992 21.9526L222.77 22.582ZM222.168 27.6406L221.613 28.4727L221.617 28.4752L222.168 27.6406ZM224.246 27.5176L224.627 28.4423L224.631 28.4404L224.246 27.5176ZM226.748 26L227.396 26.7619L227.748 26.4624V26H226.748ZM216.358 30.7666C215.742 30.1889 215.234 29.452 214.844 28.5348L213.003 29.3167C213.489 30.4594 214.148 31.4361 214.99 32.2256L216.358 30.7666ZM214.848 28.5446C214.473 27.6339 214.281 26.6477 214.281 25.5762H212.281C212.281 26.8927 212.518 28.1396 212.999 29.3069L214.848 28.5446ZM214.281 25.5762C214.281 24.4443 214.394 23.5018 214.602 22.7341L212.671 22.2112C212.405 23.1935 212.281 24.32 212.281 25.5762H214.281ZM214.602 22.7353C215.033 21.1492 215.78 19.8434 216.832 18.7911L215.418 17.3769C214.1 18.6943 213.188 20.3143 212.672 22.21L214.602 22.7353ZM216.843 18.7798C217.345 18.2618 217.901 17.827 218.513 17.4728L217.511 15.742C216.737 16.19 216.035 16.7395 215.407 17.3882L216.843 18.7798ZM218.516 17.4712C219.792 16.7269 221.118 16.3633 222.51 16.3633V14.3633C220.748 14.3633 219.076 14.8291 217.508 15.7436L218.516 17.4712ZM222.51 16.3633C223.852 16.3633 225.008 16.7987 226.02 17.6871L227.339 16.184C225.963 14.976 224.339 14.3633 222.51 14.3633V16.3633ZM226.019 17.6859C226.331 17.9612 226.604 18.2782 226.838 18.6402L228.518 17.5551C228.186 17.0421 227.794 16.5844 227.341 16.1852L226.019 17.6859ZM228.408 18.7805L230.363 16.6887L228.902 15.323L226.947 17.4148L228.408 18.7805ZM229.633 17.0059H234.117V15.0059H229.633V17.0059ZM233.117 16.0059V33H235.117V16.0059H233.117ZM234.117 32H229.633V34H234.117V32ZM230.456 32.4316L228.501 29.6015L226.855 30.7383L228.81 33.5684L230.456 32.4316ZM226.85 29.6089C225.569 31.4995 223.638 32.4839 220.88 32.4922L220.886 34.4922C224.198 34.4822 226.797 33.2518 228.506 30.7309L226.85 29.6089ZM220.872 32.4922C220.172 32.4999 219.391 32.3632 218.522 32.0568L217.857 33.9432C218.902 34.3113 219.917 34.5027 220.894 34.4921L220.872 32.4922ZM218.517 32.055C217.698 31.7716 216.98 31.3417 216.353 30.762L214.995 32.2302C215.826 32.9995 216.785 33.5721 217.862 33.945L218.517 32.055ZM227.252 20.2964C226.743 19.9995 226.17 19.873 225.572 19.873V21.873C225.886 21.873 226.097 21.938 226.244 22.0239L227.252 20.2964ZM225.572 19.873C224.871 19.873 224.202 20.1258 223.582 20.5241L224.664 22.2064C225.065 21.9484 225.362 21.873 225.572 21.873V19.873ZM223.586 20.5216C222.989 20.9019 222.458 21.3809 221.994 21.9504L223.545 23.2137C223.883 22.7988 224.255 22.4666 224.66 22.2089L223.586 20.5216ZM221.992 21.9526C220.991 23.1887 220.43 24.5251 220.43 25.9453H222.43C222.43 25.0869 222.761 24.1811 223.547 23.2114L221.992 21.9526ZM220.43 25.9453C220.43 26.9507 220.749 27.8966 221.613 28.4727L222.723 26.8086C222.602 26.7284 222.43 26.5441 222.43 25.9453H220.43ZM221.617 28.4752C222.516 29.0683 223.639 28.8491 224.627 28.4423L223.865 26.5929C222.994 26.9517 222.732 26.8146 222.719 26.806L221.617 28.4752ZM224.631 28.4404C225.659 28.0112 226.583 27.4527 227.396 26.7619L226.1 25.2381C225.455 25.7869 224.71 26.2401 223.861 26.5948L224.631 28.4404ZM227.748 26V21.1602H225.748V26H227.748Z" fill="#FEE81F"/>
</svg>
