<svg width="270" height="54" viewBox="0 0 270 54" fill="none" xmlns="http://www.w3.org/2000/svg">
<path d="M1.92188 13.1094C7.08854 12.599 10.9948 12.3438 13.6406 12.3438C16.2865 12.3438 18.3802 12.5365 19.9219 12.9219C21.474 13.3073 22.75 13.9062 23.75 14.7188C25.6875 16.3021 26.6562 18.901 26.6562 22.5156C26.6562 24.1406 26.349 25.6302 25.7344 26.9844C25.1198 28.3385 24.2812 29.5 23.2188 30.4688C22.1562 31.4375 20.9115 32.1927 19.4844 32.7344C18.0573 33.276 16.5312 33.5469 14.9062 33.5469L12.125 33.4844V38H1.92188V13.1094ZM16 18.8281C15.1042 18.8281 13.7917 19.4479 12.0625 20.6875V26.5781L13.8906 25.6875C15.099 25.0938 15.9427 24.526 16.4219 23.9844C17.3177 22.974 17.7656 21.9688 17.7656 20.9688C17.7656 19.9688 17.4271 19.3073 16.75 18.9844C16.5312 18.8802 16.2812 18.8281 16 18.8281ZM31.4219 36.2812C30.5885 35.5 29.9219 34.5208 29.4219 33.3438C28.9323 32.1562 28.6875 30.8802 28.6875 29.5156C28.6875 28.151 28.8229 26.9688 29.0938 25.9688C29.6354 23.9792 30.5833 22.3073 31.9375 20.9531C32.5833 20.2865 33.3021 19.724 34.0938 19.2656C35.7188 18.3177 37.4323 17.8438 39.2344 17.8438C41.0469 17.8438 42.6354 18.4427 44 19.6406C44.4375 20.026 44.8177 20.4688 45.1406 20.9688L47.375 18.5781H52.5V38H47.375L45.1406 34.7656C43.4323 37.2865 40.8438 38.5521 37.375 38.5625C36.4167 38.5729 35.3906 38.3854 34.2969 38C33.2135 37.625 32.2552 37.0521 31.4219 36.2812ZM44.0781 24.4688C43.7031 24.25 43.2552 24.1406 42.7344 24.1406C42.2135 24.1406 41.6615 24.3281 41.0781 24.7031C40.5052 25.0677 39.9896 25.5312 39.5312 26.0938C38.5104 27.3542 38 28.6354 38 29.9375C38 30.8542 38.2812 31.5 38.8438 31.875C39.3646 32.2188 40.1562 32.1719 41.2188 31.7344C42.2917 31.2865 43.2448 30.7083 44.0781 30V24.4688ZM70.125 25.9062C69.1667 25.9062 68.1823 26.2552 67.1719 26.9531C66.1615 27.651 65.651 28.3125 65.6406 28.9375V38H56.2344V18.5781H65.6406V20.6562C66.1719 19.8542 66.8281 19.2135 67.6094 18.7344C68.401 18.2552 69.2396 17.9688 70.125 17.875V25.9062ZM75.0469 36.2812C74.2135 35.5 73.5469 34.5208 73.0469 33.3438C72.5573 32.1562 72.3125 30.8802 72.3125 29.5156C72.3125 28.151 72.4479 26.9688 72.7188 25.9688C73.2604 23.9792 74.2083 22.3073 75.5625 20.9531C76.2083 20.2865 76.9271 19.724 77.7188 19.2656C79.3438 18.3177 81.0573 17.8438 82.8594 17.8438C84.6719 17.8438 86.2604 18.4427 87.625 19.6406C88.0625 20.026 88.4427 20.4688 88.7656 20.9688L91 18.5781H96.125V38H91L88.7656 34.7656C87.0573 37.2865 84.4688 38.5521 81 38.5625C80.0417 38.5729 79.0156 38.3854 77.9219 38C76.8385 37.625 75.8802 37.0521 75.0469 36.2812ZM87.7031 24.4688C87.3281 24.25 86.8802 24.1406 86.3594 24.1406C85.8385 24.1406 85.2865 24.3281 84.7031 24.7031C84.1302 25.0677 83.6146 25.5312 83.1562 26.0938C82.1354 27.3542 81.625 28.6354 81.625 29.9375C81.625 30.8542 81.9062 31.5 82.4688 31.875C82.9896 32.2188 83.7812 32.1719 84.8438 31.7344C85.9167 31.2865 86.8698 30.7083 87.7031 30V24.4688ZM111.062 17.875C112.302 17.875 113.578 18.0781 114.891 18.4844V11.7031H123.984V38H118.188L115.953 34.7656C114.047 37.2865 111.542 38.5469 108.438 38.5469C105.948 38.5469 103.771 37.7031 101.906 36.0156C100.052 34.3177 99.125 32.1458 99.125 29.5C99.125 26.8542 99.6667 24.6771 100.75 22.9688C102.896 19.5729 106.333 17.875 111.062 17.875ZM114.891 24.4688C114.536 24.25 114.151 24.1406 113.734 24.1406C113.318 24.1406 112.917 24.224 112.531 24.3906C111.74 24.7344 111.031 25.2917 110.406 26.0625C110.073 26.4375 109.792 26.8385 109.562 27.2656C109.062 28.1823 108.812 29.0938 108.812 30C108.812 30.8958 109.089 31.5208 109.641 31.875C109.839 32 110.078 32.0677 110.359 32.0781C111.714 32.0781 113.224 31.3958 114.891 30.0312V24.4688ZM129.922 36.2812C129.089 35.5 128.422 34.5208 127.922 33.3438C127.432 32.1562 127.188 30.8802 127.188 29.5156C127.188 28.151 127.323 26.9688 127.594 25.9688C128.135 23.9792 129.083 22.3073 130.438 20.9531C131.083 20.2865 131.802 19.724 132.594 19.2656C134.219 18.3177 135.932 17.8438 137.734 17.8438C139.547 17.8438 141.135 18.4427 142.5 19.6406C142.938 20.026 143.318 20.4688 143.641 20.9688L145.875 18.5781H151V38H145.875L143.641 34.7656C141.932 37.2865 139.344 38.5521 135.875 38.5625C134.917 38.5729 133.891 38.3854 132.797 38C131.714 37.625 130.755 37.0521 129.922 36.2812ZM142.578 24.4688C142.203 24.25 141.755 24.1406 141.234 24.1406C140.714 24.1406 140.161 24.3281 139.578 24.7031C139.005 25.0677 138.49 25.5312 138.031 26.0938C137.01 27.3542 136.5 28.6354 136.5 29.9375C136.5 30.8542 136.781 31.5 137.344 31.875C137.865 32.2188 138.656 32.1719 139.719 31.7344C140.792 31.2865 141.745 30.7083 142.578 30V24.4688ZM182.438 21.1719C181.76 20.9115 181.036 20.7812 180.266 20.7812C178.682 20.7812 177.302 21.3594 176.125 22.5156C174.958 23.6615 174.375 25.0365 174.375 26.6406C174.375 27.7135 174.583 28.5521 175 29.1562C175.417 29.7604 175.984 30.0625 176.703 30.0625C177.422 30.0625 178.214 29.8802 179.078 29.5156C179.953 29.1406 181.234 28.3333 182.922 27.0938V37.2656C180.703 38.1615 178.344 38.6094 175.844 38.6094C173.354 38.6094 171.057 38.1302 168.953 37.1719C165.609 35.6406 163.406 33.2448 162.344 29.9844C161.99 28.8698 161.807 27.6406 161.797 26.2969C161.797 24.9531 161.964 23.6667 162.297 22.4375C162.63 21.2083 163.115 20.0729 163.75 19.0312C165.021 16.9375 166.802 15.2969 169.094 14.1094C171.396 12.9219 174.031 12.3333 177 12.3438C179.26 12.3438 181.073 12.599 182.438 13.1094V21.1719ZM199.281 24.1406C199.281 23.224 198.854 22.7656 198 22.7656C197.021 22.8594 196.385 23.3646 196.094 24.2812C195.948 24.7188 195.844 25.2292 195.781 25.8125C195.729 26.3854 195.646 27 195.531 27.6562L198.953 26.8906L199.25 24.5L199.281 24.1406ZM197.172 31.25C197.172 31.25 196.885 31.25 196.312 31.25C196.042 31.25 195.781 31.2396 195.531 31.2188C195.531 32.4583 196.193 33.1354 197.516 33.25C197.88 33.2812 198.234 33.2969 198.578 33.2969C199.464 33.2969 200.573 33.0938 201.906 32.6875C203.25 32.2812 204.453 31.6198 205.516 30.7031L206.484 35.5625C204.161 37.5729 200.651 38.5781 195.953 38.5781C193.255 38.5781 190.938 37.7917 189 36.2188C186.896 34.5 185.844 32.1198 185.844 29.0781C185.844 26.7865 186.438 24.7292 187.625 22.9062C188.729 21.2396 190.224 19.974 192.109 19.1094C193.995 18.2448 196.031 17.8125 198.219 17.8125C201.052 17.8125 203.193 18.4323 204.641 19.6719C206.099 20.9115 206.823 22.4427 206.812 24.2656C206.812 26.0885 205.943 27.7083 204.203 29.125C202.464 30.5417 200.12 31.25 197.172 31.25ZM224 25.9062C223.042 25.9062 222.057 26.2552 221.047 26.9531C220.036 27.651 219.526 28.3125 219.516 28.9375V38H210.109V18.5781H219.516V20.6562C220.047 19.8542 220.703 19.2135 221.484 18.7344C222.276 18.2552 223.115 17.9688 224 17.875V25.9062ZM241.453 36.5938C239.474 37.9375 237.375 38.6094 235.156 38.6094C232.948 38.6094 231.151 37.9844 229.766 36.7344C228.38 35.474 227.688 33.7812 227.688 31.6562V23.5312H225.906V18.5781H227.688V13.3281L237.031 12.375V18.5781H241.453V23.5312H237.031V28.4375C237.031 29.9062 237.359 30.974 238.016 31.6406C238.682 32.2969 239.828 32.625 241.453 32.625V36.5938ZM246.484 36.2812C245.651 35.5 244.984 34.5208 244.484 33.3438C243.995 32.1562 243.75 30.8802 243.75 29.5156C243.75 28.151 243.885 26.9688 244.156 25.9688C244.698 23.9792 245.646 22.3073 247 20.9531C247.646 20.2865 248.365 19.724 249.156 19.2656C250.781 18.3177 252.495 17.8438 254.297 17.8438C256.109 17.8438 257.698 18.4427 259.062 19.6406C259.5 20.026 259.88 20.4688 260.203 20.9688L262.438 18.5781H267.562V38H262.438L260.203 34.7656C258.495 37.2865 255.906 38.5521 252.438 38.5625C251.479 38.5729 250.453 38.3854 249.359 38C248.276 37.625 247.318 37.0521 246.484 36.2812ZM259.141 24.4688C258.766 24.25 258.318 24.1406 257.797 24.1406C257.276 24.1406 256.724 24.3281 256.141 24.7031C255.568 25.0677 255.052 25.5312 254.594 26.0938C253.573 27.3542 253.062 28.6354 253.062 29.9375C253.062 30.8542 253.344 31.5 253.906 31.875C254.427 32.2188 255.219 32.1719 256.281 31.7344C257.354 31.2865 258.307 30.7083 259.141 30V24.4688Z" fill="#4CF412"/>
<path d="M1.92188 13.1094L1.82356 12.1142L0.921875 12.2033V13.1094H1.92188ZM19.9219 12.9219L19.6793 13.892L19.6809 13.8924L19.9219 12.9219ZM23.75 14.7188L24.3828 13.9444L24.3806 13.9426L23.75 14.7188ZM14.9062 33.5469L14.8838 34.5466L14.895 34.5469H14.9062V33.5469ZM12.125 33.4844L12.1475 32.4846L11.125 32.4617V33.4844H12.125ZM12.125 38V39H13.125V38H12.125ZM1.92188 38H0.921875V39H1.92188V38ZM12.0625 20.6875L11.4799 19.8748L11.0625 20.174V20.6875H12.0625ZM12.0625 26.5781H11.0625V28.1777L12.5005 27.4771L12.0625 26.5781ZM13.8906 25.6875L14.3286 26.5865L14.3316 26.585L13.8906 25.6875ZM16.4219 23.9844L15.6736 23.321L15.6729 23.3218L16.4219 23.9844ZM16.75 18.9844L17.1805 18.0818L17.1799 18.0815L16.75 18.9844ZM2.02019 14.1045C7.1789 13.5949 11.0455 13.3438 13.6406 13.3438V11.3438C10.9441 11.3438 6.99819 11.603 1.82356 12.1142L2.02019 14.1045ZM13.6406 13.3438C16.2511 13.3438 18.252 13.5352 19.6793 13.892L20.1644 11.9517C18.5084 11.5377 16.3218 11.3438 13.6406 11.3438V13.3438ZM19.6809 13.8924C21.1239 14.2507 22.2575 14.7946 23.1194 15.4949L24.3806 13.9426C23.2425 13.0179 21.824 12.3638 20.1629 11.9514L19.6809 13.8924ZM23.1172 15.4931C24.733 16.8135 25.6562 19.0629 25.6562 22.5156H27.6562C27.6562 18.7392 26.642 15.7906 24.3828 13.9444L23.1172 15.4931ZM25.6562 22.5156C25.6562 24.0114 25.3742 25.3584 24.8238 26.5711L26.645 27.3976C27.3238 25.902 27.6562 24.2698 27.6562 22.5156H25.6562ZM24.8238 26.5711C24.2633 27.8061 23.5038 28.8556 22.545 29.7298L23.8925 31.2077C25.0587 30.1444 25.9763 28.871 26.645 27.3976L24.8238 26.5711ZM22.545 29.7298C21.5811 30.6086 20.4462 31.2997 19.1295 31.7995L19.8392 33.6693C21.3767 33.0857 22.7314 32.2664 23.8925 31.2077L22.545 29.7298ZM19.1295 31.7995C17.823 32.2954 16.4179 32.5469 14.9062 32.5469V34.5469C16.6446 34.5469 18.2916 34.2567 19.8392 33.6693L19.1295 31.7995ZM14.9287 32.5471L12.1475 32.4846L12.1025 34.4841L14.8838 34.5466L14.9287 32.5471ZM11.125 33.4844V38H13.125V33.4844H11.125ZM12.125 37H1.92188V39H12.125V37ZM2.92188 38V13.1094H0.921875V38H2.92188ZM16 17.8281C15.3406 17.8281 14.6333 18.0504 13.9167 18.3887C13.1872 18.7332 12.3731 19.2344 11.4799 19.8748L12.6451 21.5002C13.4811 20.901 14.1878 20.4725 14.7708 20.1972C15.3667 19.9158 15.7636 19.8281 16 19.8281V17.8281ZM11.0625 20.6875V26.5781H13.0625V20.6875H11.0625ZM12.5005 27.4771L14.3286 26.5865L13.4527 24.7885L11.6245 25.6791L12.5005 27.4771ZM14.3316 26.585C15.5737 25.9747 16.5599 25.3376 17.1709 24.6469L15.6729 23.3218C15.3255 23.7145 14.6242 24.2128 13.4496 24.79L14.3316 26.585ZM17.1701 24.6478C18.1707 23.5192 18.7656 22.2878 18.7656 20.9688H16.7656C16.7656 21.6497 16.4647 22.4287 15.6736 23.321L17.1701 24.6478ZM18.7656 20.9688C18.7656 19.7348 18.3241 18.6272 17.1805 18.0818L16.3195 19.887C16.5301 19.9874 16.7656 20.2027 16.7656 20.9688H18.7656ZM17.1799 18.0815C16.8069 17.9039 16.4062 17.8281 16 17.8281V19.8281C16.1563 19.8281 16.2556 19.8565 16.3201 19.8872L17.1799 18.0815ZM31.4219 36.2812L30.7379 37.0108L30.7428 37.0154L31.4219 36.2812ZM29.4219 33.3438L28.4973 33.7249L28.5015 33.7347L29.4219 33.3438ZM29.0938 25.9688L28.1289 25.7061L28.1285 25.7073L29.0938 25.9688ZM31.9375 20.9531L32.6446 21.6602L32.6502 21.6546L32.6557 21.6489L31.9375 20.9531ZM34.0938 19.2656L34.5948 20.1311L34.5976 20.1294L34.0938 19.2656ZM44 19.6406L44.661 18.8903L44.6597 18.8891L44 19.6406ZM45.1406 20.9688L44.3006 21.5113L44.996 22.588L45.8712 21.6516L45.1406 20.9688ZM47.375 18.5781V17.5781H46.9409L46.6444 17.8953L47.375 18.5781ZM52.5 18.5781H53.5V17.5781H52.5V18.5781ZM52.5 38V39H53.5V38H52.5ZM47.375 38L46.5522 38.5684L46.8504 39H47.375V38ZM45.1406 34.7656L45.9634 34.1972L45.1327 32.9948L44.3128 34.2046L45.1406 34.7656ZM37.375 38.5625L37.372 37.5625L37.3641 37.5626L37.375 38.5625ZM34.2969 38L34.6292 37.0568L34.624 37.055L34.2969 38ZM44.0781 24.4688H45.0781V23.8944L44.582 23.605L44.0781 24.4688ZM41.0781 24.7031L41.615 25.5468L41.6189 25.5443L41.0781 24.7031ZM39.5312 26.0938L38.756 25.4621L38.7542 25.4644L39.5312 26.0938ZM38.8438 31.875L38.289 32.7071L38.2929 32.7096L38.8438 31.875ZM41.2188 31.7344L41.5995 32.6591L41.604 32.6572L41.2188 31.7344ZM44.0781 30L44.7258 30.7619L45.0781 30.4624V30H44.0781ZM32.1058 35.5517C31.3855 34.8764 30.7944 34.0171 30.3423 32.9528L28.5015 33.7347C29.0494 35.0245 29.7916 36.1236 30.7379 37.0108L32.1058 35.5517ZM30.3464 32.9626C29.9097 31.9034 29.6875 30.7577 29.6875 29.5156H27.6875C27.6875 31.0027 27.9549 32.4091 28.4974 33.7249L30.3464 32.9626ZM29.6875 29.5156C29.6875 28.2132 29.8172 27.1229 30.059 26.2302L28.1285 25.7073C27.8286 26.8146 27.6875 28.0889 27.6875 29.5156H29.6875ZM30.0586 26.2314C30.5582 24.3966 31.423 22.8818 32.6446 21.6602L31.2304 20.246C29.7437 21.7327 28.7127 23.5617 28.1289 25.7061L30.0586 26.2314ZM32.6557 21.6489C33.2383 21.0476 33.8842 20.5425 34.5948 20.1311L33.5927 18.4002C32.72 18.9055 31.9284 19.5253 31.2193 20.2573L32.6557 21.6489ZM34.5976 20.1294C36.0767 19.2666 37.6173 18.8438 39.2344 18.8438V16.8438C37.2473 16.8438 35.3608 17.3688 33.5899 18.4018L34.5976 20.1294ZM39.2344 18.8438C40.8036 18.8438 42.1578 19.3541 43.3403 20.3921L44.6597 18.8891C43.1131 17.5314 41.2901 16.8438 39.2344 16.8438V18.8438ZM43.339 20.391C43.7061 20.7144 44.0265 21.0868 44.3006 21.5113L45.9807 20.4262C45.609 19.8507 45.1689 19.3377 44.661 18.8903L43.339 20.391ZM45.8712 21.6516L48.1056 19.261L46.6444 17.8953L44.41 20.2859L45.8712 21.6516ZM47.375 19.5781H52.5V17.5781H47.375V19.5781ZM51.5 18.5781V38H53.5V18.5781H51.5ZM52.5 37H47.375V39H52.5V37ZM48.1978 37.4316L45.9634 34.1972L44.3179 35.334L46.5522 38.5684L48.1978 37.4316ZM44.3128 34.2046C42.8181 36.4103 40.5636 37.5529 37.372 37.5625L37.378 39.5625C41.1239 39.5512 44.0465 38.1626 45.9684 35.3266L44.3128 34.2046ZM37.3641 37.5626C36.5443 37.5715 35.6352 37.4113 34.6292 37.0568L33.9645 38.9432C35.146 39.3595 36.289 39.5744 37.3859 39.5624L37.3641 37.5626ZM34.624 37.055C33.6699 36.7248 32.8317 36.2232 32.1009 35.5471L30.7428 37.0154C31.6787 37.881 32.7571 38.5252 33.9698 38.945L34.624 37.055ZM44.582 23.605C44.0261 23.2807 43.3968 23.1406 42.7344 23.1406V25.1406C43.1136 25.1406 43.3801 25.2193 43.5743 25.3325L44.582 23.605ZM42.7344 23.1406C41.9679 23.1406 41.2298 23.4168 40.5374 23.8619L41.6189 25.5443C42.0932 25.2394 42.4591 25.1406 42.7344 25.1406V23.1406ZM40.5412 23.8595C39.8721 24.2853 39.2773 24.8223 38.756 25.4621L40.3065 26.7254C40.7019 26.2402 41.1384 25.8501 41.615 25.5468L40.5412 23.8595ZM38.7542 25.4644C37.6255 26.858 37 28.3545 37 29.9375H39C39 28.9163 39.3954 27.8504 40.3083 26.7231L38.7542 25.4644ZM37 29.9375C37 31.0575 37.3546 32.0841 38.2891 32.7071L39.3984 31.0429C39.2079 30.9159 39 30.6509 39 29.9375H37ZM38.2929 32.7096C39.2565 33.3456 40.4786 33.1206 41.5995 32.6591L40.838 30.8097C39.8339 31.2232 39.4726 31.0919 39.3946 31.0404L38.2929 32.7096ZM41.604 32.6572C42.7661 32.172 43.809 31.5412 44.7258 30.7619L43.4305 29.2381C42.6806 29.8755 41.8172 30.4009 40.8335 30.8116L41.604 32.6572ZM45.0781 30V24.4688H43.0781V30H45.0781ZM70.125 25.9062V26.9062H71.125V25.9062H70.125ZM65.6406 28.9375L64.6408 28.9208L64.6406 28.9292V28.9375H65.6406ZM65.6406 38V39H66.6406V38H65.6406ZM56.2344 38H55.2344V39H56.2344V38ZM56.2344 18.5781V17.5781H55.2344V18.5781H56.2344ZM65.6406 18.5781H66.6406V17.5781H65.6406V18.5781ZM65.6406 20.6562H64.6406V23.977L66.4743 21.2084L65.6406 20.6562ZM67.6094 18.7344L67.0916 17.8789L67.0865 17.8819L67.6094 18.7344ZM70.125 17.875H71.125V16.7635L70.0197 16.8806L70.125 17.875ZM70.125 24.9062C68.9133 24.9062 67.7341 25.3494 66.6035 26.1303L67.7402 27.7759C68.6304 27.161 69.4201 26.9062 70.125 26.9062V24.9062ZM66.6035 26.1303C65.564 26.8483 64.66 27.7659 64.6408 28.9208L66.6405 28.9542C66.6421 28.8591 66.7589 28.4537 67.7402 27.7759L66.6035 26.1303ZM64.6406 28.9375V38H66.6406V28.9375H64.6406ZM65.6406 37H56.2344V39H65.6406V37ZM57.2344 38V18.5781H55.2344V38H57.2344ZM56.2344 19.5781H65.6406V17.5781H56.2344V19.5781ZM64.6406 18.5781V20.6562H66.6406V18.5781H64.6406ZM66.4743 21.2084C66.9292 20.5217 67.4814 19.986 68.1322 19.5868L67.0865 17.8819C66.1749 18.4411 65.4146 19.1866 64.8069 20.1041L66.4743 21.2084ZM68.1272 19.5899C68.7983 19.1837 69.4967 18.9471 70.2303 18.8694L70.0197 16.8806C68.9825 16.9904 68.0038 17.3267 67.0916 17.8789L68.1272 19.5899ZM69.125 17.875V25.9062H71.125V17.875H69.125ZM75.0469 36.2812L74.3629 37.0108L74.3678 37.0154L75.0469 36.2812ZM73.0469 33.3438L72.1223 33.7249L72.1265 33.7347L73.0469 33.3438ZM72.7188 25.9688L71.7539 25.7061L71.7535 25.7073L72.7188 25.9688ZM75.5625 20.9531L76.2696 21.6602L76.2752 21.6546L76.2807 21.6489L75.5625 20.9531ZM77.7188 19.2656L78.2198 20.1311L78.2226 20.1294L77.7188 19.2656ZM87.625 19.6406L88.286 18.8903L88.2847 18.8891L87.625 19.6406ZM88.7656 20.9688L87.9256 21.5113L88.621 22.588L89.4962 21.6516L88.7656 20.9688ZM91 18.5781V17.5781H90.5659L90.2694 17.8953L91 18.5781ZM96.125 18.5781H97.125V17.5781H96.125V18.5781ZM96.125 38V39H97.125V38H96.125ZM91 38L90.1772 38.5684L90.4754 39H91V38ZM88.7656 34.7656L89.5884 34.1972L88.7577 32.9948L87.9378 34.2046L88.7656 34.7656ZM81 38.5625L80.997 37.5625L80.9891 37.5626L81 38.5625ZM77.9219 38L78.2542 37.0568L78.249 37.055L77.9219 38ZM87.7031 24.4688H88.7031V23.8944L88.207 23.605L87.7031 24.4688ZM84.7031 24.7031L85.24 25.5468L85.2439 25.5443L84.7031 24.7031ZM83.1562 26.0938L82.381 25.4621L82.3792 25.4644L83.1562 26.0938ZM82.4688 31.875L81.914 32.7071L81.9179 32.7096L82.4688 31.875ZM84.8438 31.7344L85.2245 32.6591L85.229 32.6572L84.8438 31.7344ZM87.7031 30L88.3508 30.7619L88.7031 30.4624V30H87.7031ZM75.7308 35.5517C75.0105 34.8764 74.4194 34.0171 73.9673 32.9528L72.1265 33.7347C72.6744 35.0245 73.4166 36.1236 74.3629 37.0108L75.7308 35.5517ZM73.9714 32.9626C73.5347 31.9034 73.3125 30.7577 73.3125 29.5156H71.3125C71.3125 31.0027 71.5799 32.4091 72.1224 33.7249L73.9714 32.9626ZM73.3125 29.5156C73.3125 28.2132 73.4422 27.1229 73.684 26.2302L71.7535 25.7073C71.4536 26.8146 71.3125 28.0889 71.3125 29.5156H73.3125ZM73.6836 26.2314C74.1832 24.3966 75.048 22.8818 76.2696 21.6602L74.8554 20.246C73.3687 21.7327 72.3377 23.5617 71.7539 25.7061L73.6836 26.2314ZM76.2807 21.6489C76.8633 21.0476 77.5092 20.5425 78.2198 20.1311L77.2177 18.4002C76.345 18.9055 75.5534 19.5253 74.8443 20.2573L76.2807 21.6489ZM78.2226 20.1294C79.7017 19.2666 81.2423 18.8438 82.8594 18.8438V16.8438C80.8723 16.8438 78.9858 17.3688 77.2149 18.4018L78.2226 20.1294ZM82.8594 18.8438C84.4286 18.8438 85.7828 19.3541 86.9653 20.3921L88.2847 18.8891C86.7381 17.5314 84.9151 16.8438 82.8594 16.8438V18.8438ZM86.964 20.391C87.3311 20.7144 87.6515 21.0868 87.9256 21.5113L89.6057 20.4262C89.234 19.8507 88.7939 19.3377 88.286 18.8903L86.964 20.391ZM89.4962 21.6516L91.7306 19.261L90.2694 17.8953L88.035 20.2859L89.4962 21.6516ZM91 19.5781H96.125V17.5781H91V19.5781ZM95.125 18.5781V38H97.125V18.5781H95.125ZM96.125 37H91V39H96.125V37ZM91.8228 37.4316L89.5884 34.1972L87.9429 35.334L90.1772 38.5684L91.8228 37.4316ZM87.9378 34.2046C86.4431 36.4103 84.1886 37.5529 80.997 37.5625L81.003 39.5625C84.7489 39.5512 87.6715 38.1626 89.5934 35.3266L87.9378 34.2046ZM80.9891 37.5626C80.1693 37.5715 79.2602 37.4113 78.2542 37.0568L77.5895 38.9432C78.771 39.3595 79.914 39.5744 81.0109 39.5624L80.9891 37.5626ZM78.249 37.055C77.2949 36.7248 76.4567 36.2232 75.7259 35.5471L74.3678 37.0154C75.3037 37.881 76.3821 38.5252 77.5948 38.945L78.249 37.055ZM88.207 23.605C87.6511 23.2807 87.0218 23.1406 86.3594 23.1406V25.1406C86.7386 25.1406 87.0051 25.2193 87.1993 25.3325L88.207 23.605ZM86.3594 23.1406C85.5929 23.1406 84.8548 23.4168 84.1624 23.8619L85.2439 25.5443C85.7182 25.2394 86.0842 25.1406 86.3594 25.1406V23.1406ZM84.1663 23.8595C83.4971 24.2853 82.9023 24.8223 82.381 25.4621L83.9315 26.7254C84.3269 26.2402 84.7634 25.8501 85.24 25.5468L84.1663 23.8595ZM82.3792 25.4644C81.2505 26.858 80.625 28.3545 80.625 29.9375H82.625C82.625 28.9163 83.0204 27.8504 83.9333 26.7231L82.3792 25.4644ZM80.625 29.9375C80.625 31.0575 80.9796 32.0841 81.914 32.7071L83.0235 31.0429C82.8329 30.9159 82.625 30.6509 82.625 29.9375H80.625ZM81.9179 32.7096C82.8815 33.3456 84.1036 33.1206 85.2245 32.6591L84.463 30.8097C83.4589 31.2232 83.0976 31.0919 83.0196 31.0404L81.9179 32.7096ZM85.229 32.6572C86.3911 32.172 87.434 31.5412 88.3508 30.7619L87.0555 29.2381C86.3056 29.8755 85.4422 30.4009 84.4585 30.8116L85.229 32.6572ZM88.7031 30V24.4688H86.7031V30H88.7031ZM114.891 18.4844L114.595 19.4397L115.891 19.8407V18.4844H114.891ZM114.891 11.7031V10.7031H113.891V11.7031H114.891ZM123.984 11.7031H124.984V10.7031H123.984V11.7031ZM123.984 38V39H124.984V38H123.984ZM118.188 38L117.365 38.5684L117.663 39H118.188V38ZM115.953 34.7656L116.776 34.1972L115.99 33.0593L115.156 34.1625L115.953 34.7656ZM101.906 36.0156L101.231 36.7531L101.235 36.7571L101.906 36.0156ZM100.75 22.9688L101.595 23.5043L101.595 23.5029L100.75 22.9688ZM114.891 24.4688H115.891V23.911L115.416 23.618L114.891 24.4688ZM112.531 24.3906L112.134 23.4728L112.133 23.4734L112.531 24.3906ZM110.406 26.0625L111.154 26.7269L111.169 26.7099L111.183 26.6923L110.406 26.0625ZM109.562 27.2656L110.44 27.7445L110.444 27.7384L109.562 27.2656ZM109.641 31.875L109.101 32.7167L109.107 32.7205L109.641 31.875ZM110.359 32.0781L110.322 33.0774L110.341 33.0781H110.359V32.0781ZM114.891 30.0312L115.524 30.805L115.891 30.5049V30.0312H114.891ZM111.062 18.875C112.192 18.875 113.368 19.0599 114.595 19.4397L115.186 17.5291C113.788 17.0964 112.413 16.875 111.062 16.875V18.875ZM115.891 18.4844V11.7031H113.891V18.4844H115.891ZM114.891 12.7031H123.984V10.7031H114.891V12.7031ZM122.984 11.7031V38H124.984V11.7031H122.984ZM123.984 37H118.188V39H123.984V37ZM119.01 37.4316L116.776 34.1972L115.13 35.334L117.365 38.5684L119.01 37.4316ZM115.156 34.1625C113.434 36.4387 111.222 37.5469 108.438 37.5469V39.5469C111.862 39.5469 114.66 38.1342 116.751 35.3688L115.156 34.1625ZM108.438 37.5469C106.199 37.5469 104.26 36.7971 102.577 35.2742L101.235 36.7571C103.282 38.6091 105.697 39.5469 108.438 39.5469V37.5469ZM102.582 35.2781C100.946 33.7805 100.125 31.8819 100.125 29.5H98.125C98.125 32.4097 99.158 34.8549 101.231 36.7531L102.582 35.2781ZM100.125 29.5C100.125 26.9865 100.64 25.0101 101.595 23.5043L99.9055 22.4332C98.6937 24.3441 98.125 26.7219 98.125 29.5H100.125ZM101.595 23.5029C103.523 20.4524 106.605 18.875 111.062 18.875V16.875C106.061 16.875 102.269 18.6934 99.9046 22.4346L101.595 23.5029ZM115.416 23.618C114.904 23.3016 114.336 23.1406 113.734 23.1406V25.1406C113.966 25.1406 114.169 25.1984 114.365 25.3195L115.416 23.618ZM113.734 23.1406C113.18 23.1406 112.644 23.2523 112.134 23.4728L112.928 25.3085C113.189 25.1956 113.455 25.1406 113.734 25.1406V23.1406ZM112.133 23.4734C111.173 23.8901 110.34 24.5558 109.629 25.4327L111.183 26.6923C111.722 26.0275 112.306 25.5786 112.93 25.3079L112.133 23.4734ZM109.659 25.3981C109.275 25.8295 108.949 26.2945 108.681 26.7928L110.444 27.7384C110.635 27.3826 110.87 27.0455 111.154 26.7269L109.659 25.3981ZM108.685 26.7868C108.117 27.8278 107.812 28.9025 107.812 30H109.812C109.812 29.285 110.008 28.5368 110.44 27.7445L108.685 26.7868ZM107.812 30C107.812 31.0986 108.163 32.1149 109.101 32.7167L110.181 31.0333C110.015 30.9268 109.812 30.6931 109.812 30H107.812ZM109.107 32.7205C109.481 32.9571 109.9 33.0618 110.322 33.0774L110.396 31.0788C110.256 31.0736 110.196 31.0429 110.175 31.0295L109.107 32.7205ZM110.359 33.0781C112.046 33.0781 113.778 32.2348 115.524 30.805L114.257 29.2575C112.67 30.5569 111.381 31.0781 110.359 31.0781V33.0781ZM115.891 30.0312V24.4688H113.891V30.0312H115.891ZM129.922 36.2812L129.238 37.0108L129.243 37.0154L129.922 36.2812ZM127.922 33.3438L126.997 33.7249L127.001 33.7347L127.922 33.3438ZM127.594 25.9688L126.629 25.7061L126.629 25.7073L127.594 25.9688ZM130.438 20.9531L131.145 21.6602L131.15 21.6546L131.156 21.6489L130.438 20.9531ZM132.594 19.2656L133.095 20.1311L133.098 20.1294L132.594 19.2656ZM142.5 19.6406L143.161 18.8903L143.16 18.8891L142.5 19.6406ZM143.641 20.9688L142.801 21.5113L143.496 22.588L144.371 21.6516L143.641 20.9688ZM145.875 18.5781V17.5781H145.441L145.144 17.8953L145.875 18.5781ZM151 18.5781H152V17.5781H151V18.5781ZM151 38V39H152V38H151ZM145.875 38L145.052 38.5684L145.35 39H145.875V38ZM143.641 34.7656L144.463 34.1972L143.633 32.9948L142.813 34.2046L143.641 34.7656ZM135.875 38.5625L135.872 37.5625L135.864 37.5626L135.875 38.5625ZM132.797 38L133.129 37.0568L133.124 37.055L132.797 38ZM142.578 24.4688H143.578V23.8944L143.082 23.605L142.578 24.4688ZM139.578 24.7031L140.115 25.5468L140.119 25.5443L139.578 24.7031ZM138.031 26.0938L137.256 25.4621L137.254 25.4644L138.031 26.0938ZM137.344 31.875L136.789 32.7071L136.793 32.7096L137.344 31.875ZM139.719 31.7344L140.1 32.6591L140.104 32.6572L139.719 31.7344ZM142.578 30L143.226 30.7619L143.578 30.4624V30H142.578ZM130.606 35.5517C129.885 34.8764 129.294 34.0171 128.842 32.9528L127.001 33.7347C127.549 35.0245 128.292 36.1236 129.238 37.0108L130.606 35.5517ZM128.846 32.9626C128.41 31.9034 128.188 30.7577 128.188 29.5156H126.188C126.188 31.0027 126.455 32.4091 126.997 33.7249L128.846 32.9626ZM128.188 29.5156C128.188 28.2132 128.317 27.1229 128.559 26.2302L126.629 25.7073C126.329 26.8146 126.188 28.0889 126.188 29.5156H128.188ZM128.559 26.2314C129.058 24.3966 129.923 22.8818 131.145 21.6602L129.73 20.246C128.244 21.7327 127.213 23.5617 126.629 25.7061L128.559 26.2314ZM131.156 21.6489C131.738 21.0476 132.384 20.5425 133.095 20.1311L132.093 18.4002C131.22 18.9055 130.428 19.5253 129.719 20.2573L131.156 21.6489ZM133.098 20.1294C134.577 19.2666 136.117 18.8438 137.734 18.8438V16.8438C135.747 16.8438 133.861 17.3688 132.09 18.4018L133.098 20.1294ZM137.734 18.8438C139.304 18.8438 140.658 19.3541 141.84 20.3921L143.16 18.8891C141.613 17.5314 139.79 16.8438 137.734 16.8438V18.8438ZM141.839 20.391C142.206 20.7144 142.526 21.0868 142.801 21.5113L144.481 20.4262C144.109 19.8507 143.669 19.3377 143.161 18.8903L141.839 20.391ZM144.371 21.6516L146.606 19.261L145.144 17.8953L142.91 20.2859L144.371 21.6516ZM145.875 19.5781H151V17.5781H145.875V19.5781ZM150 18.5781V38H152V18.5781H150ZM151 37H145.875V39H151V37ZM146.698 37.4316L144.463 34.1972L142.818 35.334L145.052 38.5684L146.698 37.4316ZM142.813 34.2046C141.318 36.4103 139.064 37.5529 135.872 37.5625L135.878 39.5625C139.624 39.5512 142.547 38.1626 144.468 35.3266L142.813 34.2046ZM135.864 37.5626C135.044 37.5715 134.135 37.4113 133.129 37.0568L132.465 38.9432C133.646 39.3595 134.789 39.5744 135.886 39.5624L135.864 37.5626ZM133.124 37.055C132.17 36.7248 131.332 36.2232 130.601 35.5471L129.243 37.0154C130.179 37.881 131.257 38.5252 132.47 38.945L133.124 37.055ZM143.082 23.605C142.526 23.2807 141.897 23.1406 141.234 23.1406V25.1406C141.614 25.1406 141.88 25.2193 142.074 25.3325L143.082 23.605ZM141.234 23.1406C140.468 23.1406 139.73 23.4168 139.037 23.8619L140.119 25.5443C140.593 25.2394 140.959 25.1406 141.234 25.1406V23.1406ZM139.041 23.8595C138.372 24.2853 137.777 24.8223 137.256 25.4621L138.806 26.7254C139.202 26.2402 139.638 25.8501 140.115 25.5468L139.041 23.8595ZM137.254 25.4644C136.125 26.858 135.5 28.3545 135.5 29.9375H137.5C137.5 28.9163 137.895 27.8504 138.808 26.7231L137.254 25.4644ZM135.5 29.9375C135.5 31.0575 135.855 32.0841 136.789 32.7071L137.898 31.0429C137.708 30.9159 137.5 30.6509 137.5 29.9375H135.5ZM136.793 32.7096C137.757 33.3456 138.979 33.1206 140.1 32.6591L139.338 30.8097C138.334 31.2232 137.973 31.0919 137.895 31.0404L136.793 32.7096ZM140.104 32.6572C141.266 32.172 142.309 31.5412 143.226 30.7619L141.93 29.2381C141.181 29.8755 140.317 30.4009 139.333 30.8116L140.104 32.6572ZM143.578 30V24.4688H141.578V30H143.578ZM182.438 21.1719L182.079 22.1052L183.438 22.6279V21.1719H182.438ZM176.125 22.5156L176.826 23.2291L176.826 23.229L176.125 22.5156ZM179.078 29.5156L179.467 30.4371L179.472 30.4348L179.078 29.5156ZM182.922 27.0938H183.922V25.1184L182.33 26.2878L182.922 27.0938ZM182.922 37.2656L183.296 38.1929L183.922 37.9403V37.2656H182.922ZM168.953 37.1719L168.537 38.0811L168.539 38.0819L168.953 37.1719ZM162.344 29.9844L161.391 30.2872L161.393 30.2942L162.344 29.9844ZM161.797 26.2969H160.797L160.797 26.3046L161.797 26.2969ZM163.75 19.0312L164.604 19.552L164.605 19.5501L163.75 19.0312ZM169.094 14.1094L168.635 13.2206L168.634 13.2215L169.094 14.1094ZM177 12.3438L176.996 13.3438H177V12.3438ZM182.438 13.1094H183.438V12.4158L182.788 12.1728L182.438 13.1094ZM182.796 20.2385C181.998 19.9314 181.151 19.7812 180.266 19.7812V21.7812C180.921 21.7812 181.523 21.8916 182.079 22.1052L182.796 20.2385ZM180.266 19.7812C178.408 19.7812 176.78 20.4709 175.424 21.8022L176.826 23.229C177.825 22.2479 178.956 21.7812 180.266 21.7812V19.7812ZM175.424 21.8022C174.07 23.1319 173.375 24.7623 173.375 26.6406H175.375C175.375 25.3106 175.846 24.191 176.826 23.2291L175.424 21.8022ZM173.375 26.6406C173.375 27.8272 173.603 28.8921 174.177 29.724L175.823 28.5885C175.564 28.2121 175.375 27.5998 175.375 26.6406H173.375ZM174.177 29.724C174.775 30.592 175.647 31.0625 176.703 31.0625V29.0625C176.321 29.0625 176.058 28.9289 175.823 28.5885L174.177 29.724ZM176.703 31.0625C177.589 31.0625 178.515 30.8384 179.467 30.4371L178.69 28.5942C177.912 28.922 177.254 29.0625 176.703 29.0625V31.0625ZM179.472 30.4348C180.46 30.0112 181.82 29.1439 183.514 27.8997L182.33 26.2878C180.649 27.5228 179.446 28.27 178.684 28.5965L179.472 30.4348ZM181.922 27.0938V37.2656H183.922V27.0938H181.922ZM182.547 36.3384C180.453 37.184 178.221 37.6094 175.844 37.6094V39.6094C178.466 39.6094 180.953 39.1389 183.296 38.1929L182.547 36.3384ZM175.844 37.6094C173.486 37.6094 171.332 37.1564 169.368 36.2618L168.539 38.0819C170.783 39.104 173.222 39.6094 175.844 39.6094V37.6094ZM169.369 36.2627C166.259 34.8383 164.264 32.6484 163.295 29.6745L161.393 30.2942C162.549 33.8412 164.96 36.4429 168.537 38.0811L169.369 36.2627ZM163.297 29.6815C162.977 28.6754 162.807 27.5473 162.797 26.2891L160.797 26.3046C160.808 27.7339 161.002 29.0642 161.391 30.2872L163.297 29.6815ZM162.797 26.2969C162.797 25.0367 162.953 23.8385 163.262 22.6992L161.332 22.1758C160.974 23.4948 160.797 24.8696 160.797 26.2969H162.797ZM163.262 22.6992C163.572 21.5572 164.02 20.5096 164.604 19.552L162.896 18.5105C162.21 19.6363 161.689 20.8594 161.332 22.1758L163.262 22.6992ZM164.605 19.5501C165.775 17.6219 167.416 16.1051 169.554 14.9973L168.634 13.2215C166.188 14.4887 164.266 16.2531 162.895 18.5124L164.605 19.5501ZM169.552 14.9981C171.692 13.8944 174.165 13.3338 176.996 13.3437L177.004 11.3438C173.898 11.3329 171.1 11.9494 168.635 13.2206L169.552 14.9981ZM177 13.3438C179.199 13.3438 180.879 13.594 182.087 14.046L182.788 12.1728C181.267 11.6039 179.321 11.3438 177 11.3438V13.3438ZM181.438 13.1094V21.1719H183.438V13.1094H181.438ZM199.281 24.1406L200.277 24.2273L200.281 24.184V24.1406H199.281ZM198 22.7656V21.7656H197.952L197.905 21.7702L198 22.7656ZM196.094 24.2812L197.043 24.5975L197.047 24.5845L196.094 24.2812ZM195.781 25.8125L194.787 25.706L194.786 25.714L194.785 25.722L195.781 25.8125ZM195.531 27.6562L194.546 27.4842L194.289 28.959L195.75 28.6321L195.531 27.6562ZM198.953 26.8906L199.171 27.8665L199.859 27.7127L199.945 27.0139L198.953 26.8906ZM199.25 24.5L200.242 24.6232L200.245 24.605L200.246 24.5866L199.25 24.5ZM195.531 31.2188L195.614 30.2222L194.531 30.132V31.2188H195.531ZM197.516 33.25L197.429 34.2463L197.43 34.2463L197.516 33.25ZM201.906 32.6875L201.617 31.7303L201.615 31.7309L201.906 32.6875ZM205.516 30.7031L206.496 30.5076L206.161 28.8256L204.862 29.946L205.516 30.7031ZM206.484 35.5625L207.139 36.3186L207.579 35.9378L207.465 35.367L206.484 35.5625ZM189 36.2188L188.367 36.9932L188.37 36.9951L189 36.2188ZM187.625 22.9062L186.791 22.3539L186.787 22.3604L187.625 22.9062ZM204.641 19.6719L203.99 20.4315L203.993 20.4338L204.641 19.6719ZM206.812 24.2656L205.812 24.2599V24.2656H206.812ZM204.203 29.125L203.572 28.3496L204.203 29.125ZM200.281 24.1406C200.281 23.545 200.144 22.9121 199.693 22.4276C199.229 21.9299 198.6 21.7656 198 21.7656V23.7656C198.254 23.7656 198.266 23.8305 198.229 23.7911C198.205 23.765 198.281 23.8196 198.281 24.1406H200.281ZM197.905 21.7702C197.264 21.8315 196.665 22.0357 196.167 22.4321C195.667 22.8296 195.335 23.3663 195.141 23.978L197.047 24.5845C197.144 24.2796 197.276 24.1053 197.411 23.9976C197.548 23.8887 197.757 23.7935 198.095 23.7611L197.905 21.7702ZM195.145 23.965C194.971 24.486 194.855 25.0696 194.787 25.706L196.776 25.919C196.832 25.3888 196.924 24.9515 197.042 24.5975L195.145 23.965ZM194.785 25.722C194.736 26.2637 194.657 26.8509 194.546 27.4842L196.516 27.8283C196.635 27.1491 196.722 26.5071 196.777 25.903L194.785 25.722ZM195.75 28.6321L199.171 27.8665L198.735 25.9148L195.313 26.6804L195.75 28.6321ZM199.945 27.0139L200.242 24.6232L198.258 24.3768L197.961 26.7674L199.945 27.0139ZM200.246 24.5866L200.277 24.2273L198.285 24.054L198.254 24.4134L200.246 24.5866ZM197.172 31.25C197.172 30.25 197.172 30.25 197.172 30.25H197.172H197.172H197.172C197.172 30.25 197.172 30.25 197.172 30.25C197.172 30.25 197.172 30.25 197.172 30.25C197.172 30.25 197.172 30.25 197.172 30.25C197.172 30.25 197.172 30.25 197.172 30.25C197.172 30.25 197.172 30.25 197.172 30.25C197.172 30.25 197.172 30.25 197.172 30.25C197.172 30.25 197.172 30.25 197.171 30.25C197.171 30.25 197.171 30.25 197.171 30.25C197.171 30.25 197.171 30.25 197.171 30.25C197.171 30.25 197.171 30.25 197.171 30.25C197.171 30.25 197.171 30.25 197.171 30.25C197.171 30.25 197.171 30.25 197.171 30.25C197.171 30.25 197.171 30.25 197.171 30.25C197.171 30.25 197.171 30.25 197.171 30.25C197.171 30.25 197.171 30.25 197.171 30.25C197.171 30.25 197.171 30.25 197.171 30.25C197.171 30.25 197.17 30.25 197.17 30.25C197.17 30.25 197.17 30.25 197.17 30.25C197.17 30.25 197.17 30.25 197.17 30.25C197.17 30.25 197.17 30.25 197.17 30.25C197.17 30.25 197.17 30.25 197.17 30.25C197.17 30.25 197.17 30.25 197.17 30.25C197.17 30.25 197.17 30.25 197.169 30.25C197.169 30.25 197.169 30.25 197.169 30.25C197.169 30.25 197.169 30.25 197.169 30.25C197.169 30.25 197.169 30.25 197.169 30.25C197.169 30.25 197.169 30.25 197.169 30.25C197.169 30.25 197.169 30.25 197.169 30.25C197.168 30.25 197.168 30.25 197.168 30.25C197.168 30.25 197.168 30.25 197.168 30.25C197.168 30.25 197.168 30.25 197.168 30.25C197.168 30.25 197.168 30.25 197.168 30.25C197.168 30.25 197.167 30.25 197.167 30.25C197.167 30.25 197.167 30.25 197.167 30.25C197.167 30.25 197.167 30.25 197.167 30.25C197.167 30.25 197.167 30.25 197.167 30.25C197.167 30.25 197.166 30.25 197.166 30.25C197.166 30.25 197.166 30.25 197.166 30.25C197.166 30.25 197.166 30.25 197.166 30.25C197.166 30.25 197.166 30.25 197.166 30.25C197.165 30.25 197.165 30.25 197.165 30.25C197.165 30.25 197.165 30.25 197.165 30.25C197.165 30.25 197.165 30.25 197.165 30.25C197.165 30.25 197.164 30.25 197.164 30.25C197.164 30.25 197.164 30.25 197.164 30.25C197.164 30.25 197.164 30.25 197.164 30.25C197.164 30.25 197.163 30.25 197.163 30.25C197.163 30.25 197.163 30.25 197.163 30.25C197.163 30.25 197.163 30.25 197.163 30.25C197.163 30.25 197.162 30.25 197.162 30.25C197.162 30.25 197.162 30.25 197.162 30.25C197.162 30.25 197.162 30.25 197.162 30.25C197.161 30.25 197.161 30.25 197.161 30.25C197.161 30.25 197.161 30.25 197.161 30.25C197.161 30.25 197.161 30.25 197.16 30.25C197.16 30.25 197.16 30.25 197.16 30.25C197.16 30.25 197.16 30.25 197.16 30.25C197.16 30.25 197.159 30.25 197.159 30.25C197.159 30.25 197.159 30.25 197.159 30.25C197.159 30.25 197.159 30.25 197.158 30.25C197.158 30.25 197.158 30.25 197.158 30.25C197.158 30.25 197.158 30.25 197.158 30.25C197.157 30.25 197.157 30.25 197.157 30.25C197.157 30.25 197.157 30.25 197.157 30.25C197.157 30.25 197.156 30.25 197.156 30.25C197.156 30.25 197.156 30.25 197.156 30.25C197.156 30.25 197.156 30.25 197.155 30.25C197.155 30.25 197.155 30.25 197.155 30.25C197.155 30.25 197.155 30.25 197.154 30.25C197.154 30.25 197.154 30.25 197.154 30.25C197.154 30.25 197.154 30.25 197.153 30.25C197.153 30.25 197.153 30.25 197.153 30.25C197.153 30.25 197.153 30.25 197.152 30.25C197.152 30.25 197.152 30.25 197.152 30.25C197.152 30.25 197.152 30.25 197.151 30.25C197.151 30.25 197.151 30.25 197.151 30.25C197.151 30.25 197.151 30.25 197.15 30.25C197.15 30.25 197.15 30.25 197.15 30.25C197.15 30.25 197.149 30.25 197.149 30.25C197.149 30.25 197.149 30.25 197.149 30.25C197.149 30.25 197.148 30.25 197.148 30.25C197.148 30.25 197.148 30.25 197.148 30.25C197.147 30.25 197.147 30.25 197.147 30.25C197.147 30.25 197.147 30.25 197.146 30.25C197.146 30.25 197.146 30.25 197.146 30.25C197.146 30.25 197.146 30.25 197.145 30.25C197.145 30.25 197.145 30.25 197.145 30.25C197.145 30.25 197.144 30.25 197.144 30.25C197.144 30.25 197.144 30.25 197.144 30.25C197.143 30.25 197.143 30.25 197.143 30.25C197.143 30.25 197.143 30.25 197.142 30.25C197.142 30.25 197.142 30.25 197.142 30.25C197.141 30.25 197.141 30.25 197.141 30.25C197.141 30.25 197.141 30.25 197.14 30.25C197.14 30.25 197.14 30.25 197.14 30.25C197.14 30.25 197.139 30.25 197.139 30.25C197.139 30.25 197.139 30.25 197.138 30.25C197.138 30.25 197.138 30.25 197.138 30.25C197.138 30.25 197.137 30.25 197.137 30.25C197.137 30.25 197.137 30.25 197.136 30.25C197.136 30.25 197.136 30.25 197.136 30.25C197.135 30.25 197.135 30.25 197.135 30.25C197.135 30.25 197.135 30.25 197.134 30.25C197.134 30.25 197.134 30.25 197.134 30.25C197.133 30.25 197.133 30.25 197.133 30.25C197.133 30.25 197.132 30.25 197.132 30.25C197.132 30.25 197.132 30.25 197.131 30.25C197.131 30.25 197.131 30.25 197.131 30.25C197.131 30.25 197.13 30.25 197.13 30.25C197.13 30.25 197.13 30.25 197.129 30.25C197.129 30.25 197.129 30.25 197.129 30.25C197.128 30.25 197.128 30.25 197.128 30.25C197.128 30.25 197.127 30.25 197.127 30.25C197.127 30.25 197.126 30.25 197.126 30.25C197.126 30.25 197.126 30.25 197.125 30.25C197.125 30.25 197.125 30.25 197.125 30.25C197.124 30.25 197.124 30.25 197.124 30.25C197.124 30.25 197.123 30.25 197.123 30.25C197.123 30.25 197.123 30.25 197.122 30.25C197.122 30.25 197.122 30.25 197.121 30.25C197.121 30.25 197.121 30.25 197.121 30.25C197.12 30.25 197.12 30.25 197.12 30.25C197.12 30.25 197.119 30.25 197.119 30.25C197.119 30.25 197.118 30.25 197.118 30.25C197.118 30.25 197.118 30.25 197.117 30.25C197.117 30.25 197.117 30.25 197.116 30.25C197.116 30.25 197.116 30.25 197.116 30.25C197.115 30.25 197.115 30.25 197.115 30.25C197.114 30.25 197.114 30.25 197.114 30.25C197.114 30.25 197.113 30.25 197.113 30.25C197.113 30.25 197.112 30.25 197.112 30.25C197.112 30.25 197.112 30.25 197.111 30.25C197.111 30.25 197.111 30.25 197.11 30.25C197.11 30.25 197.11 30.25 197.109 30.25C197.109 30.25 197.109 30.25 197.109 30.25C197.108 30.25 197.108 30.25 197.108 30.25C197.107 30.25 197.107 30.25 197.107 30.25C197.106 30.25 197.106 30.25 197.106 30.25C197.105 30.25 197.105 30.25 197.105 30.25C197.105 30.25 197.104 30.25 197.104 30.25C197.104 30.25 197.103 30.25 197.103 30.25C197.103 30.25 197.102 30.25 197.102 30.25C197.102 30.25 197.101 30.25 197.101 30.25C197.101 30.25 197.1 30.25 197.1 30.25C197.1 30.25 197.099 30.25 197.099 30.25C197.099 30.25 197.098 30.25 197.098 30.25C197.098 30.25 197.097 30.25 197.097 30.25C197.097 30.25 197.096 30.25 197.096 30.25C197.096 30.25 197.095 30.25 197.095 30.25C197.095 30.25 197.094 30.25 197.094 30.25C197.094 30.25 197.093 30.25 197.093 30.25C197.093 30.25 197.092 30.25 197.092 30.25C197.092 30.25 197.091 30.25 197.091 30.25C197.091 30.25 197.09 30.25 197.09 30.25C197.09 30.25 197.089 30.25 197.089 30.25C197.089 30.25 197.088 30.25 197.088 30.25C197.088 30.25 197.087 30.25 197.087 30.25C197.087 30.25 197.086 30.25 197.086 30.25C197.085 30.25 197.085 30.25 197.085 30.25C197.084 30.25 197.084 30.25 197.084 30.25C197.083 30.25 197.083 30.25 197.083 30.25C197.082 30.25 197.082 30.25 197.082 30.25C197.081 30.25 197.081 30.25 197.08 30.25C197.08 30.25 197.08 30.25 197.079 30.25C197.079 30.25 197.079 30.25 197.078 30.25C197.078 30.25 197.077 30.25 197.077 30.25C197.077 30.25 197.076 30.25 197.076 30.25C197.076 30.25 197.075 30.25 197.075 30.25C197.075 30.25 197.074 30.25 197.074 30.25C197.073 30.25 197.073 30.25 197.073 30.25C197.072 30.25 197.072 30.25 197.071 30.25C197.071 30.25 197.071 30.25 197.07 30.25C197.07 30.25 197.07 30.25 197.069 30.25C197.069 30.25 197.068 30.25 197.068 30.25C197.068 30.25 197.067 30.25 197.067 30.25C197.066 30.25 197.066 30.25 197.066 30.25C197.065 30.25 197.065 30.25 197.064 30.25C197.064 30.25 197.064 30.25 197.063 30.25C197.063 30.25 197.062 30.25 197.062 30.25C197.062 30.25 197.061 30.25 197.061 30.25C197.06 30.25 197.06 30.25 197.06 30.25C197.059 30.25 197.059 30.25 197.058 30.25C197.058 30.25 197.058 30.25 197.057 30.25C197.057 30.25 197.056 30.25 197.056 30.25C197.056 30.25 197.055 30.25 197.055 30.25C197.054 30.25 197.054 30.25 197.054 30.25C197.053 30.25 197.053 30.25 197.052 30.25C197.052 30.25 197.051 30.25 197.051 30.25C197.051 30.25 197.05 30.25 197.05 30.25C197.049 30.25 197.049 30.25 197.048 30.25C197.048 30.25 197.048 30.25 197.047 30.25C197.047 30.25 197.046 30.25 197.046 30.25C197.046 30.25 197.045 30.25 197.045 30.25C197.044 30.25 197.044 30.25 197.043 30.25C197.043 30.25 197.042 30.25 197.042 30.25C197.042 30.25 197.041 30.25 197.041 30.25C197.04 30.25 197.04 30.25 197.039 30.25C197.039 30.25 197.039 30.25 197.038 30.25C197.038 30.25 197.037 30.25 197.037 30.25C197.036 30.25 197.036 30.25 197.035 30.25C197.035 30.25 197.035 30.25 197.034 30.25C197.034 30.25 197.033 30.25 197.033 30.25C197.032 30.25 197.032 30.25 197.031 30.25C197.031 30.25 197.031 30.25 197.03 30.25C197.03 30.25 197.029 30.25 197.029 30.25C197.028 30.25 197.028 30.25 197.027 30.25C197.027 30.25 197.026 30.25 197.026 30.25C197.025 30.25 197.025 30.25 197.025 30.25C197.024 30.25 197.024 30.25 197.023 30.25C197.023 30.25 197.022 30.25 197.022 30.25C197.021 30.25 197.021 30.25 197.02 30.25C197.02 30.25 197.019 30.25 197.019 30.25C197.018 30.25 197.018 30.25 197.018 30.25C197.017 30.25 197.017 30.25 197.016 30.25C197.016 30.25 197.015 30.25 197.015 30.25C197.014 30.25 197.014 30.25 197.013 30.25C197.013 30.25 197.012 30.25 197.012 30.25C197.011 30.25 197.011 30.25 197.01 30.25C197.01 30.25 197.009 30.25 197.009 30.25C197.008 30.25 197.008 30.25 197.007 30.25C197.007 30.25 197.006 30.25 197.006 30.25C197.005 30.25 197.005 30.25 197.004 30.25C197.004 30.25 197.003 30.25 197.003 30.25C197.002 30.25 197.002 30.25 197.001 30.25C197.001 30.25 197 30.25 197 30.25C196.999 30.25 196.999 30.25 196.998 30.25C196.998 30.25 196.997 30.25 196.997 30.25C196.996 30.25 196.996 30.25 196.995 30.25C196.995 30.25 196.994 30.25 196.994 30.25C196.993 30.25 196.993 30.25 196.992 30.25C196.992 30.25 196.991 30.25 196.991 30.25C196.99 30.25 196.99 30.25 196.989 30.25C196.989 30.25 196.988 30.25 196.988 30.25C196.987 30.25 196.987 30.25 196.986 30.25C196.986 30.25 196.985 30.25 196.985 30.25C196.984 30.25 196.984 30.25 196.983 30.25C196.983 30.25 196.982 30.25 196.981 30.25C196.981 30.25 196.98 30.25 196.98 30.25C196.979 30.25 196.979 30.25 196.978 30.25C196.978 30.25 196.977 30.25 196.977 30.25C196.976 30.25 196.976 30.25 196.975 30.25C196.975 30.25 196.974 30.25 196.973 30.25C196.973 30.25 196.972 30.25 196.972 30.25C196.971 30.25 196.971 30.25 196.97 30.25C196.97 30.25 196.969 30.25 196.969 30.25C196.968 30.25 196.968 30.25 196.967 30.25C196.966 30.25 196.966 30.25 196.965 30.25C196.965 30.25 196.964 30.25 196.964 30.25C196.963 30.25 196.963 30.25 196.962 30.25C196.961 30.25 196.961 30.25 196.96 30.25C196.96 30.25 196.959 30.25 196.959 30.25C196.958 30.25 196.958 30.25 196.957 30.25C196.956 30.25 196.956 30.25 196.955 30.25C196.955 30.25 196.954 30.25 196.954 30.25C196.953 30.25 196.953 30.25 196.952 30.25C196.951 30.25 196.951 30.25 196.95 30.25C196.95 30.25 196.949 30.25 196.949 30.25C196.948 30.25 196.947 30.25 196.947 30.25C196.946 30.25 196.946 30.25 196.945 30.25C196.945 30.25 196.944 30.25 196.943 30.25C196.943 30.25 196.942 30.25 196.942 30.25C196.941 30.25 196.941 30.25 196.94 30.25C196.939 30.25 196.939 30.25 196.938 30.25C196.938 30.25 196.937 30.25 196.936 30.25C196.936 30.25 196.935 30.25 196.935 30.25C196.934 30.25 196.933 30.25 196.933 30.25C196.932 30.25 196.932 30.25 196.931 30.25C196.931 30.25 196.93 30.25 196.929 30.25C196.929 30.25 196.928 30.25 196.928 30.25C196.927 30.25 196.926 30.25 196.926 30.25C196.925 30.25 196.925 30.25 196.924 30.25C196.923 30.25 196.923 30.25 196.922 30.25C196.922 30.25 196.921 30.25 196.92 30.25C196.92 30.25 196.919 30.25 196.919 30.25C196.918 30.25 196.917 30.25 196.917 30.25C196.916 30.25 196.915 30.25 196.915 30.25C196.914 30.25 196.914 30.25 196.913 30.25C196.912 30.25 196.912 30.25 196.911 30.25C196.911 30.25 196.91 30.25 196.909 30.25C196.909 30.25 196.908 30.25 196.907 30.25C196.907 30.25 196.906 30.25 196.906 30.25C196.905 30.25 196.904 30.25 196.904 30.25C196.903 30.25 196.902 30.25 196.902 30.25C196.901 30.25 196.901 30.25 196.9 30.25C196.899 30.25 196.899 30.25 196.898 30.25C196.897 30.25 196.897 30.25 196.896 30.25C196.896 30.25 196.895 30.25 196.894 30.25C196.894 30.25 196.893 30.25 196.892 30.25C196.892 30.25 196.891 30.25 196.89 30.25C196.89 30.25 196.889 30.25 196.889 30.25C196.888 30.25 196.887 30.25 196.887 30.25C196.886 30.25 196.885 30.25 196.885 30.25C196.884 30.25 196.883 30.25 196.883 30.25C196.882 30.25 196.881 30.25 196.881 30.25C196.88 30.25 196.879 30.25 196.879 30.25C196.878 30.25 196.877 30.25 196.877 30.25C196.876 30.25 196.876 30.25 196.875 30.25C196.874 30.25 196.874 30.25 196.873 30.25C196.872 30.25 196.872 30.25 196.871 30.25C196.87 30.25 196.87 30.25 196.869 30.25C196.868 30.25 196.868 30.25 196.867 30.25C196.866 30.25 196.866 30.25 196.865 30.25C196.864 30.25 196.864 30.25 196.863 30.25C196.862 30.25 196.862 30.25 196.861 30.25C196.86 30.25 196.86 30.25 196.859 30.25C196.858 30.25 196.858 30.25 196.857 30.25C196.856 30.25 196.855 30.25 196.855 30.25C196.854 30.25 196.853 30.25 196.853 30.25C196.852 30.25 196.851 30.25 196.851 30.25C196.85 30.25 196.849 30.25 196.849 30.25C196.848 30.25 196.847 30.25 196.847 30.25C196.846 30.25 196.845 30.25 196.845 30.25C196.844 30.25 196.843 30.25 196.842 30.25C196.842 30.25 196.841 30.25 196.84 30.25C196.84 30.25 196.839 30.25 196.838 30.25C196.838 30.25 196.837 30.25 196.836 30.25C196.835 30.25 196.835 30.25 196.834 30.25C196.833 30.25 196.833 30.25 196.832 30.25C196.831 30.25 196.831 30.25 196.83 30.25C196.829 30.25 196.828 30.25 196.828 30.25C196.827 30.25 196.826 30.25 196.826 30.25C196.825 30.25 196.824 30.25 196.823 30.25C196.823 30.25 196.822 30.25 196.821 30.25C196.821 30.25 196.82 30.25 196.819 30.25C196.818 30.25 196.818 30.25 196.817 30.25C196.816 30.25 196.816 30.25 196.815 30.25C196.814 30.25 196.813 30.25 196.813 30.25C196.812 30.25 196.811 30.25 196.811 30.25C196.81 30.25 196.809 30.25 196.808 30.25C196.808 30.25 196.807 30.25 196.806 30.25C196.805 30.25 196.805 30.25 196.804 30.25C196.803 30.25 196.803 30.25 196.802 30.25C196.801 30.25 196.8 30.25 196.8 30.25C196.799 30.25 196.798 30.25 196.797 30.25C196.797 30.25 196.796 30.25 196.795 30.25C196.794 30.25 196.794 30.25 196.793 30.25C196.792 30.25 196.791 30.25 196.791 30.25C196.79 30.25 196.789 30.25 196.788 30.25C196.788 30.25 196.787 30.25 196.786 30.25C196.785 30.25 196.785 30.25 196.784 30.25C196.783 30.25 196.782 30.25 196.782 30.25C196.781 30.25 196.78 30.25 196.779 30.25C196.779 30.25 196.778 30.25 196.777 30.25C196.776 30.25 196.776 30.25 196.775 30.25C196.774 30.25 196.773 30.25 196.773 30.25C196.772 30.25 196.771 30.25 196.77 30.25C196.77 30.25 196.769 30.25 196.768 30.25C196.767 30.25 196.766 30.25 196.766 30.25C196.765 30.25 196.764 30.25 196.763 30.25C196.763 30.25 196.762 30.25 196.761 30.25C196.76 30.25 196.76 30.25 196.759 30.25C196.758 30.25 196.757 30.25 196.756 30.25C196.756 30.25 196.755 30.25 196.754 30.25C196.753 30.25 196.753 30.25 196.752 30.25C196.751 30.25 196.75 30.25 196.749 30.25C196.749 30.25 196.748 30.25 196.747 30.25C196.746 30.25 196.745 30.25 196.745 30.25C196.744 30.25 196.743 30.25 196.742 30.25C196.741 30.25 196.741 30.25 196.74 30.25C196.739 30.25 196.738 30.25 196.738 30.25C196.737 30.25 196.736 30.25 196.735 30.25C196.734 30.25 196.734 30.25 196.733 30.25C196.732 30.25 196.731 30.25 196.73 30.25C196.73 30.25 196.729 30.25 196.728 30.25C196.727 30.25 196.726 30.25 196.726 30.25C196.725 30.25 196.724 30.25 196.723 30.25C196.722 30.25 196.721 30.25 196.721 30.25C196.72 30.25 196.719 30.25 196.718 30.25C196.717 30.25 196.717 30.25 196.716 30.25C196.715 30.25 196.714 30.25 196.713 30.25C196.713 30.25 196.712 30.25 196.711 30.25C196.71 30.25 196.709 30.25 196.708 30.25C196.708 30.25 196.707 30.25 196.706 30.25C196.705 30.25 196.704 30.25 196.703 30.25C196.703 30.25 196.702 30.25 196.701 30.25C196.7 30.25 196.699 30.25 196.699 30.25C196.698 30.25 196.697 30.25 196.696 30.25C196.695 30.25 196.694 30.25 196.693 30.25C196.693 30.25 196.692 30.25 196.691 30.25C196.69 30.25 196.689 30.25 196.688 30.25C196.688 30.25 196.687 30.25 196.686 30.25C196.685 30.25 196.684 30.25 196.683 30.25C196.683 30.25 196.682 30.25 196.681 30.25C196.68 30.25 196.679 30.25 196.678 30.25C196.678 30.25 196.677 30.25 196.676 30.25C196.675 30.25 196.674 30.25 196.673 30.25C196.672 30.25 196.672 30.25 196.671 30.25C196.67 30.25 196.669 30.25 196.668 30.25C196.667 30.25 196.666 30.25 196.666 30.25C196.665 30.25 196.664 30.25 196.663 30.25C196.662 30.25 196.661 30.25 196.66 30.25C196.66 30.25 196.659 30.25 196.658 30.25C196.657 30.25 196.656 30.25 196.655 30.25C196.654 30.25 196.653 30.25 196.653 30.25C196.652 30.25 196.651 30.25 196.65 30.25C196.649 30.25 196.648 30.25 196.647 30.25C196.646 30.25 196.646 30.25 196.645 30.25C196.644 30.25 196.643 30.25 196.642 30.25C196.641 30.25 196.64 30.25 196.639 30.25C196.639 30.25 196.638 30.25 196.637 30.25C196.636 30.25 196.635 30.25 196.634 30.25C196.633 30.25 196.632 30.25 196.632 30.25C196.631 30.25 196.63 30.25 196.629 30.25C196.628 30.25 196.627 30.25 196.626 30.25C196.625 30.25 196.624 30.25 196.623 30.25C196.623 30.25 196.622 30.25 196.621 30.25C196.62 30.25 196.619 30.25 196.618 30.25C196.617 30.25 196.616 30.25 196.615 30.25C196.615 30.25 196.614 30.25 196.613 30.25C196.612 30.25 196.611 30.25 196.61 30.25C196.609 30.25 196.608 30.25 196.607 30.25C196.606 30.25 196.605 30.25 196.605 30.25C196.604 30.25 196.603 30.25 196.602 30.25C196.601 30.25 196.6 30.25 196.599 30.25C196.598 30.25 196.597 30.25 196.596 30.25C196.595 30.25 196.595 30.25 196.594 30.25C196.593 30.25 196.592 30.25 196.591 30.25C196.59 30.25 196.589 30.25 196.588 30.25C196.587 30.25 196.586 30.25 196.585 30.25C196.584 30.25 196.583 30.25 196.583 30.25C196.582 30.25 196.581 30.25 196.58 30.25C196.579 30.25 196.578 30.25 196.577 30.25C196.576 30.25 196.575 30.25 196.574 30.25C196.573 30.25 196.572 30.25 196.571 30.25C196.57 30.25 196.569 30.25 196.569 30.25C196.568 30.25 196.567 30.25 196.566 30.25C196.565 30.25 196.564 30.25 196.563 30.25C196.562 30.25 196.561 30.25 196.56 30.25C196.559 30.25 196.558 30.25 196.557 30.25C196.556 30.25 196.555 30.25 196.554 30.25C196.553 30.25 196.552 30.25 196.552 30.25C196.551 30.25 196.55 30.25 196.549 30.25C196.548 30.25 196.547 30.25 196.546 30.25C196.545 30.25 196.544 30.25 196.543 30.25C196.542 30.25 196.541 30.25 196.54 30.25C196.539 30.25 196.538 30.25 196.537 30.25C196.536 30.25 196.535 30.25 196.534 30.25C196.533 30.25 196.532 30.25 196.531 30.25C196.53 30.25 196.529 30.25 196.529 30.25C196.528 30.25 196.527 30.25 196.526 30.25C196.525 30.25 196.524 30.25 196.523 30.25C196.522 30.25 196.521 30.25 196.52 30.25C196.519 30.25 196.518 30.25 196.517 30.25C196.516 30.25 196.515 30.25 196.514 30.25C196.513 30.25 196.512 30.25 196.511 30.25C196.51 30.25 196.509 30.25 196.508 30.25C196.507 30.25 196.506 30.25 196.505 30.25C196.504 30.25 196.503 30.25 196.502 30.25C196.501 30.25 196.5 30.25 196.499 30.25C196.498 30.25 196.497 30.25 196.496 30.25C196.495 30.25 196.494 30.25 196.493 30.25C196.492 30.25 196.491 30.25 196.49 30.25C196.489 30.25 196.488 30.25 196.487 30.25C196.486 30.25 196.485 30.25 196.484 30.25C196.483 30.25 196.482 30.25 196.481 30.25C196.48 30.25 196.479 30.25 196.478 30.25C196.477 30.25 196.476 30.25 196.475 30.25C196.474 30.25 196.473 30.25 196.472 30.25C196.471 30.25 196.47 30.25 196.469 30.25C196.468 30.25 196.467 30.25 196.466 30.25C196.465 30.25 196.464 30.25 196.463 30.25C196.462 30.25 196.461 30.25 196.46 30.25C196.459 30.25 196.458 30.25 196.457 30.25C196.456 30.25 196.455 30.25 196.454 30.25C196.453 30.25 196.452 30.25 196.451 30.25C196.45 30.25 196.449 30.25 196.448 30.25C196.447 30.25 196.446 30.25 196.445 30.25C196.444 30.25 196.443 30.25 196.442 30.25C196.441 30.25 196.439 30.25 196.438 30.25C196.437 30.25 196.436 30.25 196.435 30.25C196.434 30.25 196.433 30.25 196.432 30.25C196.431 30.25 196.43 30.25 196.429 30.25C196.428 30.25 196.427 30.25 196.426 30.25C196.425 30.25 196.424 30.25 196.423 30.25C196.422 30.25 196.421 30.25 196.42 30.25C196.419 30.25 196.418 30.25 196.417 30.25C196.416 30.25 196.414 30.25 196.413 30.25C196.412 30.25 196.411 30.25 196.41 30.25C196.409 30.25 196.408 30.25 196.407 30.25C196.406 30.25 196.405 30.25 196.404 30.25C196.403 30.25 196.402 30.25 196.401 30.25C196.4 30.25 196.399 30.25 196.398 30.25C196.396 30.25 196.395 30.25 196.394 30.25C196.393 30.25 196.392 30.25 196.391 30.25C196.39 30.25 196.389 30.25 196.388 30.25C196.387 30.25 196.386 30.25 196.385 30.25C196.384 30.25 196.383 30.25 196.382 30.25C196.38 30.25 196.379 30.25 196.378 30.25C196.377 30.25 196.376 30.25 196.375 30.25C196.374 30.25 196.373 30.25 196.372 30.25C196.371 30.25 196.37 30.25 196.369 30.25C196.368 30.25 196.366 30.25 196.365 30.25C196.364 30.25 196.363 30.25 196.362 30.25C196.361 30.25 196.36 30.25 196.359 30.25C196.358 30.25 196.357 30.25 196.356 30.25C196.354 30.25 196.353 30.25 196.352 30.25C196.351 30.25 196.35 30.25 196.349 30.25C196.348 30.25 196.347 30.25 196.346 30.25C196.345 30.25 196.344 30.25 196.342 30.25C196.341 30.25 196.34 30.25 196.339 30.25C196.338 30.25 196.337 30.25 196.336 30.25C196.335 30.25 196.334 30.25 196.333 30.25C196.331 30.25 196.33 30.25 196.329 30.25C196.328 30.25 196.327 30.25 196.326 30.25C196.325 30.25 196.324 30.25 196.323 30.25C196.321 30.25 196.32 30.25 196.319 30.25C196.318 30.25 196.317 30.25 196.316 30.25C196.315 30.25 196.314 30.25 196.312 30.25V32.25C196.314 32.25 196.315 32.25 196.316 32.25C196.317 32.25 196.318 32.25 196.319 32.25C196.32 32.25 196.321 32.25 196.323 32.25C196.324 32.25 196.325 32.25 196.326 32.25C196.327 32.25 196.328 32.25 196.329 32.25C196.33 32.25 196.331 32.25 196.333 32.25C196.334 32.25 196.335 32.25 196.336 32.25C196.337 32.25 196.338 32.25 196.339 32.25C196.34 32.25 196.341 32.25 196.342 32.25C196.344 32.25 196.345 32.25 196.346 32.25C196.347 32.25 196.348 32.25 196.349 32.25C196.35 32.25 196.351 32.25 196.352 32.25C196.353 32.25 196.354 32.25 196.356 32.25C196.357 32.25 196.358 32.25 196.359 32.25C196.36 32.25 196.361 32.25 196.362 32.25C196.363 32.25 196.364 32.25 196.365 32.25C196.366 32.25 196.368 32.25 196.369 32.25C196.37 32.25 196.371 32.25 196.372 32.25C196.373 32.25 196.374 32.25 196.375 32.25C196.376 32.25 196.377 32.25 196.378 32.25C196.379 32.25 196.38 32.25 196.382 32.25C196.383 32.25 196.384 32.25 196.385 32.25C196.386 32.25 196.387 32.25 196.388 32.25C196.389 32.25 196.39 32.25 196.391 32.25C196.392 32.25 196.393 32.25 196.394 32.25C196.395 32.25 196.396 32.25 196.398 32.25C196.399 32.25 196.4 32.25 196.401 32.25C196.402 32.25 196.403 32.25 196.404 32.25C196.405 32.25 196.406 32.25 196.407 32.25C196.408 32.25 196.409 32.25 196.41 32.25C196.411 32.25 196.412 32.25 196.413 32.25C196.414 32.25 196.416 32.25 196.417 32.25C196.418 32.25 196.419 32.25 196.42 32.25C196.421 32.25 196.422 32.25 196.423 32.25C196.424 32.25 196.425 32.25 196.426 32.25C196.427 32.25 196.428 32.25 196.429 32.25C196.43 32.25 196.431 32.25 196.432 32.25C196.433 32.25 196.434 32.25 196.435 32.25C196.436 32.25 196.437 32.25 196.438 32.25C196.439 32.25 196.441 32.25 196.442 32.25C196.443 32.25 196.444 32.25 196.445 32.25C196.446 32.25 196.447 32.25 196.448 32.25C196.449 32.25 196.45 32.25 196.451 32.25C196.452 32.25 196.453 32.25 196.454 32.25C196.455 32.25 196.456 32.25 196.457 32.25C196.458 32.25 196.459 32.25 196.46 32.25C196.461 32.25 196.462 32.25 196.463 32.25C196.464 32.25 196.465 32.25 196.466 32.25C196.467 32.25 196.468 32.25 196.469 32.25C196.47 32.25 196.471 32.25 196.472 32.25C196.473 32.25 196.474 32.25 196.475 32.25C196.476 32.25 196.477 32.25 196.478 32.25C196.479 32.25 196.48 32.25 196.481 32.25C196.482 32.25 196.483 32.25 196.484 32.25C196.485 32.25 196.486 32.25 196.487 32.25C196.488 32.25 196.489 32.25 196.49 32.25C196.491 32.25 196.492 32.25 196.493 32.25C196.494 32.25 196.495 32.25 196.496 32.25C196.497 32.25 196.498 32.25 196.499 32.25C196.5 32.25 196.501 32.25 196.502 32.25C196.503 32.25 196.504 32.25 196.505 32.25C196.506 32.25 196.507 32.25 196.508 32.25C196.509 32.25 196.51 32.25 196.511 32.25C196.512 32.25 196.513 32.25 196.514 32.25C196.515 32.25 196.516 32.25 196.517 32.25C196.518 32.25 196.519 32.25 196.52 32.25C196.521 32.25 196.522 32.25 196.523 32.25C196.524 32.25 196.525 32.25 196.526 32.25C196.527 32.25 196.528 32.25 196.529 32.25C196.529 32.25 196.53 32.25 196.531 32.25C196.532 32.25 196.533 32.25 196.534 32.25C196.535 32.25 196.536 32.25 196.537 32.25C196.538 32.25 196.539 32.25 196.54 32.25C196.541 32.25 196.542 32.25 196.543 32.25C196.544 32.25 196.545 32.25 196.546 32.25C196.547 32.25 196.548 32.25 196.549 32.25C196.55 32.25 196.551 32.25 196.552 32.25C196.552 32.25 196.553 32.25 196.554 32.25C196.555 32.25 196.556 32.25 196.557 32.25C196.558 32.25 196.559 32.25 196.56 32.25C196.561 32.25 196.562 32.25 196.563 32.25C196.564 32.25 196.565 32.25 196.566 32.25C196.567 32.25 196.568 32.25 196.569 32.25C196.569 32.25 196.57 32.25 196.571 32.25C196.572 32.25 196.573 32.25 196.574 32.25C196.575 32.25 196.576 32.25 196.577 32.25C196.578 32.25 196.579 32.25 196.58 32.25C196.581 32.25 196.582 32.25 196.583 32.25C196.583 32.25 196.584 32.25 196.585 32.25C196.586 32.25 196.587 32.25 196.588 32.25C196.589 32.25 196.59 32.25 196.591 32.25C196.592 32.25 196.593 32.25 196.594 32.25C196.595 32.25 196.595 32.25 196.596 32.25C196.597 32.25 196.598 32.25 196.599 32.25C196.6 32.25 196.601 32.25 196.602 32.25C196.603 32.25 196.604 32.25 196.605 32.25C196.605 32.25 196.606 32.25 196.607 32.25C196.608 32.25 196.609 32.25 196.61 32.25C196.611 32.25 196.612 32.25 196.613 32.25C196.614 32.25 196.615 32.25 196.615 32.25C196.616 32.25 196.617 32.25 196.618 32.25C196.619 32.25 196.62 32.25 196.621 32.25C196.622 32.25 196.623 32.25 196.623 32.25C196.624 32.25 196.625 32.25 196.626 32.25C196.627 32.25 196.628 32.25 196.629 32.25C196.63 32.25 196.631 32.25 196.632 32.25C196.632 32.25 196.633 32.25 196.634 32.25C196.635 32.25 196.636 32.25 196.637 32.25C196.638 32.25 196.639 32.25 196.639 32.25C196.64 32.25 196.641 32.25 196.642 32.25C196.643 32.25 196.644 32.25 196.645 32.25C196.646 32.25 196.646 32.25 196.647 32.25C196.648 32.25 196.649 32.25 196.65 32.25C196.651 32.25 196.652 32.25 196.653 32.25C196.653 32.25 196.654 32.25 196.655 32.25C196.656 32.25 196.657 32.25 196.658 32.25C196.659 32.25 196.66 32.25 196.66 32.25C196.661 32.25 196.662 32.25 196.663 32.25C196.664 32.25 196.665 32.25 196.666 32.25C196.666 32.25 196.667 32.25 196.668 32.25C196.669 32.25 196.67 32.25 196.671 32.25C196.672 32.25 196.672 32.25 196.673 32.25C196.674 32.25 196.675 32.25 196.676 32.25C196.677 32.25 196.678 32.25 196.678 32.25C196.679 32.25 196.68 32.25 196.681 32.25C196.682 32.25 196.683 32.25 196.683 32.25C196.684 32.25 196.685 32.25 196.686 32.25C196.687 32.25 196.688 32.25 196.688 32.25C196.689 32.25 196.69 32.25 196.691 32.25C196.692 32.25 196.693 32.25 196.693 32.25C196.694 32.25 196.695 32.25 196.696 32.25C196.697 32.25 196.698 32.25 196.699 32.25C196.699 32.25 196.7 32.25 196.701 32.25C196.702 32.25 196.703 32.25 196.703 32.25C196.704 32.25 196.705 32.25 196.706 32.25C196.707 32.25 196.708 32.25 196.708 32.25C196.709 32.25 196.71 32.25 196.711 32.25C196.712 32.25 196.713 32.25 196.713 32.25C196.714 32.25 196.715 32.25 196.716 32.25C196.717 32.25 196.717 32.25 196.718 32.25C196.719 32.25 196.72 32.25 196.721 32.25C196.721 32.25 196.722 32.25 196.723 32.25C196.724 32.25 196.725 32.25 196.726 32.25C196.726 32.25 196.727 32.25 196.728 32.25C196.729 32.25 196.73 32.25 196.73 32.25C196.731 32.25 196.732 32.25 196.733 32.25C196.734 32.25 196.734 32.25 196.735 32.25C196.736 32.25 196.737 32.25 196.738 32.25C196.738 32.25 196.739 32.25 196.74 32.25C196.741 32.25 196.741 32.25 196.742 32.25C196.743 32.25 196.744 32.25 196.745 32.25C196.745 32.25 196.746 32.25 196.747 32.25C196.748 32.25 196.749 32.25 196.749 32.25C196.75 32.25 196.751 32.25 196.752 32.25C196.753 32.25 196.753 32.25 196.754 32.25C196.755 32.25 196.756 32.25 196.756 32.25C196.757 32.25 196.758 32.25 196.759 32.25C196.76 32.25 196.76 32.25 196.761 32.25C196.762 32.25 196.763 32.25 196.763 32.25C196.764 32.25 196.765 32.25 196.766 32.25C196.766 32.25 196.767 32.25 196.768 32.25C196.769 32.25 196.77 32.25 196.77 32.25C196.771 32.25 196.772 32.25 196.773 32.25C196.773 32.25 196.774 32.25 196.775 32.25C196.776 32.25 196.776 32.25 196.777 32.25C196.778 32.25 196.779 32.25 196.779 32.25C196.78 32.25 196.781 32.25 196.782 32.25C196.782 32.25 196.783 32.25 196.784 32.25C196.785 32.25 196.785 32.25 196.786 32.25C196.787 32.25 196.788 32.25 196.788 32.25C196.789 32.25 196.79 32.25 196.791 32.25C196.791 32.25 196.792 32.25 196.793 32.25C196.794 32.25 196.794 32.25 196.795 32.25C196.796 32.25 196.797 32.25 196.797 32.25C196.798 32.25 196.799 32.25 196.8 32.25C196.8 32.25 196.801 32.25 196.802 32.25C196.803 32.25 196.803 32.25 196.804 32.25C196.805 32.25 196.805 32.25 196.806 32.25C196.807 32.25 196.808 32.25 196.808 32.25C196.809 32.25 196.81 32.25 196.811 32.25C196.811 32.25 196.812 32.25 196.813 32.25C196.813 32.25 196.814 32.25 196.815 32.25C196.816 32.25 196.816 32.25 196.817 32.25C196.818 32.25 196.818 32.25 196.819 32.25C196.82 32.25 196.821 32.25 196.821 32.25C196.822 32.25 196.823 32.25 196.823 32.25C196.824 32.25 196.825 32.25 196.826 32.25C196.826 32.25 196.827 32.25 196.828 32.25C196.828 32.25 196.829 32.25 196.83 32.25C196.831 32.25 196.831 32.25 196.832 32.25C196.833 32.25 196.833 32.25 196.834 32.25C196.835 32.25 196.835 32.25 196.836 32.25C196.837 32.25 196.838 32.25 196.838 32.25C196.839 32.25 196.84 32.25 196.84 32.25C196.841 32.25 196.842 32.25 196.842 32.25C196.843 32.25 196.844 32.25 196.845 32.25C196.845 32.25 196.846 32.25 196.847 32.25C196.847 32.25 196.848 32.25 196.849 32.25C196.849 32.25 196.85 32.25 196.851 32.25C196.851 32.25 196.852 32.25 196.853 32.25C196.853 32.25 196.854 32.25 196.855 32.25C196.855 32.25 196.856 32.25 196.857 32.25C196.858 32.25 196.858 32.25 196.859 32.25C196.86 32.25 196.86 32.25 196.861 32.25C196.862 32.25 196.862 32.25 196.863 32.25C196.864 32.25 196.864 32.25 196.865 32.25C196.866 32.25 196.866 32.25 196.867 32.25C196.868 32.25 196.868 32.25 196.869 32.25C196.87 32.25 196.87 32.25 196.871 32.25C196.872 32.25 196.872 32.25 196.873 32.25C196.874 32.25 196.874 32.25 196.875 32.25C196.876 32.25 196.876 32.25 196.877 32.25C196.877 32.25 196.878 32.25 196.879 32.25C196.879 32.25 196.88 32.25 196.881 32.25C196.881 32.25 196.882 32.25 196.883 32.25C196.883 32.25 196.884 32.25 196.885 32.25C196.885 32.25 196.886 32.25 196.887 32.25C196.887 32.25 196.888 32.25 196.889 32.25C196.889 32.25 196.89 32.25 196.89 32.25C196.891 32.25 196.892 32.25 196.892 32.25C196.893 32.25 196.894 32.25 196.894 32.25C196.895 32.25 196.896 32.25 196.896 32.25C196.897 32.25 196.897 32.25 196.898 32.25C196.899 32.25 196.899 32.25 196.9 32.25C196.901 32.25 196.901 32.25 196.902 32.25C196.902 32.25 196.903 32.25 196.904 32.25C196.904 32.25 196.905 32.25 196.906 32.25C196.906 32.25 196.907 32.25 196.907 32.25C196.908 32.25 196.909 32.25 196.909 32.25C196.91 32.25 196.911 32.25 196.911 32.25C196.912 32.25 196.912 32.25 196.913 32.25C196.914 32.25 196.914 32.25 196.915 32.25C196.915 32.25 196.916 32.25 196.917 32.25C196.917 32.25 196.918 32.25 196.919 32.25C196.919 32.25 196.92 32.25 196.92 32.25C196.921 32.25 196.922 32.25 196.922 32.25C196.923 32.25 196.923 32.25 196.924 32.25C196.925 32.25 196.925 32.25 196.926 32.25C196.926 32.25 196.927 32.25 196.928 32.25C196.928 32.25 196.929 32.25 196.929 32.25C196.93 32.25 196.931 32.25 196.931 32.25C196.932 32.25 196.932 32.25 196.933 32.25C196.933 32.25 196.934 32.25 196.935 32.25C196.935 32.25 196.936 32.25 196.936 32.25C196.937 32.25 196.938 32.25 196.938 32.25C196.939 32.25 196.939 32.25 196.94 32.25C196.941 32.25 196.941 32.25 196.942 32.25C196.942 32.25 196.943 32.25 196.943 32.25C196.944 32.25 196.945 32.25 196.945 32.25C196.946 32.25 196.946 32.25 196.947 32.25C196.947 32.25 196.948 32.25 196.949 32.25C196.949 32.25 196.95 32.25 196.95 32.25C196.951 32.25 196.951 32.25 196.952 32.25C196.953 32.25 196.953 32.25 196.954 32.25C196.954 32.25 196.955 32.25 196.955 32.25C196.956 32.25 196.956 32.25 196.957 32.25C196.958 32.25 196.958 32.25 196.959 32.25C196.959 32.25 196.96 32.25 196.96 32.25C196.961 32.25 196.961 32.25 196.962 32.25C196.963 32.25 196.963 32.25 196.964 32.25C196.964 32.25 196.965 32.25 196.965 32.25C196.966 32.25 196.966 32.25 196.967 32.25C196.968 32.25 196.968 32.25 196.969 32.25C196.969 32.25 196.97 32.25 196.97 32.25C196.971 32.25 196.971 32.25 196.972 32.25C196.972 32.25 196.973 32.25 196.973 32.25C196.974 32.25 196.975 32.25 196.975 32.25C196.976 32.25 196.976 32.25 196.977 32.25C196.977 32.25 196.978 32.25 196.978 32.25C196.979 32.25 196.979 32.25 196.98 32.25C196.98 32.25 196.981 32.25 196.981 32.25C196.982 32.25 196.983 32.25 196.983 32.25C196.984 32.25 196.984 32.25 196.985 32.25C196.985 32.25 196.986 32.25 196.986 32.25C196.987 32.25 196.987 32.25 196.988 32.25C196.988 32.25 196.989 32.25 196.989 32.25C196.99 32.25 196.99 32.25 196.991 32.25C196.991 32.25 196.992 32.25 196.992 32.25C196.993 32.25 196.993 32.25 196.994 32.25C196.994 32.25 196.995 32.25 196.995 32.25C196.996 32.25 196.996 32.25 196.997 32.25C196.997 32.25 196.998 32.25 196.998 32.25C196.999 32.25 196.999 32.25 197 32.25C197 32.25 197.001 32.25 197.001 32.25C197.002 32.25 197.002 32.25 197.003 32.25C197.003 32.25 197.004 32.25 197.004 32.25C197.005 32.25 197.005 32.25 197.006 32.25C197.006 32.25 197.007 32.25 197.007 32.25C197.008 32.25 197.008 32.25 197.009 32.25C197.009 32.25 197.01 32.25 197.01 32.25C197.011 32.25 197.011 32.25 197.012 32.25C197.012 32.25 197.013 32.25 197.013 32.25C197.014 32.25 197.014 32.25 197.015 32.25C197.015 32.25 197.016 32.25 197.016 32.25C197.017 32.25 197.017 32.25 197.018 32.25C197.018 32.25 197.018 32.25 197.019 32.25C197.019 32.25 197.02 32.25 197.02 32.25C197.021 32.25 197.021 32.25 197.022 32.25C197.022 32.25 197.023 32.25 197.023 32.25C197.024 32.25 197.024 32.25 197.025 32.25C197.025 32.25 197.025 32.25 197.026 32.25C197.026 32.25 197.027 32.25 197.027 32.25C197.028 32.25 197.028 32.25 197.029 32.25C197.029 32.25 197.03 32.25 197.03 32.25C197.031 32.25 197.031 32.25 197.031 32.25C197.032 32.25 197.032 32.25 197.033 32.25C197.033 32.25 197.034 32.25 197.034 32.25C197.035 32.25 197.035 32.25 197.035 32.25C197.036 32.25 197.036 32.25 197.037 32.25C197.037 32.25 197.038 32.25 197.038 32.25C197.039 32.25 197.039 32.25 197.039 32.25C197.04 32.25 197.04 32.25 197.041 32.25C197.041 32.25 197.042 32.25 197.042 32.25C197.042 32.25 197.043 32.25 197.043 32.25C197.044 32.25 197.044 32.25 197.045 32.25C197.045 32.25 197.046 32.25 197.046 32.25C197.046 32.25 197.047 32.25 197.047 32.25C197.048 32.25 197.048 32.25 197.048 32.25C197.049 32.25 197.049 32.25 197.05 32.25C197.05 32.25 197.051 32.25 197.051 32.25C197.051 32.25 197.052 32.25 197.052 32.25C197.053 32.25 197.053 32.25 197.054 32.25C197.054 32.25 197.054 32.25 197.055 32.25C197.055 32.25 197.056 32.25 197.056 32.25C197.056 32.25 197.057 32.25 197.057 32.25C197.058 32.25 197.058 32.25 197.058 32.25C197.059 32.25 197.059 32.25 197.06 32.25C197.06 32.25 197.06 32.25 197.061 32.25C197.061 32.25 197.062 32.25 197.062 32.25C197.062 32.25 197.063 32.25 197.063 32.25C197.064 32.25 197.064 32.25 197.064 32.25C197.065 32.25 197.065 32.25 197.066 32.25C197.066 32.25 197.066 32.25 197.067 32.25C197.067 32.25 197.068 32.25 197.068 32.25C197.068 32.25 197.069 32.25 197.069 32.25C197.07 32.25 197.07 32.25 197.07 32.25C197.071 32.25 197.071 32.25 197.071 32.25C197.072 32.25 197.072 32.25 197.073 32.25C197.073 32.25 197.073 32.25 197.074 32.25C197.074 32.25 197.075 32.25 197.075 32.25C197.075 32.25 197.076 32.25 197.076 32.25C197.076 32.25 197.077 32.25 197.077 32.25C197.077 32.25 197.078 32.25 197.078 32.25C197.079 32.25 197.079 32.25 197.079 32.25C197.08 32.25 197.08 32.25 197.08 32.25C197.081 32.25 197.081 32.25 197.082 32.25C197.082 32.25 197.082 32.25 197.083 32.25C197.083 32.25 197.083 32.25 197.084 32.25C197.084 32.25 197.084 32.25 197.085 32.25C197.085 32.25 197.085 32.25 197.086 32.25C197.086 32.25 197.087 32.25 197.087 32.25C197.087 32.25 197.088 32.25 197.088 32.25C197.088 32.25 197.089 32.25 197.089 32.25C197.089 32.25 197.09 32.25 197.09 32.25C197.09 32.25 197.091 32.25 197.091 32.25C197.091 32.25 197.092 32.25 197.092 32.25C197.092 32.25 197.093 32.25 197.093 32.25C197.093 32.25 197.094 32.25 197.094 32.25C197.094 32.25 197.095 32.25 197.095 32.25C197.095 32.25 197.096 32.25 197.096 32.25C197.096 32.25 197.097 32.25 197.097 32.25C197.097 32.25 197.098 32.25 197.098 32.25C197.098 32.25 197.099 32.25 197.099 32.25C197.099 32.25 197.1 32.25 197.1 32.25C197.1 32.25 197.101 32.25 197.101 32.25C197.101 32.25 197.102 32.25 197.102 32.25C197.102 32.25 197.103 32.25 197.103 32.25C197.103 32.25 197.104 32.25 197.104 32.25C197.104 32.25 197.105 32.25 197.105 32.25C197.105 32.25 197.105 32.25 197.106 32.25C197.106 32.25 197.106 32.25 197.107 32.25C197.107 32.25 197.107 32.25 197.108 32.25C197.108 32.25 197.108 32.25 197.109 32.25C197.109 32.25 197.109 32.25 197.109 32.25C197.11 32.25 197.11 32.25 197.11 32.25C197.111 32.25 197.111 32.25 197.111 32.25C197.112 32.25 197.112 32.25 197.112 32.25C197.112 32.25 197.113 32.25 197.113 32.25C197.113 32.25 197.114 32.25 197.114 32.25C197.114 32.25 197.114 32.25 197.115 32.25C197.115 32.25 197.115 32.25 197.116 32.25C197.116 32.25 197.116 32.25 197.116 32.25C197.117 32.25 197.117 32.25 197.117 32.25C197.118 32.25 197.118 32.25 197.118 32.25C197.118 32.25 197.119 32.25 197.119 32.25C197.119 32.25 197.12 32.25 197.12 32.25C197.12 32.25 197.12 32.25 197.121 32.25C197.121 32.25 197.121 32.25 197.121 32.25C197.122 32.25 197.122 32.25 197.122 32.25C197.123 32.25 197.123 32.25 197.123 32.25C197.123 32.25 197.124 32.25 197.124 32.25C197.124 32.25 197.124 32.25 197.125 32.25C197.125 32.25 197.125 32.25 197.125 32.25C197.126 32.25 197.126 32.25 197.126 32.25C197.126 32.25 197.127 32.25 197.127 32.25C197.127 32.25 197.128 32.25 197.128 32.25C197.128 32.25 197.128 32.25 197.129 32.25C197.129 32.25 197.129 32.25 197.129 32.25C197.13 32.25 197.13 32.25 197.13 32.25C197.13 32.25 197.131 32.25 197.131 32.25C197.131 32.25 197.131 32.25 197.131 32.25C197.132 32.25 197.132 32.25 197.132 32.25C197.132 32.25 197.133 32.25 197.133 32.25C197.133 32.25 197.133 32.25 197.134 32.25C197.134 32.25 197.134 32.25 197.134 32.25C197.135 32.25 197.135 32.25 197.135 32.25C197.135 32.25 197.135 32.25 197.136 32.25C197.136 32.25 197.136 32.25 197.136 32.25C197.137 32.25 197.137 32.25 197.137 32.25C197.137 32.25 197.138 32.25 197.138 32.25C197.138 32.25 197.138 32.25 197.138 32.25C197.139 32.25 197.139 32.25 197.139 32.25C197.139 32.25 197.14 32.25 197.14 32.25C197.14 32.25 197.14 32.25 197.14 32.25C197.141 32.25 197.141 32.25 197.141 32.25C197.141 32.25 197.141 32.25 197.142 32.25C197.142 32.25 197.142 32.25 197.142 32.25C197.143 32.25 197.143 32.25 197.143 32.25C197.143 32.25 197.143 32.25 197.144 32.25C197.144 32.25 197.144 32.25 197.144 32.25C197.144 32.25 197.145 32.25 197.145 32.25C197.145 32.25 197.145 32.25 197.145 32.25C197.146 32.25 197.146 32.25 197.146 32.25C197.146 32.25 197.146 32.25 197.146 32.25C197.147 32.25 197.147 32.25 197.147 32.25C197.147 32.25 197.147 32.25 197.148 32.25C197.148 32.25 197.148 32.25 197.148 32.25C197.148 32.25 197.149 32.25 197.149 32.25C197.149 32.25 197.149 32.25 197.149 32.25C197.149 32.25 197.15 32.25 197.15 32.25C197.15 32.25 197.15 32.25 197.15 32.25C197.151 32.25 197.151 32.25 197.151 32.25C197.151 32.25 197.151 32.25 197.151 32.25C197.152 32.25 197.152 32.25 197.152 32.25C197.152 32.25 197.152 32.25 197.152 32.25C197.153 32.25 197.153 32.25 197.153 32.25C197.153 32.25 197.153 32.25 197.153 32.25C197.154 32.25 197.154 32.25 197.154 32.25C197.154 32.25 197.154 32.25 197.154 32.25C197.155 32.25 197.155 32.25 197.155 32.25C197.155 32.25 197.155 32.25 197.155 32.25C197.156 32.25 197.156 32.25 197.156 32.25C197.156 32.25 197.156 32.25 197.156 32.25C197.156 32.25 197.157 32.25 197.157 32.25C197.157 32.25 197.157 32.25 197.157 32.25C197.157 32.25 197.157 32.25 197.158 32.25C197.158 32.25 197.158 32.25 197.158 32.25C197.158 32.25 197.158 32.25 197.158 32.25C197.159 32.25 197.159 32.25 197.159 32.25C197.159 32.25 197.159 32.25 197.159 32.25C197.159 32.25 197.16 32.25 197.16 32.25C197.16 32.25 197.16 32.25 197.16 32.25C197.16 32.25 197.16 32.25 197.16 32.25C197.161 32.25 197.161 32.25 197.161 32.25C197.161 32.25 197.161 32.25 197.161 32.25C197.161 32.25 197.161 32.25 197.162 32.25C197.162 32.25 197.162 32.25 197.162 32.25C197.162 32.25 197.162 32.25 197.162 32.25C197.162 32.25 197.163 32.25 197.163 32.25C197.163 32.25 197.163 32.25 197.163 32.25C197.163 32.25 197.163 32.25 197.163 32.25C197.163 32.25 197.164 32.25 197.164 32.25C197.164 32.25 197.164 32.25 197.164 32.25C197.164 32.25 197.164 32.25 197.164 32.25C197.164 32.25 197.165 32.25 197.165 32.25C197.165 32.25 197.165 32.25 197.165 32.25C197.165 32.25 197.165 32.25 197.165 32.25C197.165 32.25 197.165 32.25 197.166 32.25C197.166 32.25 197.166 32.25 197.166 32.25C197.166 32.25 197.166 32.25 197.166 32.25C197.166 32.25 197.166 32.25 197.166 32.25C197.166 32.25 197.167 32.25 197.167 32.25C197.167 32.25 197.167 32.25 197.167 32.25C197.167 32.25 197.167 32.25 197.167 32.25C197.167 32.25 197.167 32.25 197.167 32.25C197.167 32.25 197.168 32.25 197.168 32.25C197.168 32.25 197.168 32.25 197.168 32.25C197.168 32.25 197.168 32.25 197.168 32.25C197.168 32.25 197.168 32.25 197.168 32.25C197.168 32.25 197.168 32.25 197.169 32.25C197.169 32.25 197.169 32.25 197.169 32.25C197.169 32.25 197.169 32.25 197.169 32.25C197.169 32.25 197.169 32.25 197.169 32.25C197.169 32.25 197.169 32.25 197.169 32.25C197.169 32.25 197.169 32.25 197.169 32.25C197.17 32.25 197.17 32.25 197.17 32.25C197.17 32.25 197.17 32.25 197.17 32.25C197.17 32.25 197.17 32.25 197.17 32.25C197.17 32.25 197.17 32.25 197.17 32.25C197.17 32.25 197.17 32.25 197.17 32.25C197.17 32.25 197.17 32.25 197.17 32.25C197.17 32.25 197.171 32.25 197.171 32.25C197.171 32.25 197.171 32.25 197.171 32.25C197.171 32.25 197.171 32.25 197.171 32.25C197.171 32.25 197.171 32.25 197.171 32.25C197.171 32.25 197.171 32.25 197.171 32.25C197.171 32.25 197.171 32.25 197.171 32.25C197.171 32.25 197.171 32.25 197.171 32.25C197.171 32.25 197.171 32.25 197.171 32.25C197.171 32.25 197.171 32.25 197.171 32.25C197.171 32.25 197.171 32.25 197.171 32.25C197.172 32.25 197.172 32.25 197.172 32.25C197.172 32.25 197.172 32.25 197.172 32.25C197.172 32.25 197.172 32.25 197.172 32.25C197.172 32.25 197.172 32.25 197.172 32.25C197.172 32.25 197.172 32.25 197.172 32.25C197.172 32.25 197.172 32.25 197.172 32.25C197.172 32.25 197.172 32.25 197.172 32.25H197.172H197.172H197.172C197.172 32.25 197.172 32.25 197.172 31.25ZM196.312 30.25C196.067 30.25 195.835 30.2406 195.614 30.2222L195.448 32.2153C195.728 32.2386 196.016 32.25 196.312 32.25V30.25ZM194.531 31.2188C194.531 32.016 194.748 32.7773 195.312 33.3551C195.867 33.9227 196.625 34.1766 197.429 34.2463L197.602 32.2537C197.084 32.2088 196.85 32.0669 196.743 31.9574C196.646 31.8581 196.531 31.6611 196.531 31.2188H194.531ZM197.43 34.2463C197.821 34.2799 198.204 34.2969 198.578 34.2969V32.2969C198.265 32.2969 197.939 32.2826 197.601 32.2537L197.43 34.2463ZM198.578 34.2969C199.602 34.2969 200.818 34.0646 202.198 33.6441L201.615 31.7309C200.328 32.1229 199.325 32.2969 198.578 32.2969V34.2969ZM202.196 33.6447C203.673 33.198 205 32.4684 206.169 31.4603L204.862 29.946C203.906 30.7712 202.827 31.3645 201.617 31.7303L202.196 33.6447ZM204.535 30.8986L205.504 35.758L207.465 35.367L206.496 30.5076L204.535 30.8986ZM205.83 34.8064C203.764 36.5947 200.533 37.5781 195.953 37.5781V39.5781C200.769 39.5781 204.559 38.5512 207.139 36.3186L205.83 34.8064ZM195.953 37.5781C193.465 37.5781 191.375 36.8585 189.63 35.4424L188.37 36.9951C190.5 38.7248 193.046 39.5781 195.953 39.5781V37.5781ZM189.633 35.4443C187.791 33.9397 186.844 31.8602 186.844 29.0781H184.844C184.844 32.3794 186.001 35.0603 188.367 36.9932L189.633 35.4443ZM186.844 29.0781C186.844 26.9694 187.387 25.1037 188.463 23.4521L186.787 22.3604C185.488 24.3546 184.844 26.6035 184.844 29.0781H186.844ZM188.459 23.4585C189.456 21.9533 190.804 20.8083 192.526 20.0184L191.693 18.2004C189.644 19.1396 188.002 20.5258 186.791 22.354L188.459 23.4585ZM192.526 20.0184C194.274 19.217 196.167 18.8125 198.219 18.8125V16.8125C195.895 16.8125 193.716 17.2726 191.693 18.2004L192.526 20.0184ZM198.219 18.8125C200.926 18.8125 202.794 19.4072 203.99 20.4315L205.291 18.9122C203.592 17.4574 201.178 16.8125 198.219 16.8125V18.8125ZM203.993 20.4338C205.239 21.493 205.821 22.7488 205.813 24.2599L207.812 24.2713C207.825 22.1366 206.959 20.3299 205.288 18.9099L203.993 20.4338ZM205.812 24.2656C205.812 25.7191 205.137 27.0747 203.572 28.3496L204.835 29.9004C206.748 28.342 207.812 26.458 207.812 24.2656H205.812ZM203.572 28.3496C202.06 29.5808 199.963 30.25 197.172 30.25V32.25C200.277 32.25 202.867 31.5025 204.835 29.9004L203.572 28.3496ZM224 25.9062V26.9062H225V25.9062H224ZM219.516 28.9375L218.516 28.9208L218.516 28.9292V28.9375H219.516ZM219.516 38V39H220.516V38H219.516ZM210.109 38H209.109V39H210.109V38ZM210.109 18.5781V17.5781H209.109V18.5781H210.109ZM219.516 18.5781H220.516V17.5781H219.516V18.5781ZM219.516 20.6562H218.516V23.977L220.349 21.2084L219.516 20.6562ZM221.484 18.7344L220.967 17.8789L220.962 17.8819L221.484 18.7344ZM224 17.875H225V16.7635L223.895 16.8806L224 17.875ZM224 24.9062C222.788 24.9062 221.609 25.3494 220.479 26.1303L221.615 27.7759C222.505 27.161 223.295 26.9062 224 26.9062V24.9062ZM220.479 26.1303C219.439 26.8483 218.535 27.7659 218.516 28.9208L220.515 28.9542C220.517 28.8591 220.634 28.4537 221.615 27.7759L220.479 26.1303ZM218.516 28.9375V38H220.516V28.9375H218.516ZM219.516 37H210.109V39H219.516V37ZM211.109 38V18.5781H209.109V38H211.109ZM210.109 19.5781H219.516V17.5781H210.109V19.5781ZM218.516 18.5781V20.6562H220.516V18.5781H218.516ZM220.349 21.2084C220.804 20.5217 221.356 19.986 222.007 19.5868L220.962 17.8819C220.05 18.4411 219.29 19.1866 218.682 20.1041L220.349 21.2084ZM222.002 19.5899C222.673 19.1837 223.372 18.9471 224.105 18.8694L223.895 16.8806C222.857 16.9904 221.879 17.3267 220.967 17.8789L222.002 19.5899ZM223 17.875V25.9062H225V17.875H223ZM241.453 36.5938L242.015 37.4211L242.453 37.1235V36.5938H241.453ZM229.766 36.7344L229.093 37.4741L229.096 37.4768L229.766 36.7344ZM227.688 23.5312H228.688V22.5312H227.688V23.5312ZM225.906 23.5312H224.906V24.5312H225.906V23.5312ZM225.906 18.5781V17.5781H224.906V18.5781H225.906ZM227.688 18.5781V19.5781H228.688V18.5781H227.688ZM227.688 13.3281L227.586 12.3333L226.688 12.4249V13.3281H227.688ZM237.031 12.375H238.031V11.2678L236.93 11.3802L237.031 12.375ZM237.031 18.5781H236.031V19.5781H237.031V18.5781ZM241.453 18.5781H242.453V17.5781H241.453V18.5781ZM241.453 23.5312V24.5312H242.453V23.5312H241.453ZM237.031 23.5312V22.5312H236.031V23.5312H237.031ZM238.016 31.6406L237.303 32.3421L237.309 32.3478L237.314 32.3533L238.016 31.6406ZM241.453 32.625H242.453V31.625H241.453V32.625ZM240.891 35.7664C239.064 37.0069 237.159 37.6094 235.156 37.6094V39.6094C237.591 39.6094 239.884 38.8681 242.015 37.4211L240.891 35.7664ZM235.156 37.6094C233.147 37.6094 231.604 37.0465 230.436 35.9919L229.096 37.4768C230.698 38.9222 232.749 39.6094 235.156 39.6094V37.6094ZM230.439 35.9947C229.291 34.9503 228.688 33.5415 228.688 31.6562H226.688C226.688 34.021 227.47 35.9977 229.093 37.4741L230.439 35.9947ZM228.688 31.6562V23.5312H226.688V31.6562H228.688ZM227.688 22.5312H225.906V24.5312H227.688V22.5312ZM226.906 23.5312V18.5781H224.906V23.5312H226.906ZM225.906 19.5781H227.688V17.5781H225.906V19.5781ZM228.688 18.5781V13.3281H226.688V18.5781H228.688ZM227.789 14.323L237.133 13.3698L236.93 11.3802L227.586 12.3333L227.789 14.323ZM236.031 12.375V18.5781H238.031V12.375H236.031ZM237.031 19.5781H241.453V17.5781H237.031V19.5781ZM240.453 18.5781V23.5312H242.453V18.5781H240.453ZM241.453 22.5312H237.031V24.5312H241.453V22.5312ZM236.031 23.5312V28.4375H238.031V23.5312H236.031ZM236.031 28.4375C236.031 30.0239 236.381 31.4058 237.303 32.3421L238.728 30.9391C238.338 30.5421 238.031 29.7886 238.031 28.4375H236.031ZM237.314 32.3533C238.265 33.2896 239.745 33.625 241.453 33.625V31.625C239.911 31.625 239.099 31.3041 238.717 30.928L237.314 32.3533ZM240.453 32.625V36.5938H242.453V32.625H240.453ZM246.484 36.2812L245.8 37.0108L245.805 37.0154L246.484 36.2812ZM244.484 33.3438L243.56 33.7249L243.564 33.7347L244.484 33.3438ZM244.156 25.9688L243.191 25.7061L243.191 25.7073L244.156 25.9688ZM247 20.9531L247.707 21.6602L247.713 21.6546L247.718 21.6489L247 20.9531ZM249.156 19.2656L249.657 20.1311L249.66 20.1294L249.156 19.2656ZM259.062 19.6406L259.724 18.8903L259.722 18.8891L259.062 19.6406ZM260.203 20.9688L259.363 21.5113L260.058 22.588L260.934 21.6516L260.203 20.9688ZM262.438 18.5781V17.5781H262.003L261.707 17.8953L262.438 18.5781ZM267.562 18.5781H268.562V17.5781H267.562V18.5781ZM267.562 38V39H268.562V38H267.562ZM262.438 38L261.615 38.5684L261.913 39H262.438V38ZM260.203 34.7656L261.026 34.1972L260.195 32.9948L259.375 34.2046L260.203 34.7656ZM252.438 38.5625L252.434 37.5625L252.427 37.5626L252.438 38.5625ZM249.359 38L249.692 37.0568L249.686 37.055L249.359 38ZM259.141 24.4688H260.141V23.8944L259.645 23.605L259.141 24.4688ZM256.141 24.7031L256.678 25.5468L256.681 25.5443L256.141 24.7031ZM254.594 26.0938L253.819 25.4621L253.817 25.4644L254.594 26.0938ZM253.906 31.875L253.352 32.7071L253.355 32.7096L253.906 31.875ZM256.281 31.7344L256.662 32.6591L256.667 32.6572L256.281 31.7344ZM259.141 30L259.788 30.7619L260.141 30.4624V30H259.141ZM247.168 35.5517C246.448 34.8764 245.857 34.0171 245.405 32.9528L243.564 33.7347C244.112 35.0245 244.854 36.1236 245.8 37.0108L247.168 35.5517ZM245.409 32.9626C244.972 31.9034 244.75 30.7577 244.75 29.5156H242.75C242.75 31.0027 243.017 32.4091 243.56 33.7249L245.409 32.9626ZM244.75 29.5156C244.75 28.2132 244.88 27.1229 245.121 26.2302L243.191 25.7073C242.891 26.8146 242.75 28.0889 242.75 29.5156H244.75ZM245.121 26.2314C245.621 24.3966 246.486 22.8818 247.707 21.6602L246.293 20.246C244.806 21.7327 243.775 23.5617 243.191 25.7061L245.121 26.2314ZM247.718 21.6489C248.301 21.0476 248.947 20.5425 249.657 20.1311L248.655 18.4002C247.782 18.9055 246.991 19.5253 246.282 20.2573L247.718 21.6489ZM249.66 20.1294C251.139 19.2666 252.68 18.8438 254.297 18.8438V16.8438C252.31 16.8438 250.423 17.3688 248.652 18.4018L249.66 20.1294ZM254.297 18.8438C255.866 18.8438 257.22 19.3541 258.403 20.3921L259.722 18.8891C258.176 17.5314 256.353 16.8438 254.297 16.8438V18.8438ZM258.401 20.391C258.769 20.7144 259.089 21.0868 259.363 21.5113L261.043 20.4262C260.671 19.8507 260.231 19.3377 259.724 18.8903L258.401 20.391ZM260.934 21.6516L263.168 19.261L261.707 17.8953L259.473 20.2859L260.934 21.6516ZM262.438 19.5781H267.562V17.5781H262.438V19.5781ZM266.562 18.5781V38H268.562V18.5781H266.562ZM267.562 37H262.438V39H267.562V37ZM263.26 37.4316L261.026 34.1972L259.38 35.334L261.615 38.5684L263.26 37.4316ZM259.375 34.2046C257.881 36.4103 255.626 37.5529 252.434 37.5625L252.441 39.5625C256.186 39.5512 259.109 38.1626 261.031 35.3266L259.375 34.2046ZM252.427 37.5626C251.607 37.5715 250.698 37.4113 249.692 37.0568L249.027 38.9432C250.209 39.3595 251.352 39.5744 252.448 39.5624L252.427 37.5626ZM249.686 37.055C248.732 36.7248 247.894 36.2232 247.163 35.5471L245.805 37.0154C246.741 37.881 247.82 38.5252 249.032 38.945L249.686 37.055ZM259.645 23.605C259.089 23.2807 258.459 23.1406 257.797 23.1406V25.1406C258.176 25.1406 258.443 25.2193 258.637 25.3325L259.645 23.605ZM257.797 23.1406C257.03 23.1406 256.292 23.4168 255.6 23.8619L256.681 25.5443C257.156 25.2394 257.522 25.1406 257.797 25.1406V23.1406ZM255.604 23.8595C254.935 24.2853 254.34 24.8223 253.819 25.4621L255.369 26.7254C255.764 26.2402 256.201 25.8501 256.677 25.5468L255.604 23.8595ZM253.817 25.4644C252.688 26.858 252.062 28.3545 252.062 29.9375H254.062C254.062 28.9163 254.458 27.8504 255.371 26.7231L253.817 25.4644ZM252.062 29.9375C252.062 31.0575 252.417 32.0841 253.352 32.7071L254.461 31.0429C254.27 30.9159 254.062 30.6509 254.062 29.9375H252.062ZM253.355 32.7096C254.319 33.3456 255.541 33.1206 256.662 32.6591L255.9 30.8097C254.896 31.2232 254.535 31.0919 254.457 31.0404L253.355 32.7096ZM256.667 32.6572C257.829 32.172 258.871 31.5412 259.788 30.7619L258.493 29.2381C257.743 29.8755 256.88 30.4009 255.896 30.8116L256.667 32.6572ZM260.141 30V24.4688H258.141V30H260.141Z" fill="#FEE81F"/>
</svg>
