<svg width="35" height="35" viewBox="0 0 35 35" fill="none" xmlns="http://www.w3.org/2000/svg">
<path d="M17.5 2.91663C14.019 2.91663 10.6806 4.29943 8.21922 6.76085C5.75781 9.22226 4.375 12.5607 4.375 16.0416C4.375 22.1229 8.51667 27.227 14.1312 28.7145L17.5 32.0833L20.8688 28.7145C26.4833 27.227 30.625 22.1229 30.625 16.0416C30.625 12.5607 29.2422 9.22226 26.7808 6.76085C24.3194 4.29943 20.981 2.91663 17.5 2.91663ZM17.5 5.83329C19.9208 5.83329 21.875 7.78746 21.875 10.2083C21.875 12.6291 19.9208 14.5833 17.5 14.5833C15.0792 14.5833 13.125 12.6291 13.125 10.2083C13.125 7.78746 15.0792 5.83329 17.5 5.83329ZM17.5 26.6875C15.7673 26.6875 14.0615 26.2587 12.5348 25.4393C11.008 24.62 9.7078 23.4355 8.75 21.9916C8.79375 19.0895 14.5833 17.5 17.5 17.5C20.4021 17.5 26.2063 19.0895 26.25 21.9916C25.2922 23.4355 23.992 24.62 22.4652 25.4393C20.9385 26.2587 19.2327 26.6875 17.5 26.6875Z" fill="#F8F8F8"/>
</svg>
