<svg width="35" height="35" viewBox="0 0 35 35" fill="none" xmlns="http://www.w3.org/2000/svg">
<path fill-rule="evenodd" clip-rule="evenodd" d="M13.1251 9.11462C12.5985 9.11462 12.077 9.21836 11.5904 9.4199C11.1038 9.62144 10.6617 9.91685 10.2893 10.2892C9.91693 10.6616 9.62153 11.1038 9.41998 11.5903C9.21844 12.0769 9.11471 12.5984 9.11471 13.125C9.11471 13.6517 9.21844 14.1732 9.41998 14.6598C9.62153 15.1463 9.91693 15.5884 10.2893 15.9608C10.6617 16.3332 11.1038 16.6286 11.5904 16.8302C12.077 17.0317 12.5985 17.1355 13.1251 17.1355C14.1888 17.1355 15.2088 16.7129 15.9609 15.9608C16.713 15.2087 17.1355 14.1887 17.1355 13.125C17.1355 12.0614 16.713 11.0413 15.9609 10.2892C15.2088 9.53715 14.1888 9.11462 13.1251 9.11462ZM11.3022 13.125C11.3022 12.6416 11.4943 12.1779 11.8361 11.836C12.178 11.4942 12.6417 11.3021 13.1251 11.3021C13.6086 11.3021 14.0723 11.4942 14.4141 11.836C14.756 12.1779 14.948 12.6416 14.948 13.125C14.948 13.6085 14.756 14.0722 14.4141 14.414C14.0723 14.7559 13.6086 14.948 13.1251 14.948C12.6417 14.948 12.178 14.7559 11.8361 14.414C11.4943 14.0722 11.3022 13.6085 11.3022 13.125ZM13.1251 17.8646C11.381 17.8646 9.74908 18.2146 8.51096 18.8344C7.33992 19.4207 6.19804 20.4327 6.19804 21.875V21.9669C6.19513 22.7107 6.19221 23.9648 7.37929 24.8238C7.93054 25.2219 8.65825 25.4771 9.5595 25.639C10.468 25.8023 11.6333 25.8855 13.1251 25.8855C14.617 25.8855 15.7822 25.8023 16.6908 25.639C17.592 25.4771 18.3197 25.2219 18.871 24.8223C20.058 23.9634 20.0551 22.7107 20.0522 21.9655V21.875C20.0522 20.4313 18.9103 19.4207 17.7393 18.8344C16.5012 18.2161 14.8693 17.8646 13.1251 17.8646ZM8.38554 21.875C8.38554 21.7073 8.55033 21.2611 9.4895 20.7915C10.3645 20.354 11.6478 20.0521 13.1251 20.0521C14.6024 20.0521 15.8872 20.354 16.7608 20.7915C17.6999 21.2611 17.8647 21.7073 17.8647 21.875C17.8647 22.7559 17.8078 22.8915 17.5876 23.0519C17.4097 23.1802 17.0437 23.3523 16.3043 23.4865C15.5722 23.6177 14.5499 23.698 13.1251 23.698C11.7003 23.698 10.678 23.6177 9.94596 23.4865C9.20658 23.3523 8.84054 23.1802 8.66263 23.0519C8.44096 22.8915 8.38554 22.7559 8.38554 21.875Z" fill="white"/>
<path d="M27.7084 18.5938C27.9985 18.5938 28.2767 18.4785 28.4818 18.2734C28.6869 18.0683 28.8022 17.7901 28.8022 17.5C28.8022 17.2099 28.6869 16.9317 28.4818 16.7266C28.2767 16.5215 27.9985 16.4062 27.7084 16.4062H21.8751C21.585 16.4062 21.3068 16.5215 21.1017 16.7266C20.8966 16.9317 20.7813 17.2099 20.7813 17.5C20.7813 17.7901 20.8966 18.0683 21.1017 18.2734C21.3068 18.4785 21.585 18.5938 21.8751 18.5938H27.7084ZM28.8022 13.125C28.8022 13.4151 28.6869 13.6933 28.4818 13.8984C28.2767 14.1035 27.9985 14.2188 27.7084 14.2188H20.4167C20.1267 14.2188 19.8485 14.1035 19.6434 13.8984C19.4382 13.6933 19.323 13.4151 19.323 13.125C19.323 12.8349 19.4382 12.5567 19.6434 12.3516C19.8485 12.1465 20.1267 12.0312 20.4167 12.0312H27.7084C27.9985 12.0312 28.2767 12.1465 28.4818 12.3516C28.6869 12.5567 28.8022 12.8349 28.8022 13.125ZM27.7084 22.9688C27.9985 22.9688 28.2767 22.8535 28.4818 22.6484C28.6869 22.4433 28.8022 22.1651 28.8022 21.875C28.8022 21.5849 28.6869 21.3067 28.4818 21.1016C28.2767 20.8965 27.9985 20.7812 27.7084 20.7812H23.3334C23.0433 20.7812 22.7651 20.8965 22.56 21.1016C22.3549 21.3067 22.2397 21.5849 22.2397 21.875C22.2397 22.1651 22.3549 22.4433 22.56 22.6484C22.7651 22.8535 23.0433 22.9688 23.3334 22.9688H27.7084Z" fill="white"/>
<path fill-rule="evenodd" clip-rule="evenodd" d="M14.5017 4.73962H20.4984C23.1788 4.73962 25.3022 4.73962 26.9632 4.96275C28.6724 5.19317 30.0563 5.67733 31.1486 6.76817C32.2395 7.86046 32.7236 9.24442 32.954 10.9536C33.1772 12.6161 33.1772 14.738 33.1772 17.4184V17.5817C33.1772 20.2621 33.1772 22.3855 32.954 24.0465C32.7236 25.7557 32.2395 27.1396 31.1486 28.2319C30.0563 29.3227 28.6724 29.8069 26.9632 30.0373C25.3007 30.2605 23.1788 30.2605 20.4984 30.2605H14.5017C11.8213 30.2605 9.698 30.2605 8.03696 30.0373C6.32779 29.8069 4.94383 29.3227 3.85154 28.2319C2.76071 27.1396 2.27654 25.7557 2.04612 24.0465C1.823 22.384 1.823 20.2621 1.823 17.5817V17.4184C1.823 14.738 1.823 12.6146 2.04612 10.9536C2.27654 9.24442 2.76071 7.86046 3.85154 6.76817C4.94383 5.67733 6.32779 5.19317 8.03696 4.96275C9.69946 4.73962 11.8213 4.73962 14.5017 4.73962ZM8.32716 7.13129C6.86008 7.32817 6.01425 7.69858 5.39591 8.31546C4.7805 8.93233 4.41008 9.77817 4.21321 11.2452C4.01196 12.7444 4.00904 14.719 4.00904 17.5C4.00904 20.2811 4.01196 22.2557 4.21321 23.7563C4.41008 25.2219 4.7805 26.0678 5.39737 26.6846C6.01425 27.3015 6.86008 27.6719 8.32716 27.8688C9.82633 28.07 11.8009 28.073 14.582 28.073H20.4153C23.1963 28.073 25.1724 28.07 26.6715 27.8688C28.1372 27.6719 28.983 27.3015 29.5999 26.6846C30.2167 26.0678 30.5872 25.2219 30.784 23.7548C30.9853 22.2557 30.9882 20.2811 30.9882 17.5C30.9882 14.719 30.9853 12.7444 30.784 11.2438C30.5872 9.77817 30.2167 8.93233 29.5999 8.31546C28.983 7.69858 28.1372 7.32817 26.6701 7.13129C25.1724 6.93004 23.1963 6.92712 20.4153 6.92712H14.582C11.8009 6.92712 9.82779 6.93004 8.32716 7.13129Z" fill="white"/>
</svg>
